%TF.GenerationSoftware,KiCad,Pcbnew,8.0.8*%
%TF.CreationDate,2025-03-28T18:22:30-07:00*%
%TF.ProjectId,RCA Radio Telescope,52434120-5261-4646-996f-2054656c6573,1.9*%
%TF.SameCoordinates,Original*%
%TF.FileFunction,Drillmap*%
%TF.FilePolarity,Positive*%
%FSLAX45Y45*%
G04 Gerber Fmt 4.5, Leading zero omitted, Abs format (unit mm)*
G04 Created by KiCad (PCBNEW 8.0.8) date 2025-03-28 18:22:30*
%MOMM*%
%LPD*%
G01*
G04 APERTURE LIST*
%ADD10C,3.100000*%
%ADD11C,0.200000*%
%ADD12C,0.100000*%
%ADD13C,0.106000*%
%ADD14C,0.129540*%
%ADD15C,0.231140*%
G04 APERTURE END LIST*
D10*
X2155000Y-2000000D02*
G75*
G02*
X1845000Y-2000000I-155000J0D01*
G01*
X1845000Y-2000000D02*
G75*
G02*
X2155000Y-2000000I155000J0D01*
G01*
D11*
X7200000Y-1400000D02*
G75*
G02*
X7400000Y-1600000I0J-200000D01*
G01*
X1400000Y-1600000D02*
G75*
G02*
X1600000Y-1400000I200000J0D01*
G01*
X1600000Y-1400000D02*
X7200000Y-1400000D01*
X7400000Y-5200000D02*
G75*
G02*
X7200000Y-5400000I-200000J0D01*
G01*
X7400000Y-1600000D02*
X7400000Y-5200000D01*
D10*
X6955000Y-2000000D02*
G75*
G02*
X6645000Y-2000000I-155000J0D01*
G01*
X6645000Y-2000000D02*
G75*
G02*
X6955000Y-2000000I155000J0D01*
G01*
X6955000Y-4800000D02*
G75*
G02*
X6645000Y-4800000I-155000J0D01*
G01*
X6645000Y-4800000D02*
G75*
G02*
X6955000Y-4800000I155000J0D01*
G01*
D11*
X1600000Y-5400000D02*
G75*
G02*
X1400000Y-5200000I0J200000D01*
G01*
X7200000Y-5400000D02*
X1600000Y-5400000D01*
D10*
X2155000Y-4800000D02*
G75*
G02*
X1845000Y-4800000I-155000J0D01*
G01*
X1845000Y-4800000D02*
G75*
G02*
X2155000Y-4800000I155000J0D01*
G01*
D11*
X1400000Y-5200000D02*
X1400000Y-1600000D01*
D12*
X3410840Y-3765840D02*
X3431160Y-3786160D01*
X3431160Y-3765840D02*
X3410840Y-3786160D01*
X3410840Y-3883840D02*
X3431160Y-3904160D01*
X3431160Y-3883840D02*
X3410840Y-3904160D01*
X3469840Y-3824840D02*
X3490160Y-3845160D01*
X3490160Y-3824840D02*
X3469840Y-3845160D01*
X3528840Y-3765840D02*
X3549160Y-3786160D01*
X3549160Y-3765840D02*
X3528840Y-3786160D01*
X3528840Y-3883840D02*
X3549160Y-3904160D01*
X3549160Y-3883840D02*
X3528840Y-3904160D01*
X1665000Y-2900000D02*
G75*
G02*
X1635000Y-2900000I-15000J0D01*
G01*
X1635000Y-2900000D02*
G75*
G02*
X1665000Y-2900000I15000J0D01*
G01*
X1665000Y-3400000D02*
G75*
G02*
X1635000Y-3400000I-15000J0D01*
G01*
X1635000Y-3400000D02*
G75*
G02*
X1665000Y-3400000I15000J0D01*
G01*
X1665000Y-4200000D02*
G75*
G02*
X1635000Y-4200000I-15000J0D01*
G01*
X1635000Y-4200000D02*
G75*
G02*
X1665000Y-4200000I15000J0D01*
G01*
X1875000Y-2460000D02*
G75*
G02*
X1845000Y-2460000I-15000J0D01*
G01*
X1845000Y-2460000D02*
G75*
G02*
X1875000Y-2460000I15000J0D01*
G01*
X2015000Y-4200000D02*
G75*
G02*
X1985000Y-4200000I-15000J0D01*
G01*
X1985000Y-4200000D02*
G75*
G02*
X2015000Y-4200000I15000J0D01*
G01*
X2265000Y-2900000D02*
G75*
G02*
X2235000Y-2900000I-15000J0D01*
G01*
X2235000Y-2900000D02*
G75*
G02*
X2265000Y-2900000I15000J0D01*
G01*
X2265000Y-3400000D02*
G75*
G02*
X2235000Y-3400000I-15000J0D01*
G01*
X2235000Y-3400000D02*
G75*
G02*
X2265000Y-3400000I15000J0D01*
G01*
X2315000Y-2530000D02*
G75*
G02*
X2285000Y-2530000I-15000J0D01*
G01*
X2285000Y-2530000D02*
G75*
G02*
X2315000Y-2530000I15000J0D01*
G01*
X2315000Y-3800000D02*
G75*
G02*
X2285000Y-3800000I-15000J0D01*
G01*
X2285000Y-3800000D02*
G75*
G02*
X2315000Y-3800000I15000J0D01*
G01*
X2365000Y-4300000D02*
G75*
G02*
X2335000Y-4300000I-15000J0D01*
G01*
X2335000Y-4300000D02*
G75*
G02*
X2365000Y-4300000I15000J0D01*
G01*
X2465000Y-3590000D02*
G75*
G02*
X2435000Y-3590000I-15000J0D01*
G01*
X2435000Y-3590000D02*
G75*
G02*
X2465000Y-3590000I15000J0D01*
G01*
X2485000Y-4640000D02*
G75*
G02*
X2455000Y-4640000I-15000J0D01*
G01*
X2455000Y-4640000D02*
G75*
G02*
X2485000Y-4640000I15000J0D01*
G01*
X2515000Y-4400000D02*
G75*
G02*
X2485000Y-4400000I-15000J0D01*
G01*
X2485000Y-4400000D02*
G75*
G02*
X2515000Y-4400000I15000J0D01*
G01*
X2515000Y-4480000D02*
G75*
G02*
X2485000Y-4480000I-15000J0D01*
G01*
X2485000Y-4480000D02*
G75*
G02*
X2515000Y-4480000I15000J0D01*
G01*
X2615000Y-4300000D02*
G75*
G02*
X2585000Y-4300000I-15000J0D01*
G01*
X2585000Y-4300000D02*
G75*
G02*
X2615000Y-4300000I15000J0D01*
G01*
X2625000Y-4700000D02*
G75*
G02*
X2595000Y-4700000I-15000J0D01*
G01*
X2595000Y-4700000D02*
G75*
G02*
X2625000Y-4700000I15000J0D01*
G01*
X2655000Y-3260000D02*
G75*
G02*
X2625000Y-3260000I-15000J0D01*
G01*
X2625000Y-3260000D02*
G75*
G02*
X2655000Y-3260000I15000J0D01*
G01*
X2665000Y-1700000D02*
G75*
G02*
X2635000Y-1700000I-15000J0D01*
G01*
X2635000Y-1700000D02*
G75*
G02*
X2665000Y-1700000I15000J0D01*
G01*
X2665000Y-2200000D02*
G75*
G02*
X2635000Y-2200000I-15000J0D01*
G01*
X2635000Y-2200000D02*
G75*
G02*
X2665000Y-2200000I15000J0D01*
G01*
X2665000Y-2500000D02*
G75*
G02*
X2635000Y-2500000I-15000J0D01*
G01*
X2635000Y-2500000D02*
G75*
G02*
X2665000Y-2500000I15000J0D01*
G01*
X2665000Y-2860000D02*
G75*
G02*
X2635000Y-2860000I-15000J0D01*
G01*
X2635000Y-2860000D02*
G75*
G02*
X2665000Y-2860000I15000J0D01*
G01*
X2665000Y-4650000D02*
G75*
G02*
X2635000Y-4650000I-15000J0D01*
G01*
X2635000Y-4650000D02*
G75*
G02*
X2665000Y-4650000I15000J0D01*
G01*
X2715000Y-5100000D02*
G75*
G02*
X2685000Y-5100000I-15000J0D01*
G01*
X2685000Y-5100000D02*
G75*
G02*
X2715000Y-5100000I15000J0D01*
G01*
X2775000Y-4300000D02*
G75*
G02*
X2745000Y-4300000I-15000J0D01*
G01*
X2745000Y-4300000D02*
G75*
G02*
X2775000Y-4300000I15000J0D01*
G01*
X2865000Y-2700000D02*
G75*
G02*
X2835000Y-2700000I-15000J0D01*
G01*
X2835000Y-2700000D02*
G75*
G02*
X2865000Y-2700000I15000J0D01*
G01*
X2865000Y-3350000D02*
G75*
G02*
X2835000Y-3350000I-15000J0D01*
G01*
X2835000Y-3350000D02*
G75*
G02*
X2865000Y-3350000I15000J0D01*
G01*
X2895000Y-4650000D02*
G75*
G02*
X2865000Y-4650000I-15000J0D01*
G01*
X2865000Y-4650000D02*
G75*
G02*
X2895000Y-4650000I15000J0D01*
G01*
X2925000Y-4300000D02*
G75*
G02*
X2895000Y-4300000I-15000J0D01*
G01*
X2895000Y-4300000D02*
G75*
G02*
X2925000Y-4300000I15000J0D01*
G01*
X2935000Y-4700000D02*
G75*
G02*
X2905000Y-4700000I-15000J0D01*
G01*
X2905000Y-4700000D02*
G75*
G02*
X2935000Y-4700000I15000J0D01*
G01*
X2965000Y-3530000D02*
G75*
G02*
X2935000Y-3530000I-15000J0D01*
G01*
X2935000Y-3530000D02*
G75*
G02*
X2965000Y-3530000I15000J0D01*
G01*
X3015000Y-4500000D02*
G75*
G02*
X2985000Y-4500000I-15000J0D01*
G01*
X2985000Y-4500000D02*
G75*
G02*
X3015000Y-4500000I15000J0D01*
G01*
X3015000Y-4610000D02*
G75*
G02*
X2985000Y-4610000I-15000J0D01*
G01*
X2985000Y-4610000D02*
G75*
G02*
X3015000Y-4610000I15000J0D01*
G01*
X3025000Y-4380000D02*
G75*
G02*
X2995000Y-4380000I-15000J0D01*
G01*
X2995000Y-4380000D02*
G75*
G02*
X3025000Y-4380000I15000J0D01*
G01*
X3065000Y-1700000D02*
G75*
G02*
X3035000Y-1700000I-15000J0D01*
G01*
X3035000Y-1700000D02*
G75*
G02*
X3065000Y-1700000I15000J0D01*
G01*
X3065000Y-2200000D02*
G75*
G02*
X3035000Y-2200000I-15000J0D01*
G01*
X3035000Y-2200000D02*
G75*
G02*
X3065000Y-2200000I15000J0D01*
G01*
X3065000Y-2900000D02*
G75*
G02*
X3035000Y-2900000I-15000J0D01*
G01*
X3035000Y-2900000D02*
G75*
G02*
X3065000Y-2900000I15000J0D01*
G01*
X3115000Y-4200000D02*
G75*
G02*
X3085000Y-4200000I-15000J0D01*
G01*
X3085000Y-4200000D02*
G75*
G02*
X3115000Y-4200000I15000J0D01*
G01*
X3125000Y-2500000D02*
G75*
G02*
X3095000Y-2500000I-15000J0D01*
G01*
X3095000Y-2500000D02*
G75*
G02*
X3125000Y-2500000I15000J0D01*
G01*
X3215000Y-2700000D02*
G75*
G02*
X3185000Y-2700000I-15000J0D01*
G01*
X3185000Y-2700000D02*
G75*
G02*
X3215000Y-2700000I15000J0D01*
G01*
X3215000Y-3100000D02*
G75*
G02*
X3185000Y-3100000I-15000J0D01*
G01*
X3185000Y-3100000D02*
G75*
G02*
X3215000Y-3100000I15000J0D01*
G01*
X3265000Y-3650000D02*
G75*
G02*
X3235000Y-3650000I-15000J0D01*
G01*
X3235000Y-3650000D02*
G75*
G02*
X3265000Y-3650000I15000J0D01*
G01*
X3315000Y-5100000D02*
G75*
G02*
X3285000Y-5100000I-15000J0D01*
G01*
X3285000Y-5100000D02*
G75*
G02*
X3315000Y-5100000I15000J0D01*
G01*
X3325000Y-4360000D02*
G75*
G02*
X3295000Y-4360000I-15000J0D01*
G01*
X3295000Y-4360000D02*
G75*
G02*
X3325000Y-4360000I15000J0D01*
G01*
X3365000Y-1950000D02*
G75*
G02*
X3335000Y-1950000I-15000J0D01*
G01*
X3335000Y-1950000D02*
G75*
G02*
X3365000Y-1950000I15000J0D01*
G01*
X3365000Y-2200000D02*
G75*
G02*
X3335000Y-2200000I-15000J0D01*
G01*
X3335000Y-2200000D02*
G75*
G02*
X3365000Y-2200000I15000J0D01*
G01*
X3375000Y-2830000D02*
G75*
G02*
X3345000Y-2830000I-15000J0D01*
G01*
X3345000Y-2830000D02*
G75*
G02*
X3375000Y-2830000I15000J0D01*
G01*
X3395000Y-4090000D02*
G75*
G02*
X3365000Y-4090000I-15000J0D01*
G01*
X3365000Y-4090000D02*
G75*
G02*
X3395000Y-4090000I15000J0D01*
G01*
X3415000Y-4600000D02*
G75*
G02*
X3385000Y-4600000I-15000J0D01*
G01*
X3385000Y-4600000D02*
G75*
G02*
X3415000Y-4600000I15000J0D01*
G01*
X3425000Y-2500000D02*
G75*
G02*
X3395000Y-2500000I-15000J0D01*
G01*
X3395000Y-2500000D02*
G75*
G02*
X3425000Y-2500000I15000J0D01*
G01*
X3445000Y-3200000D02*
G75*
G02*
X3415000Y-3200000I-15000J0D01*
G01*
X3415000Y-3200000D02*
G75*
G02*
X3445000Y-3200000I15000J0D01*
G01*
X3465000Y-1800000D02*
G75*
G02*
X3435000Y-1800000I-15000J0D01*
G01*
X3435000Y-1800000D02*
G75*
G02*
X3465000Y-1800000I15000J0D01*
G01*
X3465000Y-2100000D02*
G75*
G02*
X3435000Y-2100000I-15000J0D01*
G01*
X3435000Y-2100000D02*
G75*
G02*
X3465000Y-2100000I15000J0D01*
G01*
X3495000Y-3300000D02*
G75*
G02*
X3465000Y-3300000I-15000J0D01*
G01*
X3465000Y-3300000D02*
G75*
G02*
X3495000Y-3300000I15000J0D01*
G01*
X3495000Y-3610000D02*
G75*
G02*
X3465000Y-3610000I-15000J0D01*
G01*
X3465000Y-3610000D02*
G75*
G02*
X3495000Y-3610000I15000J0D01*
G01*
X3505000Y-3040000D02*
G75*
G02*
X3475000Y-3040000I-15000J0D01*
G01*
X3475000Y-3040000D02*
G75*
G02*
X3505000Y-3040000I15000J0D01*
G01*
X3525000Y-2680000D02*
G75*
G02*
X3495000Y-2680000I-15000J0D01*
G01*
X3495000Y-2680000D02*
G75*
G02*
X3525000Y-2680000I15000J0D01*
G01*
X3525000Y-4230000D02*
G75*
G02*
X3495000Y-4230000I-15000J0D01*
G01*
X3495000Y-4230000D02*
G75*
G02*
X3525000Y-4230000I15000J0D01*
G01*
X3575000Y-2470000D02*
G75*
G02*
X3545000Y-2470000I-15000J0D01*
G01*
X3545000Y-2470000D02*
G75*
G02*
X3575000Y-2470000I15000J0D01*
G01*
X3595000Y-4270000D02*
G75*
G02*
X3565000Y-4270000I-15000J0D01*
G01*
X3565000Y-4270000D02*
G75*
G02*
X3595000Y-4270000I15000J0D01*
G01*
X3605000Y-2850000D02*
G75*
G02*
X3575000Y-2850000I-15000J0D01*
G01*
X3575000Y-2850000D02*
G75*
G02*
X3605000Y-2850000I15000J0D01*
G01*
X3605000Y-4040000D02*
G75*
G02*
X3575000Y-4040000I-15000J0D01*
G01*
X3575000Y-4040000D02*
G75*
G02*
X3605000Y-4040000I15000J0D01*
G01*
X3655000Y-4370000D02*
G75*
G02*
X3625000Y-4370000I-15000J0D01*
G01*
X3625000Y-4370000D02*
G75*
G02*
X3655000Y-4370000I15000J0D01*
G01*
X3665000Y-1700000D02*
G75*
G02*
X3635000Y-1700000I-15000J0D01*
G01*
X3635000Y-1700000D02*
G75*
G02*
X3665000Y-1700000I15000J0D01*
G01*
X3665000Y-1800000D02*
G75*
G02*
X3635000Y-1800000I-15000J0D01*
G01*
X3635000Y-1800000D02*
G75*
G02*
X3665000Y-1800000I15000J0D01*
G01*
X3665000Y-2100000D02*
G75*
G02*
X3635000Y-2100000I-15000J0D01*
G01*
X3635000Y-2100000D02*
G75*
G02*
X3665000Y-2100000I15000J0D01*
G01*
X3665000Y-2700000D02*
G75*
G02*
X3635000Y-2700000I-15000J0D01*
G01*
X3635000Y-2700000D02*
G75*
G02*
X3665000Y-2700000I15000J0D01*
G01*
X3675000Y-2430000D02*
G75*
G02*
X3645000Y-2430000I-15000J0D01*
G01*
X3645000Y-2430000D02*
G75*
G02*
X3675000Y-2430000I15000J0D01*
G01*
X3685000Y-4120000D02*
G75*
G02*
X3655000Y-4120000I-15000J0D01*
G01*
X3655000Y-4120000D02*
G75*
G02*
X3685000Y-4120000I15000J0D01*
G01*
X3735000Y-1860000D02*
G75*
G02*
X3705000Y-1860000I-15000J0D01*
G01*
X3705000Y-1860000D02*
G75*
G02*
X3735000Y-1860000I15000J0D01*
G01*
X3745000Y-2860000D02*
G75*
G02*
X3715000Y-2860000I-15000J0D01*
G01*
X3715000Y-2860000D02*
G75*
G02*
X3745000Y-2860000I15000J0D01*
G01*
X3748926Y-4226074D02*
G75*
G02*
X3718926Y-4226074I-15000J0D01*
G01*
X3718926Y-4226074D02*
G75*
G02*
X3748926Y-4226074I15000J0D01*
G01*
X3765000Y-2050000D02*
G75*
G02*
X3735000Y-2050000I-15000J0D01*
G01*
X3735000Y-2050000D02*
G75*
G02*
X3765000Y-2050000I15000J0D01*
G01*
X3765000Y-4480000D02*
G75*
G02*
X3735000Y-4480000I-15000J0D01*
G01*
X3735000Y-4480000D02*
G75*
G02*
X3765000Y-4480000I15000J0D01*
G01*
X3785000Y-2420000D02*
G75*
G02*
X3755000Y-2420000I-15000J0D01*
G01*
X3755000Y-2420000D02*
G75*
G02*
X3785000Y-2420000I15000J0D01*
G01*
X3815000Y-3500000D02*
G75*
G02*
X3785000Y-3500000I-15000J0D01*
G01*
X3785000Y-3500000D02*
G75*
G02*
X3815000Y-3500000I15000J0D01*
G01*
X3815000Y-3590000D02*
G75*
G02*
X3785000Y-3590000I-15000J0D01*
G01*
X3785000Y-3590000D02*
G75*
G02*
X3815000Y-3590000I15000J0D01*
G01*
X3815000Y-5100000D02*
G75*
G02*
X3785000Y-5100000I-15000J0D01*
G01*
X3785000Y-5100000D02*
G75*
G02*
X3815000Y-5100000I15000J0D01*
G01*
X3835000Y-3040000D02*
G75*
G02*
X3805000Y-3040000I-15000J0D01*
G01*
X3805000Y-3040000D02*
G75*
G02*
X3835000Y-3040000I15000J0D01*
G01*
X3855000Y-4280000D02*
G75*
G02*
X3825000Y-4280000I-15000J0D01*
G01*
X3825000Y-4280000D02*
G75*
G02*
X3855000Y-4280000I15000J0D01*
G01*
X3885000Y-2110000D02*
G75*
G02*
X3855000Y-2110000I-15000J0D01*
G01*
X3855000Y-2110000D02*
G75*
G02*
X3885000Y-2110000I15000J0D01*
G01*
X3885000Y-2860000D02*
G75*
G02*
X3855000Y-2860000I-15000J0D01*
G01*
X3855000Y-2860000D02*
G75*
G02*
X3885000Y-2860000I15000J0D01*
G01*
X3885000Y-4490000D02*
G75*
G02*
X3855000Y-4490000I-15000J0D01*
G01*
X3855000Y-4490000D02*
G75*
G02*
X3885000Y-4490000I15000J0D01*
G01*
X3895000Y-2210000D02*
G75*
G02*
X3865000Y-2210000I-15000J0D01*
G01*
X3865000Y-2210000D02*
G75*
G02*
X3895000Y-2210000I15000J0D01*
G01*
X3895000Y-2290000D02*
G75*
G02*
X3865000Y-2290000I-15000J0D01*
G01*
X3865000Y-2290000D02*
G75*
G02*
X3895000Y-2290000I15000J0D01*
G01*
X3905000Y-3435000D02*
G75*
G02*
X3875000Y-3435000I-15000J0D01*
G01*
X3875000Y-3435000D02*
G75*
G02*
X3905000Y-3435000I15000J0D01*
G01*
X3945000Y-2700000D02*
G75*
G02*
X3915000Y-2700000I-15000J0D01*
G01*
X3915000Y-2700000D02*
G75*
G02*
X3945000Y-2700000I15000J0D01*
G01*
X3965000Y-2850000D02*
G75*
G02*
X3935000Y-2850000I-15000J0D01*
G01*
X3935000Y-2850000D02*
G75*
G02*
X3965000Y-2850000I15000J0D01*
G01*
X3965000Y-3050000D02*
G75*
G02*
X3935000Y-3050000I-15000J0D01*
G01*
X3935000Y-3050000D02*
G75*
G02*
X3965000Y-3050000I15000J0D01*
G01*
X3975000Y-4750000D02*
G75*
G02*
X3945000Y-4750000I-15000J0D01*
G01*
X3945000Y-4750000D02*
G75*
G02*
X3975000Y-4750000I15000J0D01*
G01*
X3975000Y-4950000D02*
G75*
G02*
X3945000Y-4950000I-15000J0D01*
G01*
X3945000Y-4950000D02*
G75*
G02*
X3975000Y-4950000I15000J0D01*
G01*
X3995000Y-1880000D02*
G75*
G02*
X3965000Y-1880000I-15000J0D01*
G01*
X3965000Y-1880000D02*
G75*
G02*
X3995000Y-1880000I15000J0D01*
G01*
X3995000Y-4490000D02*
G75*
G02*
X3965000Y-4490000I-15000J0D01*
G01*
X3965000Y-4490000D02*
G75*
G02*
X3995000Y-4490000I15000J0D01*
G01*
X4065000Y-3435000D02*
G75*
G02*
X4035000Y-3435000I-15000J0D01*
G01*
X4035000Y-3435000D02*
G75*
G02*
X4065000Y-3435000I15000J0D01*
G01*
X4065000Y-4280000D02*
G75*
G02*
X4035000Y-4280000I-15000J0D01*
G01*
X4035000Y-4280000D02*
G75*
G02*
X4065000Y-4280000I15000J0D01*
G01*
X4085000Y-1960000D02*
G75*
G02*
X4055000Y-1960000I-15000J0D01*
G01*
X4055000Y-1960000D02*
G75*
G02*
X4085000Y-1960000I15000J0D01*
G01*
X4145000Y-4700000D02*
G75*
G02*
X4115000Y-4700000I-15000J0D01*
G01*
X4115000Y-4700000D02*
G75*
G02*
X4145000Y-4700000I15000J0D01*
G01*
X4165000Y-1700000D02*
G75*
G02*
X4135000Y-1700000I-15000J0D01*
G01*
X4135000Y-1700000D02*
G75*
G02*
X4165000Y-1700000I15000J0D01*
G01*
X4165000Y-2050000D02*
G75*
G02*
X4135000Y-2050000I-15000J0D01*
G01*
X4135000Y-2050000D02*
G75*
G02*
X4165000Y-2050000I15000J0D01*
G01*
X4165000Y-4960000D02*
G75*
G02*
X4135000Y-4960000I-15000J0D01*
G01*
X4135000Y-4960000D02*
G75*
G02*
X4165000Y-4960000I15000J0D01*
G01*
X4215000Y-2160000D02*
G75*
G02*
X4185000Y-2160000I-15000J0D01*
G01*
X4185000Y-2160000D02*
G75*
G02*
X4215000Y-2160000I15000J0D01*
G01*
X4215000Y-2270000D02*
G75*
G02*
X4185000Y-2270000I-15000J0D01*
G01*
X4185000Y-2270000D02*
G75*
G02*
X4215000Y-2270000I15000J0D01*
G01*
X4215000Y-2370000D02*
G75*
G02*
X4185000Y-2370000I-15000J0D01*
G01*
X4185000Y-2370000D02*
G75*
G02*
X4215000Y-2370000I15000J0D01*
G01*
X4215000Y-4280000D02*
G75*
G02*
X4185000Y-4280000I-15000J0D01*
G01*
X4185000Y-4280000D02*
G75*
G02*
X4215000Y-4280000I15000J0D01*
G01*
X4225000Y-4600000D02*
G75*
G02*
X4195000Y-4600000I-15000J0D01*
G01*
X4195000Y-4600000D02*
G75*
G02*
X4225000Y-4600000I15000J0D01*
G01*
X4255000Y-4850000D02*
G75*
G02*
X4225000Y-4850000I-15000J0D01*
G01*
X4225000Y-4850000D02*
G75*
G02*
X4255000Y-4850000I15000J0D01*
G01*
X4295000Y-2440000D02*
G75*
G02*
X4265000Y-2440000I-15000J0D01*
G01*
X4265000Y-2440000D02*
G75*
G02*
X4295000Y-2440000I15000J0D01*
G01*
X4295000Y-3010000D02*
G75*
G02*
X4265000Y-3010000I-15000J0D01*
G01*
X4265000Y-3010000D02*
G75*
G02*
X4295000Y-3010000I15000J0D01*
G01*
X4315000Y-2700000D02*
G75*
G02*
X4285000Y-2700000I-15000J0D01*
G01*
X4285000Y-2700000D02*
G75*
G02*
X4315000Y-2700000I15000J0D01*
G01*
X4315000Y-2800000D02*
G75*
G02*
X4285000Y-2800000I-15000J0D01*
G01*
X4285000Y-2800000D02*
G75*
G02*
X4315000Y-2800000I15000J0D01*
G01*
X4315000Y-2900000D02*
G75*
G02*
X4285000Y-2900000I-15000J0D01*
G01*
X4285000Y-2900000D02*
G75*
G02*
X4315000Y-2900000I15000J0D01*
G01*
X4360000Y-4780000D02*
G75*
G02*
X4330000Y-4780000I-15000J0D01*
G01*
X4330000Y-4780000D02*
G75*
G02*
X4360000Y-4780000I15000J0D01*
G01*
X4365000Y-4440000D02*
G75*
G02*
X4335000Y-4440000I-15000J0D01*
G01*
X4335000Y-4440000D02*
G75*
G02*
X4365000Y-4440000I15000J0D01*
G01*
X4380000Y-2465000D02*
G75*
G02*
X4350000Y-2465000I-15000J0D01*
G01*
X4350000Y-2465000D02*
G75*
G02*
X4380000Y-2465000I15000J0D01*
G01*
X4385000Y-4280000D02*
G75*
G02*
X4355000Y-4280000I-15000J0D01*
G01*
X4355000Y-4280000D02*
G75*
G02*
X4385000Y-4280000I15000J0D01*
G01*
X4390000Y-2665000D02*
G75*
G02*
X4360000Y-2665000I-15000J0D01*
G01*
X4360000Y-2665000D02*
G75*
G02*
X4390000Y-2665000I15000J0D01*
G01*
X4415000Y-2000000D02*
G75*
G02*
X4385000Y-2000000I-15000J0D01*
G01*
X4385000Y-2000000D02*
G75*
G02*
X4415000Y-2000000I15000J0D01*
G01*
X4415000Y-2300000D02*
G75*
G02*
X4385000Y-2300000I-15000J0D01*
G01*
X4385000Y-2300000D02*
G75*
G02*
X4415000Y-2300000I15000J0D01*
G01*
X4485000Y-4645000D02*
G75*
G02*
X4455000Y-4645000I-15000J0D01*
G01*
X4455000Y-4645000D02*
G75*
G02*
X4485000Y-4645000I15000J0D01*
G01*
X4490000Y-5115000D02*
G75*
G02*
X4460000Y-5115000I-15000J0D01*
G01*
X4460000Y-5115000D02*
G75*
G02*
X4490000Y-5115000I15000J0D01*
G01*
X4505000Y-3445000D02*
G75*
G02*
X4475000Y-3445000I-15000J0D01*
G01*
X4475000Y-3445000D02*
G75*
G02*
X4505000Y-3445000I15000J0D01*
G01*
X4515000Y-1680000D02*
G75*
G02*
X4485000Y-1680000I-15000J0D01*
G01*
X4485000Y-1680000D02*
G75*
G02*
X4515000Y-1680000I15000J0D01*
G01*
X4515000Y-2700000D02*
G75*
G02*
X4485000Y-2700000I-15000J0D01*
G01*
X4485000Y-2700000D02*
G75*
G02*
X4515000Y-2700000I15000J0D01*
G01*
X4515000Y-4800000D02*
G75*
G02*
X4485000Y-4800000I-15000J0D01*
G01*
X4485000Y-4800000D02*
G75*
G02*
X4515000Y-4800000I15000J0D01*
G01*
X4545000Y-4560000D02*
G75*
G02*
X4515000Y-4560000I-15000J0D01*
G01*
X4515000Y-4560000D02*
G75*
G02*
X4545000Y-4560000I15000J0D01*
G01*
X4555000Y-2850000D02*
G75*
G02*
X4525000Y-2850000I-15000J0D01*
G01*
X4525000Y-2850000D02*
G75*
G02*
X4555000Y-2850000I15000J0D01*
G01*
X4555000Y-3010000D02*
G75*
G02*
X4525000Y-3010000I-15000J0D01*
G01*
X4525000Y-3010000D02*
G75*
G02*
X4555000Y-3010000I15000J0D01*
G01*
X4575000Y-3215000D02*
G75*
G02*
X4545000Y-3215000I-15000J0D01*
G01*
X4545000Y-3215000D02*
G75*
G02*
X4575000Y-3215000I15000J0D01*
G01*
X4585000Y-4390000D02*
G75*
G02*
X4555000Y-4390000I-15000J0D01*
G01*
X4555000Y-4390000D02*
G75*
G02*
X4585000Y-4390000I15000J0D01*
G01*
X4595000Y-4110000D02*
G75*
G02*
X4565000Y-4110000I-15000J0D01*
G01*
X4565000Y-4110000D02*
G75*
G02*
X4595000Y-4110000I15000J0D01*
G01*
X4745000Y-4010000D02*
G75*
G02*
X4715000Y-4010000I-15000J0D01*
G01*
X4715000Y-4010000D02*
G75*
G02*
X4745000Y-4010000I15000J0D01*
G01*
X4745000Y-4600000D02*
G75*
G02*
X4715000Y-4600000I-15000J0D01*
G01*
X4715000Y-4600000D02*
G75*
G02*
X4745000Y-4600000I15000J0D01*
G01*
X4755000Y-2100000D02*
G75*
G02*
X4725000Y-2100000I-15000J0D01*
G01*
X4725000Y-2100000D02*
G75*
G02*
X4755000Y-2100000I15000J0D01*
G01*
X4755000Y-2830000D02*
G75*
G02*
X4725000Y-2830000I-15000J0D01*
G01*
X4725000Y-2830000D02*
G75*
G02*
X4755000Y-2830000I15000J0D01*
G01*
X4755000Y-3000000D02*
G75*
G02*
X4725000Y-3000000I-15000J0D01*
G01*
X4725000Y-3000000D02*
G75*
G02*
X4755000Y-3000000I15000J0D01*
G01*
X4755000Y-5110000D02*
G75*
G02*
X4725000Y-5110000I-15000J0D01*
G01*
X4725000Y-5110000D02*
G75*
G02*
X4755000Y-5110000I15000J0D01*
G01*
X4805000Y-3920000D02*
G75*
G02*
X4775000Y-3920000I-15000J0D01*
G01*
X4775000Y-3920000D02*
G75*
G02*
X4805000Y-3920000I15000J0D01*
G01*
X4865000Y-1680000D02*
G75*
G02*
X4835000Y-1680000I-15000J0D01*
G01*
X4835000Y-1680000D02*
G75*
G02*
X4865000Y-1680000I15000J0D01*
G01*
X4915000Y-4100000D02*
G75*
G02*
X4885000Y-4100000I-15000J0D01*
G01*
X4885000Y-4100000D02*
G75*
G02*
X4915000Y-4100000I15000J0D01*
G01*
X4965000Y-2100000D02*
G75*
G02*
X4935000Y-2100000I-15000J0D01*
G01*
X4935000Y-2100000D02*
G75*
G02*
X4965000Y-2100000I15000J0D01*
G01*
X5065000Y-2400000D02*
G75*
G02*
X5035000Y-2400000I-15000J0D01*
G01*
X5035000Y-2400000D02*
G75*
G02*
X5065000Y-2400000I15000J0D01*
G01*
X5065000Y-4600000D02*
G75*
G02*
X5035000Y-4600000I-15000J0D01*
G01*
X5035000Y-4600000D02*
G75*
G02*
X5065000Y-4600000I15000J0D01*
G01*
X5065000Y-5100000D02*
G75*
G02*
X5035000Y-5100000I-15000J0D01*
G01*
X5035000Y-5100000D02*
G75*
G02*
X5065000Y-5100000I15000J0D01*
G01*
X5215000Y-2700000D02*
G75*
G02*
X5185000Y-2700000I-15000J0D01*
G01*
X5185000Y-2700000D02*
G75*
G02*
X5215000Y-2700000I15000J0D01*
G01*
X5215000Y-2880000D02*
G75*
G02*
X5185000Y-2880000I-15000J0D01*
G01*
X5185000Y-2880000D02*
G75*
G02*
X5215000Y-2880000I15000J0D01*
G01*
X5215000Y-3000000D02*
G75*
G02*
X5185000Y-3000000I-15000J0D01*
G01*
X5185000Y-3000000D02*
G75*
G02*
X5215000Y-3000000I15000J0D01*
G01*
X5215000Y-3200000D02*
G75*
G02*
X5185000Y-3200000I-15000J0D01*
G01*
X5185000Y-3200000D02*
G75*
G02*
X5215000Y-3200000I15000J0D01*
G01*
X5215000Y-3320000D02*
G75*
G02*
X5185000Y-3320000I-15000J0D01*
G01*
X5185000Y-3320000D02*
G75*
G02*
X5215000Y-3320000I15000J0D01*
G01*
X5215000Y-3540000D02*
G75*
G02*
X5185000Y-3540000I-15000J0D01*
G01*
X5185000Y-3540000D02*
G75*
G02*
X5215000Y-3540000I15000J0D01*
G01*
X5215000Y-3730000D02*
G75*
G02*
X5185000Y-3730000I-15000J0D01*
G01*
X5185000Y-3730000D02*
G75*
G02*
X5215000Y-3730000I15000J0D01*
G01*
X5215000Y-4100000D02*
G75*
G02*
X5185000Y-4100000I-15000J0D01*
G01*
X5185000Y-4100000D02*
G75*
G02*
X5215000Y-4100000I15000J0D01*
G01*
X5215000Y-4300000D02*
G75*
G02*
X5185000Y-4300000I-15000J0D01*
G01*
X5185000Y-4300000D02*
G75*
G02*
X5215000Y-4300000I15000J0D01*
G01*
X5365000Y-1700000D02*
G75*
G02*
X5335000Y-1700000I-15000J0D01*
G01*
X5335000Y-1700000D02*
G75*
G02*
X5365000Y-1700000I15000J0D01*
G01*
X5365000Y-2100000D02*
G75*
G02*
X5335000Y-2100000I-15000J0D01*
G01*
X5335000Y-2100000D02*
G75*
G02*
X5365000Y-2100000I15000J0D01*
G01*
X5365000Y-2650000D02*
G75*
G02*
X5335000Y-2650000I-15000J0D01*
G01*
X5335000Y-2650000D02*
G75*
G02*
X5365000Y-2650000I15000J0D01*
G01*
X5365000Y-4150000D02*
G75*
G02*
X5335000Y-4150000I-15000J0D01*
G01*
X5335000Y-4150000D02*
G75*
G02*
X5365000Y-4150000I15000J0D01*
G01*
X5465000Y-2650000D02*
G75*
G02*
X5435000Y-2650000I-15000J0D01*
G01*
X5435000Y-2650000D02*
G75*
G02*
X5465000Y-2650000I15000J0D01*
G01*
X5465000Y-4150000D02*
G75*
G02*
X5435000Y-4150000I-15000J0D01*
G01*
X5435000Y-4150000D02*
G75*
G02*
X5465000Y-4150000I15000J0D01*
G01*
X5615000Y-4100000D02*
G75*
G02*
X5585000Y-4100000I-15000J0D01*
G01*
X5585000Y-4100000D02*
G75*
G02*
X5615000Y-4100000I15000J0D01*
G01*
X5615000Y-4300000D02*
G75*
G02*
X5585000Y-4300000I-15000J0D01*
G01*
X5585000Y-4300000D02*
G75*
G02*
X5615000Y-4300000I15000J0D01*
G01*
X5655000Y-2690000D02*
G75*
G02*
X5625000Y-2690000I-15000J0D01*
G01*
X5625000Y-2690000D02*
G75*
G02*
X5655000Y-2690000I15000J0D01*
G01*
X5665000Y-2870000D02*
G75*
G02*
X5635000Y-2870000I-15000J0D01*
G01*
X5635000Y-2870000D02*
G75*
G02*
X5665000Y-2870000I15000J0D01*
G01*
X5665000Y-3000000D02*
G75*
G02*
X5635000Y-3000000I-15000J0D01*
G01*
X5635000Y-3000000D02*
G75*
G02*
X5665000Y-3000000I15000J0D01*
G01*
X5665000Y-3200000D02*
G75*
G02*
X5635000Y-3200000I-15000J0D01*
G01*
X5635000Y-3200000D02*
G75*
G02*
X5665000Y-3200000I15000J0D01*
G01*
X5665000Y-3400000D02*
G75*
G02*
X5635000Y-3400000I-15000J0D01*
G01*
X5635000Y-3400000D02*
G75*
G02*
X5665000Y-3400000I15000J0D01*
G01*
X5665000Y-3600000D02*
G75*
G02*
X5635000Y-3600000I-15000J0D01*
G01*
X5635000Y-3600000D02*
G75*
G02*
X5665000Y-3600000I15000J0D01*
G01*
X5665000Y-3800000D02*
G75*
G02*
X5635000Y-3800000I-15000J0D01*
G01*
X5635000Y-3800000D02*
G75*
G02*
X5665000Y-3800000I15000J0D01*
G01*
X5765000Y-1700000D02*
G75*
G02*
X5735000Y-1700000I-15000J0D01*
G01*
X5735000Y-1700000D02*
G75*
G02*
X5765000Y-1700000I15000J0D01*
G01*
X5765000Y-2300000D02*
G75*
G02*
X5735000Y-2300000I-15000J0D01*
G01*
X5735000Y-2300000D02*
G75*
G02*
X5765000Y-2300000I15000J0D01*
G01*
X5765000Y-4600000D02*
G75*
G02*
X5735000Y-4600000I-15000J0D01*
G01*
X5735000Y-4600000D02*
G75*
G02*
X5765000Y-4600000I15000J0D01*
G01*
X5765000Y-5100000D02*
G75*
G02*
X5735000Y-5100000I-15000J0D01*
G01*
X5735000Y-5100000D02*
G75*
G02*
X5765000Y-5100000I15000J0D01*
G01*
X5825000Y-2080000D02*
G75*
G02*
X5795000Y-2080000I-15000J0D01*
G01*
X5795000Y-2080000D02*
G75*
G02*
X5825000Y-2080000I15000J0D01*
G01*
X5955000Y-3530000D02*
G75*
G02*
X5925000Y-3530000I-15000J0D01*
G01*
X5925000Y-3530000D02*
G75*
G02*
X5955000Y-3530000I15000J0D01*
G01*
X5965000Y-3100000D02*
G75*
G02*
X5935000Y-3100000I-15000J0D01*
G01*
X5935000Y-3100000D02*
G75*
G02*
X5965000Y-3100000I15000J0D01*
G01*
X5965000Y-3700000D02*
G75*
G02*
X5935000Y-3700000I-15000J0D01*
G01*
X5935000Y-3700000D02*
G75*
G02*
X5965000Y-3700000I15000J0D01*
G01*
X6245000Y-3070000D02*
G75*
G02*
X6215000Y-3070000I-15000J0D01*
G01*
X6215000Y-3070000D02*
G75*
G02*
X6245000Y-3070000I15000J0D01*
G01*
X6265000Y-1700000D02*
G75*
G02*
X6235000Y-1700000I-15000J0D01*
G01*
X6235000Y-1700000D02*
G75*
G02*
X6265000Y-1700000I15000J0D01*
G01*
X6265000Y-2300000D02*
G75*
G02*
X6235000Y-2300000I-15000J0D01*
G01*
X6235000Y-2300000D02*
G75*
G02*
X6265000Y-2300000I15000J0D01*
G01*
X6265000Y-3500000D02*
G75*
G02*
X6235000Y-3500000I-15000J0D01*
G01*
X6235000Y-3500000D02*
G75*
G02*
X6265000Y-3500000I15000J0D01*
G01*
X6265000Y-3700000D02*
G75*
G02*
X6235000Y-3700000I-15000J0D01*
G01*
X6235000Y-3700000D02*
G75*
G02*
X6265000Y-3700000I15000J0D01*
G01*
X6265000Y-4600000D02*
G75*
G02*
X6235000Y-4600000I-15000J0D01*
G01*
X6235000Y-4600000D02*
G75*
G02*
X6265000Y-4600000I15000J0D01*
G01*
X6265000Y-5100000D02*
G75*
G02*
X6235000Y-5100000I-15000J0D01*
G01*
X6235000Y-5100000D02*
G75*
G02*
X6265000Y-5100000I15000J0D01*
G01*
X6315000Y-2000000D02*
G75*
G02*
X6285000Y-2000000I-15000J0D01*
G01*
X6285000Y-2000000D02*
G75*
G02*
X6315000Y-2000000I15000J0D01*
G01*
X6415000Y-2800000D02*
G75*
G02*
X6385000Y-2800000I-15000J0D01*
G01*
X6385000Y-2800000D02*
G75*
G02*
X6415000Y-2800000I15000J0D01*
G01*
X6515000Y-3970000D02*
G75*
G02*
X6485000Y-3970000I-15000J0D01*
G01*
X6485000Y-3970000D02*
G75*
G02*
X6515000Y-3970000I15000J0D01*
G01*
X6575000Y-3390000D02*
G75*
G02*
X6545000Y-3390000I-15000J0D01*
G01*
X6545000Y-3390000D02*
G75*
G02*
X6575000Y-3390000I15000J0D01*
G01*
X6665000Y-4220000D02*
G75*
G02*
X6635000Y-4220000I-15000J0D01*
G01*
X6635000Y-4220000D02*
G75*
G02*
X6665000Y-4220000I15000J0D01*
G01*
X6685000Y-2580000D02*
G75*
G02*
X6655000Y-2580000I-15000J0D01*
G01*
X6655000Y-2580000D02*
G75*
G02*
X6685000Y-2580000I15000J0D01*
G01*
X6765000Y-3130000D02*
G75*
G02*
X6735000Y-3130000I-15000J0D01*
G01*
X6735000Y-3130000D02*
G75*
G02*
X6765000Y-3130000I15000J0D01*
G01*
X6765000Y-3700000D02*
G75*
G02*
X6735000Y-3700000I-15000J0D01*
G01*
X6735000Y-3700000D02*
G75*
G02*
X6765000Y-3700000I15000J0D01*
G01*
X7015000Y-4000000D02*
G75*
G02*
X6985000Y-4000000I-15000J0D01*
G01*
X6985000Y-4000000D02*
G75*
G02*
X7015000Y-4000000I15000J0D01*
G01*
X7095000Y-2860000D02*
G75*
G02*
X7065000Y-2860000I-15000J0D01*
G01*
X7065000Y-2860000D02*
G75*
G02*
X7095000Y-2860000I15000J0D01*
G01*
X7265000Y-2600000D02*
G75*
G02*
X7235000Y-2600000I-15000J0D01*
G01*
X7235000Y-2600000D02*
G75*
G02*
X7265000Y-2600000I15000J0D01*
G01*
X7265000Y-3700000D02*
G75*
G02*
X7235000Y-3700000I-15000J0D01*
G01*
X7235000Y-3700000D02*
G75*
G02*
X7265000Y-3700000I15000J0D01*
G01*
X7265000Y-4200000D02*
G75*
G02*
X7235000Y-4200000I-15000J0D01*
G01*
X7235000Y-4200000D02*
G75*
G02*
X7265000Y-4200000I15000J0D01*
G01*
X7295000Y-3020000D02*
G75*
G02*
X7265000Y-3020000I-15000J0D01*
G01*
X7265000Y-3020000D02*
G75*
G02*
X7295000Y-3020000I15000J0D01*
G01*
X5059250Y-3959340D02*
X5059250Y-4050780D01*
X5013530Y-4005060D02*
X5104970Y-4005060D01*
X5065750Y-2749220D02*
X5065750Y-2840660D01*
X5020030Y-2794940D02*
X5111470Y-2794940D01*
X5309250Y-3959340D02*
X5309250Y-4050780D01*
X5263530Y-4005060D02*
X5354970Y-4005060D01*
X5315750Y-2749220D02*
X5315750Y-2840660D01*
X5270030Y-2794940D02*
X5361470Y-2794940D01*
X5509250Y-3959340D02*
X5509250Y-4050780D01*
X5463530Y-4005060D02*
X5554970Y-4005060D01*
X5515750Y-2749220D02*
X5515750Y-2840660D01*
X5470030Y-2794940D02*
X5561470Y-2794940D01*
X5759250Y-3959340D02*
X5759250Y-4050780D01*
X5713530Y-4005060D02*
X5804970Y-4005060D01*
X5765750Y-2749220D02*
X5765750Y-2840660D01*
X5720030Y-2794940D02*
X5811470Y-2794940D01*
D13*
X1694977Y-4078977D02*
X1694977Y-4004023D01*
X1620023Y-4004023D01*
X1620023Y-4078977D01*
X1694977Y-4078977D01*
X2219977Y-4078977D02*
X2219977Y-4004023D01*
X2145023Y-4004023D01*
X2145023Y-4078977D01*
X2219977Y-4078977D01*
D14*
X1952500Y-2957430D02*
X2017270Y-2892660D01*
X1952500Y-2827890D01*
X1887730Y-2892660D01*
X1952500Y-2957430D01*
X1952500Y-3465430D02*
X2017270Y-3400660D01*
X1952500Y-3335890D01*
X1887730Y-3400660D01*
X1952500Y-3465430D01*
X3042660Y-2012270D02*
X3107430Y-1947500D01*
X3042660Y-1882730D01*
X2977890Y-1947500D01*
X3042660Y-2012270D01*
X3292660Y-4912270D02*
X3357430Y-4847500D01*
X3292660Y-4782730D01*
X3227890Y-4847500D01*
X3292660Y-4912270D01*
X3550660Y-2012270D02*
X3615430Y-1947500D01*
X3550660Y-1882730D01*
X3485890Y-1947500D01*
X3550660Y-2012270D01*
X3800660Y-4912270D02*
X3865430Y-4847500D01*
X3800660Y-4782730D01*
X3735890Y-4847500D01*
X3800660Y-4912270D01*
D15*
X4636680Y-4160490D02*
X4867820Y-4391630D01*
X4867820Y-4160490D02*
X4636680Y-4391630D01*
X4867820Y-4276060D02*
G75*
G02*
X4636680Y-4276060I-115570J0D01*
G01*
X4636680Y-4276060D02*
G75*
G02*
X4867820Y-4276060I115570J0D01*
G01*
X4643180Y-2408370D02*
X4874320Y-2639510D01*
X4874320Y-2408370D02*
X4643180Y-2639510D01*
X4874320Y-2523940D02*
G75*
G02*
X4643180Y-2523940I-115570J0D01*
G01*
X4643180Y-2523940D02*
G75*
G02*
X4874320Y-2523940I115570J0D01*
G01*
X5950680Y-4160490D02*
X6181820Y-4391630D01*
X6181820Y-4160490D02*
X5950680Y-4391630D01*
X6181820Y-4276060D02*
G75*
G02*
X5950680Y-4276060I-115570J0D01*
G01*
X5950680Y-4276060D02*
G75*
G02*
X6181820Y-4276060I115570J0D01*
G01*
X5957180Y-2408370D02*
X6188320Y-2639510D01*
X6188320Y-2408370D02*
X5957180Y-2639510D01*
X6188320Y-2523940D02*
G75*
G02*
X5957180Y-2523940I-115570J0D01*
G01*
X5957180Y-2523940D02*
G75*
G02*
X6188320Y-2523940I115570J0D01*
G01*
D11*
X1650777Y-5721484D02*
X1650777Y-5521484D01*
X1650777Y-5521484D02*
X1698396Y-5521484D01*
X1698396Y-5521484D02*
X1726967Y-5531008D01*
X1726967Y-5531008D02*
X1746015Y-5550055D01*
X1746015Y-5550055D02*
X1755539Y-5569103D01*
X1755539Y-5569103D02*
X1765062Y-5607198D01*
X1765062Y-5607198D02*
X1765062Y-5635769D01*
X1765062Y-5635769D02*
X1755539Y-5673865D01*
X1755539Y-5673865D02*
X1746015Y-5692912D01*
X1746015Y-5692912D02*
X1726967Y-5711960D01*
X1726967Y-5711960D02*
X1698396Y-5721484D01*
X1698396Y-5721484D02*
X1650777Y-5721484D01*
X1850777Y-5721484D02*
X1850777Y-5588150D01*
X1850777Y-5626246D02*
X1860301Y-5607198D01*
X1860301Y-5607198D02*
X1869824Y-5597674D01*
X1869824Y-5597674D02*
X1888872Y-5588150D01*
X1888872Y-5588150D02*
X1907920Y-5588150D01*
X1974586Y-5721484D02*
X1974586Y-5588150D01*
X1974586Y-5521484D02*
X1965062Y-5531008D01*
X1965062Y-5531008D02*
X1974586Y-5540531D01*
X1974586Y-5540531D02*
X1984110Y-5531008D01*
X1984110Y-5531008D02*
X1974586Y-5521484D01*
X1974586Y-5521484D02*
X1974586Y-5540531D01*
X2098396Y-5721484D02*
X2079348Y-5711960D01*
X2079348Y-5711960D02*
X2069824Y-5692912D01*
X2069824Y-5692912D02*
X2069824Y-5521484D01*
X2203158Y-5721484D02*
X2184110Y-5711960D01*
X2184110Y-5711960D02*
X2174586Y-5692912D01*
X2174586Y-5692912D02*
X2174586Y-5521484D01*
X2431729Y-5721484D02*
X2431729Y-5521484D01*
X2431729Y-5521484D02*
X2498396Y-5664341D01*
X2498396Y-5664341D02*
X2565063Y-5521484D01*
X2565063Y-5521484D02*
X2565063Y-5721484D01*
X2746015Y-5721484D02*
X2746015Y-5616722D01*
X2746015Y-5616722D02*
X2736491Y-5597674D01*
X2736491Y-5597674D02*
X2717444Y-5588150D01*
X2717444Y-5588150D02*
X2679348Y-5588150D01*
X2679348Y-5588150D02*
X2660301Y-5597674D01*
X2746015Y-5711960D02*
X2726967Y-5721484D01*
X2726967Y-5721484D02*
X2679348Y-5721484D01*
X2679348Y-5721484D02*
X2660301Y-5711960D01*
X2660301Y-5711960D02*
X2650777Y-5692912D01*
X2650777Y-5692912D02*
X2650777Y-5673865D01*
X2650777Y-5673865D02*
X2660301Y-5654817D01*
X2660301Y-5654817D02*
X2679348Y-5645293D01*
X2679348Y-5645293D02*
X2726967Y-5645293D01*
X2726967Y-5645293D02*
X2746015Y-5635769D01*
X2841253Y-5588150D02*
X2841253Y-5788150D01*
X2841253Y-5597674D02*
X2860301Y-5588150D01*
X2860301Y-5588150D02*
X2898396Y-5588150D01*
X2898396Y-5588150D02*
X2917443Y-5597674D01*
X2917443Y-5597674D02*
X2926967Y-5607198D01*
X2926967Y-5607198D02*
X2936491Y-5626246D01*
X2936491Y-5626246D02*
X2936491Y-5683388D01*
X2936491Y-5683388D02*
X2926967Y-5702436D01*
X2926967Y-5702436D02*
X2917443Y-5711960D01*
X2917443Y-5711960D02*
X2898396Y-5721484D01*
X2898396Y-5721484D02*
X2860301Y-5721484D01*
X2860301Y-5721484D02*
X2841253Y-5711960D01*
X3022205Y-5702436D02*
X3031729Y-5711960D01*
X3031729Y-5711960D02*
X3022205Y-5721484D01*
X3022205Y-5721484D02*
X3012682Y-5711960D01*
X3012682Y-5711960D02*
X3022205Y-5702436D01*
X3022205Y-5702436D02*
X3022205Y-5721484D01*
X3022205Y-5597674D02*
X3031729Y-5607198D01*
X3031729Y-5607198D02*
X3022205Y-5616722D01*
X3022205Y-5616722D02*
X3012682Y-5607198D01*
X3012682Y-5607198D02*
X3022205Y-5597674D01*
X3022205Y-5597674D02*
X3022205Y-5616722D01*
D12*
X1369680Y-6039840D02*
X1390000Y-6060160D01*
X1390000Y-6039840D02*
X1369680Y-6060160D01*
D11*
X1688872Y-5941484D02*
X1707920Y-5941484D01*
X1707920Y-5941484D02*
X1726967Y-5951008D01*
X1726967Y-5951008D02*
X1736491Y-5960531D01*
X1736491Y-5960531D02*
X1746015Y-5979579D01*
X1746015Y-5979579D02*
X1755539Y-6017674D01*
X1755539Y-6017674D02*
X1755539Y-6065293D01*
X1755539Y-6065293D02*
X1746015Y-6103388D01*
X1746015Y-6103388D02*
X1736491Y-6122436D01*
X1736491Y-6122436D02*
X1726967Y-6131960D01*
X1726967Y-6131960D02*
X1707920Y-6141484D01*
X1707920Y-6141484D02*
X1688872Y-6141484D01*
X1688872Y-6141484D02*
X1669824Y-6131960D01*
X1669824Y-6131960D02*
X1660301Y-6122436D01*
X1660301Y-6122436D02*
X1650777Y-6103388D01*
X1650777Y-6103388D02*
X1641253Y-6065293D01*
X1641253Y-6065293D02*
X1641253Y-6017674D01*
X1641253Y-6017674D02*
X1650777Y-5979579D01*
X1650777Y-5979579D02*
X1660301Y-5960531D01*
X1660301Y-5960531D02*
X1669824Y-5951008D01*
X1669824Y-5951008D02*
X1688872Y-5941484D01*
X1841253Y-6122436D02*
X1850777Y-6131960D01*
X1850777Y-6131960D02*
X1841253Y-6141484D01*
X1841253Y-6141484D02*
X1831729Y-6131960D01*
X1831729Y-6131960D02*
X1841253Y-6122436D01*
X1841253Y-6122436D02*
X1841253Y-6141484D01*
X1926967Y-5960531D02*
X1936491Y-5951008D01*
X1936491Y-5951008D02*
X1955539Y-5941484D01*
X1955539Y-5941484D02*
X2003158Y-5941484D01*
X2003158Y-5941484D02*
X2022205Y-5951008D01*
X2022205Y-5951008D02*
X2031729Y-5960531D01*
X2031729Y-5960531D02*
X2041253Y-5979579D01*
X2041253Y-5979579D02*
X2041253Y-5998627D01*
X2041253Y-5998627D02*
X2031729Y-6027198D01*
X2031729Y-6027198D02*
X1917443Y-6141484D01*
X1917443Y-6141484D02*
X2041253Y-6141484D01*
X2165063Y-5941484D02*
X2184110Y-5941484D01*
X2184110Y-5941484D02*
X2203158Y-5951008D01*
X2203158Y-5951008D02*
X2212682Y-5960531D01*
X2212682Y-5960531D02*
X2222205Y-5979579D01*
X2222205Y-5979579D02*
X2231729Y-6017674D01*
X2231729Y-6017674D02*
X2231729Y-6065293D01*
X2231729Y-6065293D02*
X2222205Y-6103388D01*
X2222205Y-6103388D02*
X2212682Y-6122436D01*
X2212682Y-6122436D02*
X2203158Y-6131960D01*
X2203158Y-6131960D02*
X2184110Y-6141484D01*
X2184110Y-6141484D02*
X2165063Y-6141484D01*
X2165063Y-6141484D02*
X2146015Y-6131960D01*
X2146015Y-6131960D02*
X2136491Y-6122436D01*
X2136491Y-6122436D02*
X2126967Y-6103388D01*
X2126967Y-6103388D02*
X2117444Y-6065293D01*
X2117444Y-6065293D02*
X2117444Y-6017674D01*
X2117444Y-6017674D02*
X2126967Y-5979579D01*
X2126967Y-5979579D02*
X2136491Y-5960531D01*
X2136491Y-5960531D02*
X2146015Y-5951008D01*
X2146015Y-5951008D02*
X2165063Y-5941484D01*
X2298396Y-5941484D02*
X2422205Y-5941484D01*
X2422205Y-5941484D02*
X2355539Y-6017674D01*
X2355539Y-6017674D02*
X2384110Y-6017674D01*
X2384110Y-6017674D02*
X2403158Y-6027198D01*
X2403158Y-6027198D02*
X2412682Y-6036722D01*
X2412682Y-6036722D02*
X2422205Y-6055769D01*
X2422205Y-6055769D02*
X2422205Y-6103388D01*
X2422205Y-6103388D02*
X2412682Y-6122436D01*
X2412682Y-6122436D02*
X2403158Y-6131960D01*
X2403158Y-6131960D02*
X2384110Y-6141484D01*
X2384110Y-6141484D02*
X2326967Y-6141484D01*
X2326967Y-6141484D02*
X2307920Y-6131960D01*
X2307920Y-6131960D02*
X2298396Y-6122436D01*
X2507920Y-6141484D02*
X2507920Y-6008150D01*
X2507920Y-6027198D02*
X2517444Y-6017674D01*
X2517444Y-6017674D02*
X2536491Y-6008150D01*
X2536491Y-6008150D02*
X2565063Y-6008150D01*
X2565063Y-6008150D02*
X2584110Y-6017674D01*
X2584110Y-6017674D02*
X2593634Y-6036722D01*
X2593634Y-6036722D02*
X2593634Y-6141484D01*
X2593634Y-6036722D02*
X2603158Y-6017674D01*
X2603158Y-6017674D02*
X2622205Y-6008150D01*
X2622205Y-6008150D02*
X2650777Y-6008150D01*
X2650777Y-6008150D02*
X2669825Y-6017674D01*
X2669825Y-6017674D02*
X2679348Y-6036722D01*
X2679348Y-6036722D02*
X2679348Y-6141484D01*
X2774586Y-6141484D02*
X2774586Y-6008150D01*
X2774586Y-6027198D02*
X2784110Y-6017674D01*
X2784110Y-6017674D02*
X2803158Y-6008150D01*
X2803158Y-6008150D02*
X2831729Y-6008150D01*
X2831729Y-6008150D02*
X2850777Y-6017674D01*
X2850777Y-6017674D02*
X2860301Y-6036722D01*
X2860301Y-6036722D02*
X2860301Y-6141484D01*
X2860301Y-6036722D02*
X2869824Y-6017674D01*
X2869824Y-6017674D02*
X2888872Y-6008150D01*
X2888872Y-6008150D02*
X2917443Y-6008150D01*
X2917443Y-6008150D02*
X2936491Y-6017674D01*
X2936491Y-6017674D02*
X2946015Y-6036722D01*
X2946015Y-6036722D02*
X2946015Y-6141484D01*
X3336491Y-5931960D02*
X3165063Y-6189103D01*
X3593634Y-5941484D02*
X3612682Y-5941484D01*
X3612682Y-5941484D02*
X3631729Y-5951008D01*
X3631729Y-5951008D02*
X3641253Y-5960531D01*
X3641253Y-5960531D02*
X3650777Y-5979579D01*
X3650777Y-5979579D02*
X3660301Y-6017674D01*
X3660301Y-6017674D02*
X3660301Y-6065293D01*
X3660301Y-6065293D02*
X3650777Y-6103388D01*
X3650777Y-6103388D02*
X3641253Y-6122436D01*
X3641253Y-6122436D02*
X3631729Y-6131960D01*
X3631729Y-6131960D02*
X3612682Y-6141484D01*
X3612682Y-6141484D02*
X3593634Y-6141484D01*
X3593634Y-6141484D02*
X3574586Y-6131960D01*
X3574586Y-6131960D02*
X3565063Y-6122436D01*
X3565063Y-6122436D02*
X3555539Y-6103388D01*
X3555539Y-6103388D02*
X3546015Y-6065293D01*
X3546015Y-6065293D02*
X3546015Y-6017674D01*
X3546015Y-6017674D02*
X3555539Y-5979579D01*
X3555539Y-5979579D02*
X3565063Y-5960531D01*
X3565063Y-5960531D02*
X3574586Y-5951008D01*
X3574586Y-5951008D02*
X3593634Y-5941484D01*
X3746015Y-6122436D02*
X3755539Y-6131960D01*
X3755539Y-6131960D02*
X3746015Y-6141484D01*
X3746015Y-6141484D02*
X3736491Y-6131960D01*
X3736491Y-6131960D02*
X3746015Y-6122436D01*
X3746015Y-6122436D02*
X3746015Y-6141484D01*
X3879348Y-5941484D02*
X3898396Y-5941484D01*
X3898396Y-5941484D02*
X3917444Y-5951008D01*
X3917444Y-5951008D02*
X3926967Y-5960531D01*
X3926967Y-5960531D02*
X3936491Y-5979579D01*
X3936491Y-5979579D02*
X3946015Y-6017674D01*
X3946015Y-6017674D02*
X3946015Y-6065293D01*
X3946015Y-6065293D02*
X3936491Y-6103388D01*
X3936491Y-6103388D02*
X3926967Y-6122436D01*
X3926967Y-6122436D02*
X3917444Y-6131960D01*
X3917444Y-6131960D02*
X3898396Y-6141484D01*
X3898396Y-6141484D02*
X3879348Y-6141484D01*
X3879348Y-6141484D02*
X3860301Y-6131960D01*
X3860301Y-6131960D02*
X3850777Y-6122436D01*
X3850777Y-6122436D02*
X3841253Y-6103388D01*
X3841253Y-6103388D02*
X3831729Y-6065293D01*
X3831729Y-6065293D02*
X3831729Y-6017674D01*
X3831729Y-6017674D02*
X3841253Y-5979579D01*
X3841253Y-5979579D02*
X3850777Y-5960531D01*
X3850777Y-5960531D02*
X3860301Y-5951008D01*
X3860301Y-5951008D02*
X3879348Y-5941484D01*
X4069825Y-5941484D02*
X4088872Y-5941484D01*
X4088872Y-5941484D02*
X4107920Y-5951008D01*
X4107920Y-5951008D02*
X4117444Y-5960531D01*
X4117444Y-5960531D02*
X4126967Y-5979579D01*
X4126967Y-5979579D02*
X4136491Y-6017674D01*
X4136491Y-6017674D02*
X4136491Y-6065293D01*
X4136491Y-6065293D02*
X4126967Y-6103388D01*
X4126967Y-6103388D02*
X4117444Y-6122436D01*
X4117444Y-6122436D02*
X4107920Y-6131960D01*
X4107920Y-6131960D02*
X4088872Y-6141484D01*
X4088872Y-6141484D02*
X4069825Y-6141484D01*
X4069825Y-6141484D02*
X4050777Y-6131960D01*
X4050777Y-6131960D02*
X4041253Y-6122436D01*
X4041253Y-6122436D02*
X4031729Y-6103388D01*
X4031729Y-6103388D02*
X4022206Y-6065293D01*
X4022206Y-6065293D02*
X4022206Y-6017674D01*
X4022206Y-6017674D02*
X4031729Y-5979579D01*
X4031729Y-5979579D02*
X4041253Y-5960531D01*
X4041253Y-5960531D02*
X4050777Y-5951008D01*
X4050777Y-5951008D02*
X4069825Y-5941484D01*
X4250777Y-6027198D02*
X4231729Y-6017674D01*
X4231729Y-6017674D02*
X4222206Y-6008150D01*
X4222206Y-6008150D02*
X4212682Y-5989103D01*
X4212682Y-5989103D02*
X4212682Y-5979579D01*
X4212682Y-5979579D02*
X4222206Y-5960531D01*
X4222206Y-5960531D02*
X4231729Y-5951008D01*
X4231729Y-5951008D02*
X4250777Y-5941484D01*
X4250777Y-5941484D02*
X4288872Y-5941484D01*
X4288872Y-5941484D02*
X4307920Y-5951008D01*
X4307920Y-5951008D02*
X4317444Y-5960531D01*
X4317444Y-5960531D02*
X4326968Y-5979579D01*
X4326968Y-5979579D02*
X4326968Y-5989103D01*
X4326968Y-5989103D02*
X4317444Y-6008150D01*
X4317444Y-6008150D02*
X4307920Y-6017674D01*
X4307920Y-6017674D02*
X4288872Y-6027198D01*
X4288872Y-6027198D02*
X4250777Y-6027198D01*
X4250777Y-6027198D02*
X4231729Y-6036722D01*
X4231729Y-6036722D02*
X4222206Y-6046246D01*
X4222206Y-6046246D02*
X4212682Y-6065293D01*
X4212682Y-6065293D02*
X4212682Y-6103388D01*
X4212682Y-6103388D02*
X4222206Y-6122436D01*
X4222206Y-6122436D02*
X4231729Y-6131960D01*
X4231729Y-6131960D02*
X4250777Y-6141484D01*
X4250777Y-6141484D02*
X4288872Y-6141484D01*
X4288872Y-6141484D02*
X4307920Y-6131960D01*
X4307920Y-6131960D02*
X4317444Y-6122436D01*
X4317444Y-6122436D02*
X4326968Y-6103388D01*
X4326968Y-6103388D02*
X4326968Y-6065293D01*
X4326968Y-6065293D02*
X4317444Y-6046246D01*
X4317444Y-6046246D02*
X4307920Y-6036722D01*
X4307920Y-6036722D02*
X4288872Y-6027198D01*
X4450777Y-5941484D02*
X4469825Y-5941484D01*
X4469825Y-5941484D02*
X4488872Y-5951008D01*
X4488872Y-5951008D02*
X4498396Y-5960531D01*
X4498396Y-5960531D02*
X4507920Y-5979579D01*
X4507920Y-5979579D02*
X4517444Y-6017674D01*
X4517444Y-6017674D02*
X4517444Y-6065293D01*
X4517444Y-6065293D02*
X4507920Y-6103388D01*
X4507920Y-6103388D02*
X4498396Y-6122436D01*
X4498396Y-6122436D02*
X4488872Y-6131960D01*
X4488872Y-6131960D02*
X4469825Y-6141484D01*
X4469825Y-6141484D02*
X4450777Y-6141484D01*
X4450777Y-6141484D02*
X4431729Y-6131960D01*
X4431729Y-6131960D02*
X4422206Y-6122436D01*
X4422206Y-6122436D02*
X4412682Y-6103388D01*
X4412682Y-6103388D02*
X4403158Y-6065293D01*
X4403158Y-6065293D02*
X4403158Y-6017674D01*
X4403158Y-6017674D02*
X4412682Y-5979579D01*
X4412682Y-5979579D02*
X4422206Y-5960531D01*
X4422206Y-5960531D02*
X4431729Y-5951008D01*
X4431729Y-5951008D02*
X4450777Y-5941484D01*
X4593634Y-5941484D02*
X4593634Y-5979579D01*
X4669825Y-5941484D02*
X4669825Y-5979579D01*
X4965063Y-6217674D02*
X4955539Y-6208150D01*
X4955539Y-6208150D02*
X4936491Y-6179579D01*
X4936491Y-6179579D02*
X4926968Y-6160531D01*
X4926968Y-6160531D02*
X4917444Y-6131960D01*
X4917444Y-6131960D02*
X4907920Y-6084341D01*
X4907920Y-6084341D02*
X4907920Y-6046246D01*
X4907920Y-6046246D02*
X4917444Y-5998627D01*
X4917444Y-5998627D02*
X4926968Y-5970055D01*
X4926968Y-5970055D02*
X4936491Y-5951008D01*
X4936491Y-5951008D02*
X4955539Y-5922436D01*
X4955539Y-5922436D02*
X4965063Y-5912912D01*
X5136491Y-5941484D02*
X5041253Y-5941484D01*
X5041253Y-5941484D02*
X5031730Y-6036722D01*
X5031730Y-6036722D02*
X5041253Y-6027198D01*
X5041253Y-6027198D02*
X5060301Y-6017674D01*
X5060301Y-6017674D02*
X5107920Y-6017674D01*
X5107920Y-6017674D02*
X5126968Y-6027198D01*
X5126968Y-6027198D02*
X5136491Y-6036722D01*
X5136491Y-6036722D02*
X5146015Y-6055769D01*
X5146015Y-6055769D02*
X5146015Y-6103388D01*
X5146015Y-6103388D02*
X5136491Y-6122436D01*
X5136491Y-6122436D02*
X5126968Y-6131960D01*
X5126968Y-6131960D02*
X5107920Y-6141484D01*
X5107920Y-6141484D02*
X5060301Y-6141484D01*
X5060301Y-6141484D02*
X5041253Y-6131960D01*
X5041253Y-6131960D02*
X5031730Y-6122436D01*
X5384111Y-6141484D02*
X5384111Y-5941484D01*
X5469825Y-6141484D02*
X5469825Y-6036722D01*
X5469825Y-6036722D02*
X5460301Y-6017674D01*
X5460301Y-6017674D02*
X5441253Y-6008150D01*
X5441253Y-6008150D02*
X5412682Y-6008150D01*
X5412682Y-6008150D02*
X5393634Y-6017674D01*
X5393634Y-6017674D02*
X5384111Y-6027198D01*
X5593634Y-6141484D02*
X5574587Y-6131960D01*
X5574587Y-6131960D02*
X5565063Y-6122436D01*
X5565063Y-6122436D02*
X5555539Y-6103388D01*
X5555539Y-6103388D02*
X5555539Y-6046246D01*
X5555539Y-6046246D02*
X5565063Y-6027198D01*
X5565063Y-6027198D02*
X5574587Y-6017674D01*
X5574587Y-6017674D02*
X5593634Y-6008150D01*
X5593634Y-6008150D02*
X5622206Y-6008150D01*
X5622206Y-6008150D02*
X5641253Y-6017674D01*
X5641253Y-6017674D02*
X5650777Y-6027198D01*
X5650777Y-6027198D02*
X5660301Y-6046246D01*
X5660301Y-6046246D02*
X5660301Y-6103388D01*
X5660301Y-6103388D02*
X5650777Y-6122436D01*
X5650777Y-6122436D02*
X5641253Y-6131960D01*
X5641253Y-6131960D02*
X5622206Y-6141484D01*
X5622206Y-6141484D02*
X5593634Y-6141484D01*
X5774587Y-6141484D02*
X5755539Y-6131960D01*
X5755539Y-6131960D02*
X5746015Y-6112912D01*
X5746015Y-6112912D02*
X5746015Y-5941484D01*
X5926968Y-6131960D02*
X5907920Y-6141484D01*
X5907920Y-6141484D02*
X5869825Y-6141484D01*
X5869825Y-6141484D02*
X5850777Y-6131960D01*
X5850777Y-6131960D02*
X5841253Y-6112912D01*
X5841253Y-6112912D02*
X5841253Y-6036722D01*
X5841253Y-6036722D02*
X5850777Y-6017674D01*
X5850777Y-6017674D02*
X5869825Y-6008150D01*
X5869825Y-6008150D02*
X5907920Y-6008150D01*
X5907920Y-6008150D02*
X5926968Y-6017674D01*
X5926968Y-6017674D02*
X5936491Y-6036722D01*
X5936491Y-6036722D02*
X5936491Y-6055769D01*
X5936491Y-6055769D02*
X5841253Y-6074817D01*
X6012682Y-6131960D02*
X6031730Y-6141484D01*
X6031730Y-6141484D02*
X6069825Y-6141484D01*
X6069825Y-6141484D02*
X6088872Y-6131960D01*
X6088872Y-6131960D02*
X6098396Y-6112912D01*
X6098396Y-6112912D02*
X6098396Y-6103388D01*
X6098396Y-6103388D02*
X6088872Y-6084341D01*
X6088872Y-6084341D02*
X6069825Y-6074817D01*
X6069825Y-6074817D02*
X6041253Y-6074817D01*
X6041253Y-6074817D02*
X6022206Y-6065293D01*
X6022206Y-6065293D02*
X6012682Y-6046246D01*
X6012682Y-6046246D02*
X6012682Y-6036722D01*
X6012682Y-6036722D02*
X6022206Y-6017674D01*
X6022206Y-6017674D02*
X6041253Y-6008150D01*
X6041253Y-6008150D02*
X6069825Y-6008150D01*
X6069825Y-6008150D02*
X6088872Y-6017674D01*
X6165063Y-6217674D02*
X6174587Y-6208150D01*
X6174587Y-6208150D02*
X6193634Y-6179579D01*
X6193634Y-6179579D02*
X6203158Y-6160531D01*
X6203158Y-6160531D02*
X6212682Y-6131960D01*
X6212682Y-6131960D02*
X6222206Y-6084341D01*
X6222206Y-6084341D02*
X6222206Y-6046246D01*
X6222206Y-6046246D02*
X6212682Y-5998627D01*
X6212682Y-5998627D02*
X6203158Y-5970055D01*
X6203158Y-5970055D02*
X6193634Y-5951008D01*
X6193634Y-5951008D02*
X6174587Y-5922436D01*
X6174587Y-5922436D02*
X6165063Y-5912912D01*
D12*
X1390000Y-6314000D02*
G75*
G02*
X1360000Y-6314000I-15000J0D01*
G01*
X1360000Y-6314000D02*
G75*
G02*
X1390000Y-6314000I15000J0D01*
G01*
D11*
X1688872Y-6205484D02*
X1707920Y-6205484D01*
X1707920Y-6205484D02*
X1726967Y-6215008D01*
X1726967Y-6215008D02*
X1736491Y-6224531D01*
X1736491Y-6224531D02*
X1746015Y-6243579D01*
X1746015Y-6243579D02*
X1755539Y-6281674D01*
X1755539Y-6281674D02*
X1755539Y-6329293D01*
X1755539Y-6329293D02*
X1746015Y-6367388D01*
X1746015Y-6367388D02*
X1736491Y-6386436D01*
X1736491Y-6386436D02*
X1726967Y-6395960D01*
X1726967Y-6395960D02*
X1707920Y-6405484D01*
X1707920Y-6405484D02*
X1688872Y-6405484D01*
X1688872Y-6405484D02*
X1669824Y-6395960D01*
X1669824Y-6395960D02*
X1660301Y-6386436D01*
X1660301Y-6386436D02*
X1650777Y-6367388D01*
X1650777Y-6367388D02*
X1641253Y-6329293D01*
X1641253Y-6329293D02*
X1641253Y-6281674D01*
X1641253Y-6281674D02*
X1650777Y-6243579D01*
X1650777Y-6243579D02*
X1660301Y-6224531D01*
X1660301Y-6224531D02*
X1669824Y-6215008D01*
X1669824Y-6215008D02*
X1688872Y-6205484D01*
X1841253Y-6386436D02*
X1850777Y-6395960D01*
X1850777Y-6395960D02*
X1841253Y-6405484D01*
X1841253Y-6405484D02*
X1831729Y-6395960D01*
X1831729Y-6395960D02*
X1841253Y-6386436D01*
X1841253Y-6386436D02*
X1841253Y-6405484D01*
X1917443Y-6205484D02*
X2041253Y-6205484D01*
X2041253Y-6205484D02*
X1974586Y-6281674D01*
X1974586Y-6281674D02*
X2003158Y-6281674D01*
X2003158Y-6281674D02*
X2022205Y-6291198D01*
X2022205Y-6291198D02*
X2031729Y-6300722D01*
X2031729Y-6300722D02*
X2041253Y-6319769D01*
X2041253Y-6319769D02*
X2041253Y-6367388D01*
X2041253Y-6367388D02*
X2031729Y-6386436D01*
X2031729Y-6386436D02*
X2022205Y-6395960D01*
X2022205Y-6395960D02*
X2003158Y-6405484D01*
X2003158Y-6405484D02*
X1946015Y-6405484D01*
X1946015Y-6405484D02*
X1926967Y-6395960D01*
X1926967Y-6395960D02*
X1917443Y-6386436D01*
X2165063Y-6205484D02*
X2184110Y-6205484D01*
X2184110Y-6205484D02*
X2203158Y-6215008D01*
X2203158Y-6215008D02*
X2212682Y-6224531D01*
X2212682Y-6224531D02*
X2222205Y-6243579D01*
X2222205Y-6243579D02*
X2231729Y-6281674D01*
X2231729Y-6281674D02*
X2231729Y-6329293D01*
X2231729Y-6329293D02*
X2222205Y-6367388D01*
X2222205Y-6367388D02*
X2212682Y-6386436D01*
X2212682Y-6386436D02*
X2203158Y-6395960D01*
X2203158Y-6395960D02*
X2184110Y-6405484D01*
X2184110Y-6405484D02*
X2165063Y-6405484D01*
X2165063Y-6405484D02*
X2146015Y-6395960D01*
X2146015Y-6395960D02*
X2136491Y-6386436D01*
X2136491Y-6386436D02*
X2126967Y-6367388D01*
X2126967Y-6367388D02*
X2117444Y-6329293D01*
X2117444Y-6329293D02*
X2117444Y-6281674D01*
X2117444Y-6281674D02*
X2126967Y-6243579D01*
X2126967Y-6243579D02*
X2136491Y-6224531D01*
X2136491Y-6224531D02*
X2146015Y-6215008D01*
X2146015Y-6215008D02*
X2165063Y-6205484D01*
X2355539Y-6205484D02*
X2374586Y-6205484D01*
X2374586Y-6205484D02*
X2393634Y-6215008D01*
X2393634Y-6215008D02*
X2403158Y-6224531D01*
X2403158Y-6224531D02*
X2412682Y-6243579D01*
X2412682Y-6243579D02*
X2422205Y-6281674D01*
X2422205Y-6281674D02*
X2422205Y-6329293D01*
X2422205Y-6329293D02*
X2412682Y-6367388D01*
X2412682Y-6367388D02*
X2403158Y-6386436D01*
X2403158Y-6386436D02*
X2393634Y-6395960D01*
X2393634Y-6395960D02*
X2374586Y-6405484D01*
X2374586Y-6405484D02*
X2355539Y-6405484D01*
X2355539Y-6405484D02*
X2336491Y-6395960D01*
X2336491Y-6395960D02*
X2326967Y-6386436D01*
X2326967Y-6386436D02*
X2317444Y-6367388D01*
X2317444Y-6367388D02*
X2307920Y-6329293D01*
X2307920Y-6329293D02*
X2307920Y-6281674D01*
X2307920Y-6281674D02*
X2317444Y-6243579D01*
X2317444Y-6243579D02*
X2326967Y-6224531D01*
X2326967Y-6224531D02*
X2336491Y-6215008D01*
X2336491Y-6215008D02*
X2355539Y-6205484D01*
X2507920Y-6405484D02*
X2507920Y-6272150D01*
X2507920Y-6291198D02*
X2517444Y-6281674D01*
X2517444Y-6281674D02*
X2536491Y-6272150D01*
X2536491Y-6272150D02*
X2565063Y-6272150D01*
X2565063Y-6272150D02*
X2584110Y-6281674D01*
X2584110Y-6281674D02*
X2593634Y-6300722D01*
X2593634Y-6300722D02*
X2593634Y-6405484D01*
X2593634Y-6300722D02*
X2603158Y-6281674D01*
X2603158Y-6281674D02*
X2622205Y-6272150D01*
X2622205Y-6272150D02*
X2650777Y-6272150D01*
X2650777Y-6272150D02*
X2669825Y-6281674D01*
X2669825Y-6281674D02*
X2679348Y-6300722D01*
X2679348Y-6300722D02*
X2679348Y-6405484D01*
X2774586Y-6405484D02*
X2774586Y-6272150D01*
X2774586Y-6291198D02*
X2784110Y-6281674D01*
X2784110Y-6281674D02*
X2803158Y-6272150D01*
X2803158Y-6272150D02*
X2831729Y-6272150D01*
X2831729Y-6272150D02*
X2850777Y-6281674D01*
X2850777Y-6281674D02*
X2860301Y-6300722D01*
X2860301Y-6300722D02*
X2860301Y-6405484D01*
X2860301Y-6300722D02*
X2869824Y-6281674D01*
X2869824Y-6281674D02*
X2888872Y-6272150D01*
X2888872Y-6272150D02*
X2917443Y-6272150D01*
X2917443Y-6272150D02*
X2936491Y-6281674D01*
X2936491Y-6281674D02*
X2946015Y-6300722D01*
X2946015Y-6300722D02*
X2946015Y-6405484D01*
X3336491Y-6195960D02*
X3165063Y-6453103D01*
X3593634Y-6205484D02*
X3612682Y-6205484D01*
X3612682Y-6205484D02*
X3631729Y-6215008D01*
X3631729Y-6215008D02*
X3641253Y-6224531D01*
X3641253Y-6224531D02*
X3650777Y-6243579D01*
X3650777Y-6243579D02*
X3660301Y-6281674D01*
X3660301Y-6281674D02*
X3660301Y-6329293D01*
X3660301Y-6329293D02*
X3650777Y-6367388D01*
X3650777Y-6367388D02*
X3641253Y-6386436D01*
X3641253Y-6386436D02*
X3631729Y-6395960D01*
X3631729Y-6395960D02*
X3612682Y-6405484D01*
X3612682Y-6405484D02*
X3593634Y-6405484D01*
X3593634Y-6405484D02*
X3574586Y-6395960D01*
X3574586Y-6395960D02*
X3565063Y-6386436D01*
X3565063Y-6386436D02*
X3555539Y-6367388D01*
X3555539Y-6367388D02*
X3546015Y-6329293D01*
X3546015Y-6329293D02*
X3546015Y-6281674D01*
X3546015Y-6281674D02*
X3555539Y-6243579D01*
X3555539Y-6243579D02*
X3565063Y-6224531D01*
X3565063Y-6224531D02*
X3574586Y-6215008D01*
X3574586Y-6215008D02*
X3593634Y-6205484D01*
X3746015Y-6386436D02*
X3755539Y-6395960D01*
X3755539Y-6395960D02*
X3746015Y-6405484D01*
X3746015Y-6405484D02*
X3736491Y-6395960D01*
X3736491Y-6395960D02*
X3746015Y-6386436D01*
X3746015Y-6386436D02*
X3746015Y-6405484D01*
X3879348Y-6205484D02*
X3898396Y-6205484D01*
X3898396Y-6205484D02*
X3917444Y-6215008D01*
X3917444Y-6215008D02*
X3926967Y-6224531D01*
X3926967Y-6224531D02*
X3936491Y-6243579D01*
X3936491Y-6243579D02*
X3946015Y-6281674D01*
X3946015Y-6281674D02*
X3946015Y-6329293D01*
X3946015Y-6329293D02*
X3936491Y-6367388D01*
X3936491Y-6367388D02*
X3926967Y-6386436D01*
X3926967Y-6386436D02*
X3917444Y-6395960D01*
X3917444Y-6395960D02*
X3898396Y-6405484D01*
X3898396Y-6405484D02*
X3879348Y-6405484D01*
X3879348Y-6405484D02*
X3860301Y-6395960D01*
X3860301Y-6395960D02*
X3850777Y-6386436D01*
X3850777Y-6386436D02*
X3841253Y-6367388D01*
X3841253Y-6367388D02*
X3831729Y-6329293D01*
X3831729Y-6329293D02*
X3831729Y-6281674D01*
X3831729Y-6281674D02*
X3841253Y-6243579D01*
X3841253Y-6243579D02*
X3850777Y-6224531D01*
X3850777Y-6224531D02*
X3860301Y-6215008D01*
X3860301Y-6215008D02*
X3879348Y-6205484D01*
X4136491Y-6405484D02*
X4022206Y-6405484D01*
X4079348Y-6405484D02*
X4079348Y-6205484D01*
X4079348Y-6205484D02*
X4060301Y-6234055D01*
X4060301Y-6234055D02*
X4041253Y-6253103D01*
X4041253Y-6253103D02*
X4022206Y-6262627D01*
X4326968Y-6405484D02*
X4212682Y-6405484D01*
X4269825Y-6405484D02*
X4269825Y-6205484D01*
X4269825Y-6205484D02*
X4250777Y-6234055D01*
X4250777Y-6234055D02*
X4231729Y-6253103D01*
X4231729Y-6253103D02*
X4212682Y-6262627D01*
X4441253Y-6291198D02*
X4422206Y-6281674D01*
X4422206Y-6281674D02*
X4412682Y-6272150D01*
X4412682Y-6272150D02*
X4403158Y-6253103D01*
X4403158Y-6253103D02*
X4403158Y-6243579D01*
X4403158Y-6243579D02*
X4412682Y-6224531D01*
X4412682Y-6224531D02*
X4422206Y-6215008D01*
X4422206Y-6215008D02*
X4441253Y-6205484D01*
X4441253Y-6205484D02*
X4479349Y-6205484D01*
X4479349Y-6205484D02*
X4498396Y-6215008D01*
X4498396Y-6215008D02*
X4507920Y-6224531D01*
X4507920Y-6224531D02*
X4517444Y-6243579D01*
X4517444Y-6243579D02*
X4517444Y-6253103D01*
X4517444Y-6253103D02*
X4507920Y-6272150D01*
X4507920Y-6272150D02*
X4498396Y-6281674D01*
X4498396Y-6281674D02*
X4479349Y-6291198D01*
X4479349Y-6291198D02*
X4441253Y-6291198D01*
X4441253Y-6291198D02*
X4422206Y-6300722D01*
X4422206Y-6300722D02*
X4412682Y-6310246D01*
X4412682Y-6310246D02*
X4403158Y-6329293D01*
X4403158Y-6329293D02*
X4403158Y-6367388D01*
X4403158Y-6367388D02*
X4412682Y-6386436D01*
X4412682Y-6386436D02*
X4422206Y-6395960D01*
X4422206Y-6395960D02*
X4441253Y-6405484D01*
X4441253Y-6405484D02*
X4479349Y-6405484D01*
X4479349Y-6405484D02*
X4498396Y-6395960D01*
X4498396Y-6395960D02*
X4507920Y-6386436D01*
X4507920Y-6386436D02*
X4517444Y-6367388D01*
X4517444Y-6367388D02*
X4517444Y-6329293D01*
X4517444Y-6329293D02*
X4507920Y-6310246D01*
X4507920Y-6310246D02*
X4498396Y-6300722D01*
X4498396Y-6300722D02*
X4479349Y-6291198D01*
X4593634Y-6205484D02*
X4593634Y-6243579D01*
X4669825Y-6205484D02*
X4669825Y-6243579D01*
X4965063Y-6481674D02*
X4955539Y-6472150D01*
X4955539Y-6472150D02*
X4936491Y-6443579D01*
X4936491Y-6443579D02*
X4926968Y-6424531D01*
X4926968Y-6424531D02*
X4917444Y-6395960D01*
X4917444Y-6395960D02*
X4907920Y-6348341D01*
X4907920Y-6348341D02*
X4907920Y-6310246D01*
X4907920Y-6310246D02*
X4917444Y-6262627D01*
X4917444Y-6262627D02*
X4926968Y-6234055D01*
X4926968Y-6234055D02*
X4936491Y-6215008D01*
X4936491Y-6215008D02*
X4955539Y-6186436D01*
X4955539Y-6186436D02*
X4965063Y-6176912D01*
X5146015Y-6405484D02*
X5031730Y-6405484D01*
X5088872Y-6405484D02*
X5088872Y-6205484D01*
X5088872Y-6205484D02*
X5069825Y-6234055D01*
X5069825Y-6234055D02*
X5050777Y-6253103D01*
X5050777Y-6253103D02*
X5031730Y-6262627D01*
X5241253Y-6405484D02*
X5279349Y-6405484D01*
X5279349Y-6405484D02*
X5298396Y-6395960D01*
X5298396Y-6395960D02*
X5307920Y-6386436D01*
X5307920Y-6386436D02*
X5326968Y-6357865D01*
X5326968Y-6357865D02*
X5336491Y-6319769D01*
X5336491Y-6319769D02*
X5336491Y-6243579D01*
X5336491Y-6243579D02*
X5326968Y-6224531D01*
X5326968Y-6224531D02*
X5317444Y-6215008D01*
X5317444Y-6215008D02*
X5298396Y-6205484D01*
X5298396Y-6205484D02*
X5260301Y-6205484D01*
X5260301Y-6205484D02*
X5241253Y-6215008D01*
X5241253Y-6215008D02*
X5231730Y-6224531D01*
X5231730Y-6224531D02*
X5222206Y-6243579D01*
X5222206Y-6243579D02*
X5222206Y-6291198D01*
X5222206Y-6291198D02*
X5231730Y-6310246D01*
X5231730Y-6310246D02*
X5241253Y-6319769D01*
X5241253Y-6319769D02*
X5260301Y-6329293D01*
X5260301Y-6329293D02*
X5298396Y-6329293D01*
X5298396Y-6329293D02*
X5317444Y-6319769D01*
X5317444Y-6319769D02*
X5326968Y-6310246D01*
X5326968Y-6310246D02*
X5336491Y-6291198D01*
X5517444Y-6205484D02*
X5422206Y-6205484D01*
X5422206Y-6205484D02*
X5412682Y-6300722D01*
X5412682Y-6300722D02*
X5422206Y-6291198D01*
X5422206Y-6291198D02*
X5441253Y-6281674D01*
X5441253Y-6281674D02*
X5488872Y-6281674D01*
X5488872Y-6281674D02*
X5507920Y-6291198D01*
X5507920Y-6291198D02*
X5517444Y-6300722D01*
X5517444Y-6300722D02*
X5526968Y-6319769D01*
X5526968Y-6319769D02*
X5526968Y-6367388D01*
X5526968Y-6367388D02*
X5517444Y-6386436D01*
X5517444Y-6386436D02*
X5507920Y-6395960D01*
X5507920Y-6395960D02*
X5488872Y-6405484D01*
X5488872Y-6405484D02*
X5441253Y-6405484D01*
X5441253Y-6405484D02*
X5422206Y-6395960D01*
X5422206Y-6395960D02*
X5412682Y-6386436D01*
X5765063Y-6405484D02*
X5765063Y-6205484D01*
X5850777Y-6405484D02*
X5850777Y-6300722D01*
X5850777Y-6300722D02*
X5841253Y-6281674D01*
X5841253Y-6281674D02*
X5822206Y-6272150D01*
X5822206Y-6272150D02*
X5793634Y-6272150D01*
X5793634Y-6272150D02*
X5774587Y-6281674D01*
X5774587Y-6281674D02*
X5765063Y-6291198D01*
X5974587Y-6405484D02*
X5955539Y-6395960D01*
X5955539Y-6395960D02*
X5946015Y-6386436D01*
X5946015Y-6386436D02*
X5936491Y-6367388D01*
X5936491Y-6367388D02*
X5936491Y-6310246D01*
X5936491Y-6310246D02*
X5946015Y-6291198D01*
X5946015Y-6291198D02*
X5955539Y-6281674D01*
X5955539Y-6281674D02*
X5974587Y-6272150D01*
X5974587Y-6272150D02*
X6003158Y-6272150D01*
X6003158Y-6272150D02*
X6022206Y-6281674D01*
X6022206Y-6281674D02*
X6031730Y-6291198D01*
X6031730Y-6291198D02*
X6041253Y-6310246D01*
X6041253Y-6310246D02*
X6041253Y-6367388D01*
X6041253Y-6367388D02*
X6031730Y-6386436D01*
X6031730Y-6386436D02*
X6022206Y-6395960D01*
X6022206Y-6395960D02*
X6003158Y-6405484D01*
X6003158Y-6405484D02*
X5974587Y-6405484D01*
X6155539Y-6405484D02*
X6136491Y-6395960D01*
X6136491Y-6395960D02*
X6126968Y-6376912D01*
X6126968Y-6376912D02*
X6126968Y-6205484D01*
X6307920Y-6395960D02*
X6288872Y-6405484D01*
X6288872Y-6405484D02*
X6250777Y-6405484D01*
X6250777Y-6405484D02*
X6231730Y-6395960D01*
X6231730Y-6395960D02*
X6222206Y-6376912D01*
X6222206Y-6376912D02*
X6222206Y-6300722D01*
X6222206Y-6300722D02*
X6231730Y-6281674D01*
X6231730Y-6281674D02*
X6250777Y-6272150D01*
X6250777Y-6272150D02*
X6288872Y-6272150D01*
X6288872Y-6272150D02*
X6307920Y-6281674D01*
X6307920Y-6281674D02*
X6317444Y-6300722D01*
X6317444Y-6300722D02*
X6317444Y-6319769D01*
X6317444Y-6319769D02*
X6222206Y-6338817D01*
X6393634Y-6395960D02*
X6412682Y-6405484D01*
X6412682Y-6405484D02*
X6450777Y-6405484D01*
X6450777Y-6405484D02*
X6469825Y-6395960D01*
X6469825Y-6395960D02*
X6479349Y-6376912D01*
X6479349Y-6376912D02*
X6479349Y-6367388D01*
X6479349Y-6367388D02*
X6469825Y-6348341D01*
X6469825Y-6348341D02*
X6450777Y-6338817D01*
X6450777Y-6338817D02*
X6422206Y-6338817D01*
X6422206Y-6338817D02*
X6403158Y-6329293D01*
X6403158Y-6329293D02*
X6393634Y-6310246D01*
X6393634Y-6310246D02*
X6393634Y-6300722D01*
X6393634Y-6300722D02*
X6403158Y-6281674D01*
X6403158Y-6281674D02*
X6422206Y-6272150D01*
X6422206Y-6272150D02*
X6450777Y-6272150D01*
X6450777Y-6272150D02*
X6469825Y-6281674D01*
X6546015Y-6481674D02*
X6555539Y-6472150D01*
X6555539Y-6472150D02*
X6574587Y-6443579D01*
X6574587Y-6443579D02*
X6584111Y-6424531D01*
X6584111Y-6424531D02*
X6593634Y-6395960D01*
X6593634Y-6395960D02*
X6603158Y-6348341D01*
X6603158Y-6348341D02*
X6603158Y-6310246D01*
X6603158Y-6310246D02*
X6593634Y-6262627D01*
X6593634Y-6262627D02*
X6584111Y-6234055D01*
X6584111Y-6234055D02*
X6574587Y-6215008D01*
X6574587Y-6215008D02*
X6555539Y-6186436D01*
X6555539Y-6186436D02*
X6546015Y-6176912D01*
D12*
X1344280Y-6532280D02*
X1344280Y-6623720D01*
X1298560Y-6578000D02*
X1390000Y-6578000D01*
D11*
X1688872Y-6469484D02*
X1707920Y-6469484D01*
X1707920Y-6469484D02*
X1726967Y-6479008D01*
X1726967Y-6479008D02*
X1736491Y-6488531D01*
X1736491Y-6488531D02*
X1746015Y-6507579D01*
X1746015Y-6507579D02*
X1755539Y-6545674D01*
X1755539Y-6545674D02*
X1755539Y-6593293D01*
X1755539Y-6593293D02*
X1746015Y-6631388D01*
X1746015Y-6631388D02*
X1736491Y-6650436D01*
X1736491Y-6650436D02*
X1726967Y-6659960D01*
X1726967Y-6659960D02*
X1707920Y-6669484D01*
X1707920Y-6669484D02*
X1688872Y-6669484D01*
X1688872Y-6669484D02*
X1669824Y-6659960D01*
X1669824Y-6659960D02*
X1660301Y-6650436D01*
X1660301Y-6650436D02*
X1650777Y-6631388D01*
X1650777Y-6631388D02*
X1641253Y-6593293D01*
X1641253Y-6593293D02*
X1641253Y-6545674D01*
X1641253Y-6545674D02*
X1650777Y-6507579D01*
X1650777Y-6507579D02*
X1660301Y-6488531D01*
X1660301Y-6488531D02*
X1669824Y-6479008D01*
X1669824Y-6479008D02*
X1688872Y-6469484D01*
X1841253Y-6650436D02*
X1850777Y-6659960D01*
X1850777Y-6659960D02*
X1841253Y-6669484D01*
X1841253Y-6669484D02*
X1831729Y-6659960D01*
X1831729Y-6659960D02*
X1841253Y-6650436D01*
X1841253Y-6650436D02*
X1841253Y-6669484D01*
X1946015Y-6669484D02*
X1984110Y-6669484D01*
X1984110Y-6669484D02*
X2003158Y-6659960D01*
X2003158Y-6659960D02*
X2012682Y-6650436D01*
X2012682Y-6650436D02*
X2031729Y-6621865D01*
X2031729Y-6621865D02*
X2041253Y-6583769D01*
X2041253Y-6583769D02*
X2041253Y-6507579D01*
X2041253Y-6507579D02*
X2031729Y-6488531D01*
X2031729Y-6488531D02*
X2022205Y-6479008D01*
X2022205Y-6479008D02*
X2003158Y-6469484D01*
X2003158Y-6469484D02*
X1965062Y-6469484D01*
X1965062Y-6469484D02*
X1946015Y-6479008D01*
X1946015Y-6479008D02*
X1936491Y-6488531D01*
X1936491Y-6488531D02*
X1926967Y-6507579D01*
X1926967Y-6507579D02*
X1926967Y-6555198D01*
X1926967Y-6555198D02*
X1936491Y-6574246D01*
X1936491Y-6574246D02*
X1946015Y-6583769D01*
X1946015Y-6583769D02*
X1965062Y-6593293D01*
X1965062Y-6593293D02*
X2003158Y-6593293D01*
X2003158Y-6593293D02*
X2022205Y-6583769D01*
X2022205Y-6583769D02*
X2031729Y-6574246D01*
X2031729Y-6574246D02*
X2041253Y-6555198D01*
X2231729Y-6669484D02*
X2117444Y-6669484D01*
X2174586Y-6669484D02*
X2174586Y-6469484D01*
X2174586Y-6469484D02*
X2155539Y-6498055D01*
X2155539Y-6498055D02*
X2136491Y-6517103D01*
X2136491Y-6517103D02*
X2117444Y-6526627D01*
X2403158Y-6536150D02*
X2403158Y-6669484D01*
X2355539Y-6459960D02*
X2307920Y-6602817D01*
X2307920Y-6602817D02*
X2431729Y-6602817D01*
X2507920Y-6669484D02*
X2507920Y-6536150D01*
X2507920Y-6555198D02*
X2517444Y-6545674D01*
X2517444Y-6545674D02*
X2536491Y-6536150D01*
X2536491Y-6536150D02*
X2565063Y-6536150D01*
X2565063Y-6536150D02*
X2584110Y-6545674D01*
X2584110Y-6545674D02*
X2593634Y-6564722D01*
X2593634Y-6564722D02*
X2593634Y-6669484D01*
X2593634Y-6564722D02*
X2603158Y-6545674D01*
X2603158Y-6545674D02*
X2622205Y-6536150D01*
X2622205Y-6536150D02*
X2650777Y-6536150D01*
X2650777Y-6536150D02*
X2669825Y-6545674D01*
X2669825Y-6545674D02*
X2679348Y-6564722D01*
X2679348Y-6564722D02*
X2679348Y-6669484D01*
X2774586Y-6669484D02*
X2774586Y-6536150D01*
X2774586Y-6555198D02*
X2784110Y-6545674D01*
X2784110Y-6545674D02*
X2803158Y-6536150D01*
X2803158Y-6536150D02*
X2831729Y-6536150D01*
X2831729Y-6536150D02*
X2850777Y-6545674D01*
X2850777Y-6545674D02*
X2860301Y-6564722D01*
X2860301Y-6564722D02*
X2860301Y-6669484D01*
X2860301Y-6564722D02*
X2869824Y-6545674D01*
X2869824Y-6545674D02*
X2888872Y-6536150D01*
X2888872Y-6536150D02*
X2917443Y-6536150D01*
X2917443Y-6536150D02*
X2936491Y-6545674D01*
X2936491Y-6545674D02*
X2946015Y-6564722D01*
X2946015Y-6564722D02*
X2946015Y-6669484D01*
X3336491Y-6459960D02*
X3165063Y-6717103D01*
X3593634Y-6469484D02*
X3612682Y-6469484D01*
X3612682Y-6469484D02*
X3631729Y-6479008D01*
X3631729Y-6479008D02*
X3641253Y-6488531D01*
X3641253Y-6488531D02*
X3650777Y-6507579D01*
X3650777Y-6507579D02*
X3660301Y-6545674D01*
X3660301Y-6545674D02*
X3660301Y-6593293D01*
X3660301Y-6593293D02*
X3650777Y-6631388D01*
X3650777Y-6631388D02*
X3641253Y-6650436D01*
X3641253Y-6650436D02*
X3631729Y-6659960D01*
X3631729Y-6659960D02*
X3612682Y-6669484D01*
X3612682Y-6669484D02*
X3593634Y-6669484D01*
X3593634Y-6669484D02*
X3574586Y-6659960D01*
X3574586Y-6659960D02*
X3565063Y-6650436D01*
X3565063Y-6650436D02*
X3555539Y-6631388D01*
X3555539Y-6631388D02*
X3546015Y-6593293D01*
X3546015Y-6593293D02*
X3546015Y-6545674D01*
X3546015Y-6545674D02*
X3555539Y-6507579D01*
X3555539Y-6507579D02*
X3565063Y-6488531D01*
X3565063Y-6488531D02*
X3574586Y-6479008D01*
X3574586Y-6479008D02*
X3593634Y-6469484D01*
X3746015Y-6650436D02*
X3755539Y-6659960D01*
X3755539Y-6659960D02*
X3746015Y-6669484D01*
X3746015Y-6669484D02*
X3736491Y-6659960D01*
X3736491Y-6659960D02*
X3746015Y-6650436D01*
X3746015Y-6650436D02*
X3746015Y-6669484D01*
X3879348Y-6469484D02*
X3898396Y-6469484D01*
X3898396Y-6469484D02*
X3917444Y-6479008D01*
X3917444Y-6479008D02*
X3926967Y-6488531D01*
X3926967Y-6488531D02*
X3936491Y-6507579D01*
X3936491Y-6507579D02*
X3946015Y-6545674D01*
X3946015Y-6545674D02*
X3946015Y-6593293D01*
X3946015Y-6593293D02*
X3936491Y-6631388D01*
X3936491Y-6631388D02*
X3926967Y-6650436D01*
X3926967Y-6650436D02*
X3917444Y-6659960D01*
X3917444Y-6659960D02*
X3898396Y-6669484D01*
X3898396Y-6669484D02*
X3879348Y-6669484D01*
X3879348Y-6669484D02*
X3860301Y-6659960D01*
X3860301Y-6659960D02*
X3850777Y-6650436D01*
X3850777Y-6650436D02*
X3841253Y-6631388D01*
X3841253Y-6631388D02*
X3831729Y-6593293D01*
X3831729Y-6593293D02*
X3831729Y-6545674D01*
X3831729Y-6545674D02*
X3841253Y-6507579D01*
X3841253Y-6507579D02*
X3850777Y-6488531D01*
X3850777Y-6488531D02*
X3860301Y-6479008D01*
X3860301Y-6479008D02*
X3879348Y-6469484D01*
X4012682Y-6469484D02*
X4136491Y-6469484D01*
X4136491Y-6469484D02*
X4069825Y-6545674D01*
X4069825Y-6545674D02*
X4098396Y-6545674D01*
X4098396Y-6545674D02*
X4117444Y-6555198D01*
X4117444Y-6555198D02*
X4126967Y-6564722D01*
X4126967Y-6564722D02*
X4136491Y-6583769D01*
X4136491Y-6583769D02*
X4136491Y-6631388D01*
X4136491Y-6631388D02*
X4126967Y-6650436D01*
X4126967Y-6650436D02*
X4117444Y-6659960D01*
X4117444Y-6659960D02*
X4098396Y-6669484D01*
X4098396Y-6669484D02*
X4041253Y-6669484D01*
X4041253Y-6669484D02*
X4022206Y-6659960D01*
X4022206Y-6659960D02*
X4012682Y-6650436D01*
X4307920Y-6469484D02*
X4269825Y-6469484D01*
X4269825Y-6469484D02*
X4250777Y-6479008D01*
X4250777Y-6479008D02*
X4241253Y-6488531D01*
X4241253Y-6488531D02*
X4222206Y-6517103D01*
X4222206Y-6517103D02*
X4212682Y-6555198D01*
X4212682Y-6555198D02*
X4212682Y-6631388D01*
X4212682Y-6631388D02*
X4222206Y-6650436D01*
X4222206Y-6650436D02*
X4231729Y-6659960D01*
X4231729Y-6659960D02*
X4250777Y-6669484D01*
X4250777Y-6669484D02*
X4288872Y-6669484D01*
X4288872Y-6669484D02*
X4307920Y-6659960D01*
X4307920Y-6659960D02*
X4317444Y-6650436D01*
X4317444Y-6650436D02*
X4326968Y-6631388D01*
X4326968Y-6631388D02*
X4326968Y-6583769D01*
X4326968Y-6583769D02*
X4317444Y-6564722D01*
X4317444Y-6564722D02*
X4307920Y-6555198D01*
X4307920Y-6555198D02*
X4288872Y-6545674D01*
X4288872Y-6545674D02*
X4250777Y-6545674D01*
X4250777Y-6545674D02*
X4231729Y-6555198D01*
X4231729Y-6555198D02*
X4222206Y-6564722D01*
X4222206Y-6564722D02*
X4212682Y-6583769D01*
X4450777Y-6469484D02*
X4469825Y-6469484D01*
X4469825Y-6469484D02*
X4488872Y-6479008D01*
X4488872Y-6479008D02*
X4498396Y-6488531D01*
X4498396Y-6488531D02*
X4507920Y-6507579D01*
X4507920Y-6507579D02*
X4517444Y-6545674D01*
X4517444Y-6545674D02*
X4517444Y-6593293D01*
X4517444Y-6593293D02*
X4507920Y-6631388D01*
X4507920Y-6631388D02*
X4498396Y-6650436D01*
X4498396Y-6650436D02*
X4488872Y-6659960D01*
X4488872Y-6659960D02*
X4469825Y-6669484D01*
X4469825Y-6669484D02*
X4450777Y-6669484D01*
X4450777Y-6669484D02*
X4431729Y-6659960D01*
X4431729Y-6659960D02*
X4422206Y-6650436D01*
X4422206Y-6650436D02*
X4412682Y-6631388D01*
X4412682Y-6631388D02*
X4403158Y-6593293D01*
X4403158Y-6593293D02*
X4403158Y-6545674D01*
X4403158Y-6545674D02*
X4412682Y-6507579D01*
X4412682Y-6507579D02*
X4422206Y-6488531D01*
X4422206Y-6488531D02*
X4431729Y-6479008D01*
X4431729Y-6479008D02*
X4450777Y-6469484D01*
X4593634Y-6469484D02*
X4593634Y-6507579D01*
X4669825Y-6469484D02*
X4669825Y-6507579D01*
X4965063Y-6745674D02*
X4955539Y-6736150D01*
X4955539Y-6736150D02*
X4936491Y-6707579D01*
X4936491Y-6707579D02*
X4926968Y-6688531D01*
X4926968Y-6688531D02*
X4917444Y-6659960D01*
X4917444Y-6659960D02*
X4907920Y-6612341D01*
X4907920Y-6612341D02*
X4907920Y-6574246D01*
X4907920Y-6574246D02*
X4917444Y-6526627D01*
X4917444Y-6526627D02*
X4926968Y-6498055D01*
X4926968Y-6498055D02*
X4936491Y-6479008D01*
X4936491Y-6479008D02*
X4955539Y-6450436D01*
X4955539Y-6450436D02*
X4965063Y-6440912D01*
X5069825Y-6555198D02*
X5050777Y-6545674D01*
X5050777Y-6545674D02*
X5041253Y-6536150D01*
X5041253Y-6536150D02*
X5031730Y-6517103D01*
X5031730Y-6517103D02*
X5031730Y-6507579D01*
X5031730Y-6507579D02*
X5041253Y-6488531D01*
X5041253Y-6488531D02*
X5050777Y-6479008D01*
X5050777Y-6479008D02*
X5069825Y-6469484D01*
X5069825Y-6469484D02*
X5107920Y-6469484D01*
X5107920Y-6469484D02*
X5126968Y-6479008D01*
X5126968Y-6479008D02*
X5136491Y-6488531D01*
X5136491Y-6488531D02*
X5146015Y-6507579D01*
X5146015Y-6507579D02*
X5146015Y-6517103D01*
X5146015Y-6517103D02*
X5136491Y-6536150D01*
X5136491Y-6536150D02*
X5126968Y-6545674D01*
X5126968Y-6545674D02*
X5107920Y-6555198D01*
X5107920Y-6555198D02*
X5069825Y-6555198D01*
X5069825Y-6555198D02*
X5050777Y-6564722D01*
X5050777Y-6564722D02*
X5041253Y-6574246D01*
X5041253Y-6574246D02*
X5031730Y-6593293D01*
X5031730Y-6593293D02*
X5031730Y-6631388D01*
X5031730Y-6631388D02*
X5041253Y-6650436D01*
X5041253Y-6650436D02*
X5050777Y-6659960D01*
X5050777Y-6659960D02*
X5069825Y-6669484D01*
X5069825Y-6669484D02*
X5107920Y-6669484D01*
X5107920Y-6669484D02*
X5126968Y-6659960D01*
X5126968Y-6659960D02*
X5136491Y-6650436D01*
X5136491Y-6650436D02*
X5146015Y-6631388D01*
X5146015Y-6631388D02*
X5146015Y-6593293D01*
X5146015Y-6593293D02*
X5136491Y-6574246D01*
X5136491Y-6574246D02*
X5126968Y-6564722D01*
X5126968Y-6564722D02*
X5107920Y-6555198D01*
X5384111Y-6669484D02*
X5384111Y-6469484D01*
X5469825Y-6669484D02*
X5469825Y-6564722D01*
X5469825Y-6564722D02*
X5460301Y-6545674D01*
X5460301Y-6545674D02*
X5441253Y-6536150D01*
X5441253Y-6536150D02*
X5412682Y-6536150D01*
X5412682Y-6536150D02*
X5393634Y-6545674D01*
X5393634Y-6545674D02*
X5384111Y-6555198D01*
X5593634Y-6669484D02*
X5574587Y-6659960D01*
X5574587Y-6659960D02*
X5565063Y-6650436D01*
X5565063Y-6650436D02*
X5555539Y-6631388D01*
X5555539Y-6631388D02*
X5555539Y-6574246D01*
X5555539Y-6574246D02*
X5565063Y-6555198D01*
X5565063Y-6555198D02*
X5574587Y-6545674D01*
X5574587Y-6545674D02*
X5593634Y-6536150D01*
X5593634Y-6536150D02*
X5622206Y-6536150D01*
X5622206Y-6536150D02*
X5641253Y-6545674D01*
X5641253Y-6545674D02*
X5650777Y-6555198D01*
X5650777Y-6555198D02*
X5660301Y-6574246D01*
X5660301Y-6574246D02*
X5660301Y-6631388D01*
X5660301Y-6631388D02*
X5650777Y-6650436D01*
X5650777Y-6650436D02*
X5641253Y-6659960D01*
X5641253Y-6659960D02*
X5622206Y-6669484D01*
X5622206Y-6669484D02*
X5593634Y-6669484D01*
X5774587Y-6669484D02*
X5755539Y-6659960D01*
X5755539Y-6659960D02*
X5746015Y-6640912D01*
X5746015Y-6640912D02*
X5746015Y-6469484D01*
X5926968Y-6659960D02*
X5907920Y-6669484D01*
X5907920Y-6669484D02*
X5869825Y-6669484D01*
X5869825Y-6669484D02*
X5850777Y-6659960D01*
X5850777Y-6659960D02*
X5841253Y-6640912D01*
X5841253Y-6640912D02*
X5841253Y-6564722D01*
X5841253Y-6564722D02*
X5850777Y-6545674D01*
X5850777Y-6545674D02*
X5869825Y-6536150D01*
X5869825Y-6536150D02*
X5907920Y-6536150D01*
X5907920Y-6536150D02*
X5926968Y-6545674D01*
X5926968Y-6545674D02*
X5936491Y-6564722D01*
X5936491Y-6564722D02*
X5936491Y-6583769D01*
X5936491Y-6583769D02*
X5841253Y-6602817D01*
X6012682Y-6659960D02*
X6031730Y-6669484D01*
X6031730Y-6669484D02*
X6069825Y-6669484D01*
X6069825Y-6669484D02*
X6088872Y-6659960D01*
X6088872Y-6659960D02*
X6098396Y-6640912D01*
X6098396Y-6640912D02*
X6098396Y-6631388D01*
X6098396Y-6631388D02*
X6088872Y-6612341D01*
X6088872Y-6612341D02*
X6069825Y-6602817D01*
X6069825Y-6602817D02*
X6041253Y-6602817D01*
X6041253Y-6602817D02*
X6022206Y-6593293D01*
X6022206Y-6593293D02*
X6012682Y-6574246D01*
X6012682Y-6574246D02*
X6012682Y-6564722D01*
X6012682Y-6564722D02*
X6022206Y-6545674D01*
X6022206Y-6545674D02*
X6041253Y-6536150D01*
X6041253Y-6536150D02*
X6069825Y-6536150D01*
X6069825Y-6536150D02*
X6088872Y-6545674D01*
X6165063Y-6745674D02*
X6174587Y-6736150D01*
X6174587Y-6736150D02*
X6193634Y-6707579D01*
X6193634Y-6707579D02*
X6203158Y-6688531D01*
X6203158Y-6688531D02*
X6212682Y-6659960D01*
X6212682Y-6659960D02*
X6222206Y-6612341D01*
X6222206Y-6612341D02*
X6222206Y-6574246D01*
X6222206Y-6574246D02*
X6212682Y-6526627D01*
X6212682Y-6526627D02*
X6203158Y-6498055D01*
X6203158Y-6498055D02*
X6193634Y-6479008D01*
X6193634Y-6479008D02*
X6174587Y-6450436D01*
X6174587Y-6450436D02*
X6165063Y-6440912D01*
D13*
X1374477Y-6879477D02*
X1374477Y-6804523D01*
X1299523Y-6804523D01*
X1299523Y-6879477D01*
X1374477Y-6879477D01*
D11*
X1755539Y-6933484D02*
X1641253Y-6933484D01*
X1698396Y-6933484D02*
X1698396Y-6733484D01*
X1698396Y-6733484D02*
X1679348Y-6762055D01*
X1679348Y-6762055D02*
X1660301Y-6781103D01*
X1660301Y-6781103D02*
X1641253Y-6790627D01*
X1841253Y-6914436D02*
X1850777Y-6923960D01*
X1850777Y-6923960D02*
X1841253Y-6933484D01*
X1841253Y-6933484D02*
X1831729Y-6923960D01*
X1831729Y-6923960D02*
X1841253Y-6914436D01*
X1841253Y-6914436D02*
X1841253Y-6933484D01*
X1974586Y-6733484D02*
X1993634Y-6733484D01*
X1993634Y-6733484D02*
X2012682Y-6743008D01*
X2012682Y-6743008D02*
X2022205Y-6752531D01*
X2022205Y-6752531D02*
X2031729Y-6771579D01*
X2031729Y-6771579D02*
X2041253Y-6809674D01*
X2041253Y-6809674D02*
X2041253Y-6857293D01*
X2041253Y-6857293D02*
X2031729Y-6895388D01*
X2031729Y-6895388D02*
X2022205Y-6914436D01*
X2022205Y-6914436D02*
X2012682Y-6923960D01*
X2012682Y-6923960D02*
X1993634Y-6933484D01*
X1993634Y-6933484D02*
X1974586Y-6933484D01*
X1974586Y-6933484D02*
X1955539Y-6923960D01*
X1955539Y-6923960D02*
X1946015Y-6914436D01*
X1946015Y-6914436D02*
X1936491Y-6895388D01*
X1936491Y-6895388D02*
X1926967Y-6857293D01*
X1926967Y-6857293D02*
X1926967Y-6809674D01*
X1926967Y-6809674D02*
X1936491Y-6771579D01*
X1936491Y-6771579D02*
X1946015Y-6752531D01*
X1946015Y-6752531D02*
X1955539Y-6743008D01*
X1955539Y-6743008D02*
X1974586Y-6733484D01*
X2212682Y-6733484D02*
X2174586Y-6733484D01*
X2174586Y-6733484D02*
X2155539Y-6743008D01*
X2155539Y-6743008D02*
X2146015Y-6752531D01*
X2146015Y-6752531D02*
X2126967Y-6781103D01*
X2126967Y-6781103D02*
X2117444Y-6819198D01*
X2117444Y-6819198D02*
X2117444Y-6895388D01*
X2117444Y-6895388D02*
X2126967Y-6914436D01*
X2126967Y-6914436D02*
X2136491Y-6923960D01*
X2136491Y-6923960D02*
X2155539Y-6933484D01*
X2155539Y-6933484D02*
X2193634Y-6933484D01*
X2193634Y-6933484D02*
X2212682Y-6923960D01*
X2212682Y-6923960D02*
X2222205Y-6914436D01*
X2222205Y-6914436D02*
X2231729Y-6895388D01*
X2231729Y-6895388D02*
X2231729Y-6847769D01*
X2231729Y-6847769D02*
X2222205Y-6828722D01*
X2222205Y-6828722D02*
X2212682Y-6819198D01*
X2212682Y-6819198D02*
X2193634Y-6809674D01*
X2193634Y-6809674D02*
X2155539Y-6809674D01*
X2155539Y-6809674D02*
X2136491Y-6819198D01*
X2136491Y-6819198D02*
X2126967Y-6828722D01*
X2126967Y-6828722D02*
X2117444Y-6847769D01*
X2355539Y-6733484D02*
X2374586Y-6733484D01*
X2374586Y-6733484D02*
X2393634Y-6743008D01*
X2393634Y-6743008D02*
X2403158Y-6752531D01*
X2403158Y-6752531D02*
X2412682Y-6771579D01*
X2412682Y-6771579D02*
X2422205Y-6809674D01*
X2422205Y-6809674D02*
X2422205Y-6857293D01*
X2422205Y-6857293D02*
X2412682Y-6895388D01*
X2412682Y-6895388D02*
X2403158Y-6914436D01*
X2403158Y-6914436D02*
X2393634Y-6923960D01*
X2393634Y-6923960D02*
X2374586Y-6933484D01*
X2374586Y-6933484D02*
X2355539Y-6933484D01*
X2355539Y-6933484D02*
X2336491Y-6923960D01*
X2336491Y-6923960D02*
X2326967Y-6914436D01*
X2326967Y-6914436D02*
X2317444Y-6895388D01*
X2317444Y-6895388D02*
X2307920Y-6857293D01*
X2307920Y-6857293D02*
X2307920Y-6809674D01*
X2307920Y-6809674D02*
X2317444Y-6771579D01*
X2317444Y-6771579D02*
X2326967Y-6752531D01*
X2326967Y-6752531D02*
X2336491Y-6743008D01*
X2336491Y-6743008D02*
X2355539Y-6733484D01*
X2507920Y-6933484D02*
X2507920Y-6800150D01*
X2507920Y-6819198D02*
X2517444Y-6809674D01*
X2517444Y-6809674D02*
X2536491Y-6800150D01*
X2536491Y-6800150D02*
X2565063Y-6800150D01*
X2565063Y-6800150D02*
X2584110Y-6809674D01*
X2584110Y-6809674D02*
X2593634Y-6828722D01*
X2593634Y-6828722D02*
X2593634Y-6933484D01*
X2593634Y-6828722D02*
X2603158Y-6809674D01*
X2603158Y-6809674D02*
X2622205Y-6800150D01*
X2622205Y-6800150D02*
X2650777Y-6800150D01*
X2650777Y-6800150D02*
X2669825Y-6809674D01*
X2669825Y-6809674D02*
X2679348Y-6828722D01*
X2679348Y-6828722D02*
X2679348Y-6933484D01*
X2774586Y-6933484D02*
X2774586Y-6800150D01*
X2774586Y-6819198D02*
X2784110Y-6809674D01*
X2784110Y-6809674D02*
X2803158Y-6800150D01*
X2803158Y-6800150D02*
X2831729Y-6800150D01*
X2831729Y-6800150D02*
X2850777Y-6809674D01*
X2850777Y-6809674D02*
X2860301Y-6828722D01*
X2860301Y-6828722D02*
X2860301Y-6933484D01*
X2860301Y-6828722D02*
X2869824Y-6809674D01*
X2869824Y-6809674D02*
X2888872Y-6800150D01*
X2888872Y-6800150D02*
X2917443Y-6800150D01*
X2917443Y-6800150D02*
X2936491Y-6809674D01*
X2936491Y-6809674D02*
X2946015Y-6828722D01*
X2946015Y-6828722D02*
X2946015Y-6933484D01*
X3336491Y-6723960D02*
X3165063Y-6981103D01*
X3593634Y-6733484D02*
X3612682Y-6733484D01*
X3612682Y-6733484D02*
X3631729Y-6743008D01*
X3631729Y-6743008D02*
X3641253Y-6752531D01*
X3641253Y-6752531D02*
X3650777Y-6771579D01*
X3650777Y-6771579D02*
X3660301Y-6809674D01*
X3660301Y-6809674D02*
X3660301Y-6857293D01*
X3660301Y-6857293D02*
X3650777Y-6895388D01*
X3650777Y-6895388D02*
X3641253Y-6914436D01*
X3641253Y-6914436D02*
X3631729Y-6923960D01*
X3631729Y-6923960D02*
X3612682Y-6933484D01*
X3612682Y-6933484D02*
X3593634Y-6933484D01*
X3593634Y-6933484D02*
X3574586Y-6923960D01*
X3574586Y-6923960D02*
X3565063Y-6914436D01*
X3565063Y-6914436D02*
X3555539Y-6895388D01*
X3555539Y-6895388D02*
X3546015Y-6857293D01*
X3546015Y-6857293D02*
X3546015Y-6809674D01*
X3546015Y-6809674D02*
X3555539Y-6771579D01*
X3555539Y-6771579D02*
X3565063Y-6752531D01*
X3565063Y-6752531D02*
X3574586Y-6743008D01*
X3574586Y-6743008D02*
X3593634Y-6733484D01*
X3746015Y-6914436D02*
X3755539Y-6923960D01*
X3755539Y-6923960D02*
X3746015Y-6933484D01*
X3746015Y-6933484D02*
X3736491Y-6923960D01*
X3736491Y-6923960D02*
X3746015Y-6914436D01*
X3746015Y-6914436D02*
X3746015Y-6933484D01*
X3879348Y-6733484D02*
X3898396Y-6733484D01*
X3898396Y-6733484D02*
X3917444Y-6743008D01*
X3917444Y-6743008D02*
X3926967Y-6752531D01*
X3926967Y-6752531D02*
X3936491Y-6771579D01*
X3936491Y-6771579D02*
X3946015Y-6809674D01*
X3946015Y-6809674D02*
X3946015Y-6857293D01*
X3946015Y-6857293D02*
X3936491Y-6895388D01*
X3936491Y-6895388D02*
X3926967Y-6914436D01*
X3926967Y-6914436D02*
X3917444Y-6923960D01*
X3917444Y-6923960D02*
X3898396Y-6933484D01*
X3898396Y-6933484D02*
X3879348Y-6933484D01*
X3879348Y-6933484D02*
X3860301Y-6923960D01*
X3860301Y-6923960D02*
X3850777Y-6914436D01*
X3850777Y-6914436D02*
X3841253Y-6895388D01*
X3841253Y-6895388D02*
X3831729Y-6857293D01*
X3831729Y-6857293D02*
X3831729Y-6809674D01*
X3831729Y-6809674D02*
X3841253Y-6771579D01*
X3841253Y-6771579D02*
X3850777Y-6752531D01*
X3850777Y-6752531D02*
X3860301Y-6743008D01*
X3860301Y-6743008D02*
X3879348Y-6733484D01*
X4117444Y-6800150D02*
X4117444Y-6933484D01*
X4069825Y-6723960D02*
X4022206Y-6866817D01*
X4022206Y-6866817D02*
X4146015Y-6866817D01*
X4326968Y-6933484D02*
X4212682Y-6933484D01*
X4269825Y-6933484D02*
X4269825Y-6733484D01*
X4269825Y-6733484D02*
X4250777Y-6762055D01*
X4250777Y-6762055D02*
X4231729Y-6781103D01*
X4231729Y-6781103D02*
X4212682Y-6790627D01*
X4393634Y-6733484D02*
X4526968Y-6733484D01*
X4526968Y-6733484D02*
X4441253Y-6933484D01*
X4593634Y-6733484D02*
X4593634Y-6771579D01*
X4669825Y-6733484D02*
X4669825Y-6771579D01*
X4965063Y-7009674D02*
X4955539Y-7000150D01*
X4955539Y-7000150D02*
X4936491Y-6971579D01*
X4936491Y-6971579D02*
X4926968Y-6952531D01*
X4926968Y-6952531D02*
X4917444Y-6923960D01*
X4917444Y-6923960D02*
X4907920Y-6876341D01*
X4907920Y-6876341D02*
X4907920Y-6838246D01*
X4907920Y-6838246D02*
X4917444Y-6790627D01*
X4917444Y-6790627D02*
X4926968Y-6762055D01*
X4926968Y-6762055D02*
X4936491Y-6743008D01*
X4936491Y-6743008D02*
X4955539Y-6714436D01*
X4955539Y-6714436D02*
X4965063Y-6704912D01*
X5031730Y-6752531D02*
X5041253Y-6743008D01*
X5041253Y-6743008D02*
X5060301Y-6733484D01*
X5060301Y-6733484D02*
X5107920Y-6733484D01*
X5107920Y-6733484D02*
X5126968Y-6743008D01*
X5126968Y-6743008D02*
X5136491Y-6752531D01*
X5136491Y-6752531D02*
X5146015Y-6771579D01*
X5146015Y-6771579D02*
X5146015Y-6790627D01*
X5146015Y-6790627D02*
X5136491Y-6819198D01*
X5136491Y-6819198D02*
X5022206Y-6933484D01*
X5022206Y-6933484D02*
X5146015Y-6933484D01*
X5384111Y-6933484D02*
X5384111Y-6733484D01*
X5469825Y-6933484D02*
X5469825Y-6828722D01*
X5469825Y-6828722D02*
X5460301Y-6809674D01*
X5460301Y-6809674D02*
X5441253Y-6800150D01*
X5441253Y-6800150D02*
X5412682Y-6800150D01*
X5412682Y-6800150D02*
X5393634Y-6809674D01*
X5393634Y-6809674D02*
X5384111Y-6819198D01*
X5593634Y-6933484D02*
X5574587Y-6923960D01*
X5574587Y-6923960D02*
X5565063Y-6914436D01*
X5565063Y-6914436D02*
X5555539Y-6895388D01*
X5555539Y-6895388D02*
X5555539Y-6838246D01*
X5555539Y-6838246D02*
X5565063Y-6819198D01*
X5565063Y-6819198D02*
X5574587Y-6809674D01*
X5574587Y-6809674D02*
X5593634Y-6800150D01*
X5593634Y-6800150D02*
X5622206Y-6800150D01*
X5622206Y-6800150D02*
X5641253Y-6809674D01*
X5641253Y-6809674D02*
X5650777Y-6819198D01*
X5650777Y-6819198D02*
X5660301Y-6838246D01*
X5660301Y-6838246D02*
X5660301Y-6895388D01*
X5660301Y-6895388D02*
X5650777Y-6914436D01*
X5650777Y-6914436D02*
X5641253Y-6923960D01*
X5641253Y-6923960D02*
X5622206Y-6933484D01*
X5622206Y-6933484D02*
X5593634Y-6933484D01*
X5774587Y-6933484D02*
X5755539Y-6923960D01*
X5755539Y-6923960D02*
X5746015Y-6904912D01*
X5746015Y-6904912D02*
X5746015Y-6733484D01*
X5926968Y-6923960D02*
X5907920Y-6933484D01*
X5907920Y-6933484D02*
X5869825Y-6933484D01*
X5869825Y-6933484D02*
X5850777Y-6923960D01*
X5850777Y-6923960D02*
X5841253Y-6904912D01*
X5841253Y-6904912D02*
X5841253Y-6828722D01*
X5841253Y-6828722D02*
X5850777Y-6809674D01*
X5850777Y-6809674D02*
X5869825Y-6800150D01*
X5869825Y-6800150D02*
X5907920Y-6800150D01*
X5907920Y-6800150D02*
X5926968Y-6809674D01*
X5926968Y-6809674D02*
X5936491Y-6828722D01*
X5936491Y-6828722D02*
X5936491Y-6847769D01*
X5936491Y-6847769D02*
X5841253Y-6866817D01*
X6012682Y-6923960D02*
X6031730Y-6933484D01*
X6031730Y-6933484D02*
X6069825Y-6933484D01*
X6069825Y-6933484D02*
X6088872Y-6923960D01*
X6088872Y-6923960D02*
X6098396Y-6904912D01*
X6098396Y-6904912D02*
X6098396Y-6895388D01*
X6098396Y-6895388D02*
X6088872Y-6876341D01*
X6088872Y-6876341D02*
X6069825Y-6866817D01*
X6069825Y-6866817D02*
X6041253Y-6866817D01*
X6041253Y-6866817D02*
X6022206Y-6857293D01*
X6022206Y-6857293D02*
X6012682Y-6838246D01*
X6012682Y-6838246D02*
X6012682Y-6828722D01*
X6012682Y-6828722D02*
X6022206Y-6809674D01*
X6022206Y-6809674D02*
X6041253Y-6800150D01*
X6041253Y-6800150D02*
X6069825Y-6800150D01*
X6069825Y-6800150D02*
X6088872Y-6809674D01*
X6165063Y-7009674D02*
X6174587Y-7000150D01*
X6174587Y-7000150D02*
X6193634Y-6971579D01*
X6193634Y-6971579D02*
X6203158Y-6952531D01*
X6203158Y-6952531D02*
X6212682Y-6923960D01*
X6212682Y-6923960D02*
X6222206Y-6876341D01*
X6222206Y-6876341D02*
X6222206Y-6838246D01*
X6222206Y-6838246D02*
X6212682Y-6790627D01*
X6212682Y-6790627D02*
X6203158Y-6762055D01*
X6203158Y-6762055D02*
X6193634Y-6743008D01*
X6193634Y-6743008D02*
X6174587Y-6714436D01*
X6174587Y-6714436D02*
X6165063Y-6704912D01*
D14*
X1325230Y-7170770D02*
X1390000Y-7106000D01*
X1325230Y-7041230D01*
X1260460Y-7106000D01*
X1325230Y-7170770D01*
D11*
X1755539Y-7197484D02*
X1641253Y-7197484D01*
X1698396Y-7197484D02*
X1698396Y-6997484D01*
X1698396Y-6997484D02*
X1679348Y-7026055D01*
X1679348Y-7026055D02*
X1660301Y-7045103D01*
X1660301Y-7045103D02*
X1641253Y-7054627D01*
X1841253Y-7178436D02*
X1850777Y-7187960D01*
X1850777Y-7187960D02*
X1841253Y-7197484D01*
X1841253Y-7197484D02*
X1831729Y-7187960D01*
X1831729Y-7187960D02*
X1841253Y-7178436D01*
X1841253Y-7178436D02*
X1841253Y-7197484D01*
X1926967Y-7016531D02*
X1936491Y-7007008D01*
X1936491Y-7007008D02*
X1955539Y-6997484D01*
X1955539Y-6997484D02*
X2003158Y-6997484D01*
X2003158Y-6997484D02*
X2022205Y-7007008D01*
X2022205Y-7007008D02*
X2031729Y-7016531D01*
X2031729Y-7016531D02*
X2041253Y-7035579D01*
X2041253Y-7035579D02*
X2041253Y-7054627D01*
X2041253Y-7054627D02*
X2031729Y-7083198D01*
X2031729Y-7083198D02*
X1917443Y-7197484D01*
X1917443Y-7197484D02*
X2041253Y-7197484D01*
X2136491Y-7197484D02*
X2174586Y-7197484D01*
X2174586Y-7197484D02*
X2193634Y-7187960D01*
X2193634Y-7187960D02*
X2203158Y-7178436D01*
X2203158Y-7178436D02*
X2222205Y-7149865D01*
X2222205Y-7149865D02*
X2231729Y-7111769D01*
X2231729Y-7111769D02*
X2231729Y-7035579D01*
X2231729Y-7035579D02*
X2222205Y-7016531D01*
X2222205Y-7016531D02*
X2212682Y-7007008D01*
X2212682Y-7007008D02*
X2193634Y-6997484D01*
X2193634Y-6997484D02*
X2155539Y-6997484D01*
X2155539Y-6997484D02*
X2136491Y-7007008D01*
X2136491Y-7007008D02*
X2126967Y-7016531D01*
X2126967Y-7016531D02*
X2117444Y-7035579D01*
X2117444Y-7035579D02*
X2117444Y-7083198D01*
X2117444Y-7083198D02*
X2126967Y-7102246D01*
X2126967Y-7102246D02*
X2136491Y-7111769D01*
X2136491Y-7111769D02*
X2155539Y-7121293D01*
X2155539Y-7121293D02*
X2193634Y-7121293D01*
X2193634Y-7121293D02*
X2212682Y-7111769D01*
X2212682Y-7111769D02*
X2222205Y-7102246D01*
X2222205Y-7102246D02*
X2231729Y-7083198D01*
X2412682Y-6997484D02*
X2317444Y-6997484D01*
X2317444Y-6997484D02*
X2307920Y-7092722D01*
X2307920Y-7092722D02*
X2317444Y-7083198D01*
X2317444Y-7083198D02*
X2336491Y-7073674D01*
X2336491Y-7073674D02*
X2384110Y-7073674D01*
X2384110Y-7073674D02*
X2403158Y-7083198D01*
X2403158Y-7083198D02*
X2412682Y-7092722D01*
X2412682Y-7092722D02*
X2422205Y-7111769D01*
X2422205Y-7111769D02*
X2422205Y-7159388D01*
X2422205Y-7159388D02*
X2412682Y-7178436D01*
X2412682Y-7178436D02*
X2403158Y-7187960D01*
X2403158Y-7187960D02*
X2384110Y-7197484D01*
X2384110Y-7197484D02*
X2336491Y-7197484D01*
X2336491Y-7197484D02*
X2317444Y-7187960D01*
X2317444Y-7187960D02*
X2307920Y-7178436D01*
X2507920Y-7197484D02*
X2507920Y-7064150D01*
X2507920Y-7083198D02*
X2517444Y-7073674D01*
X2517444Y-7073674D02*
X2536491Y-7064150D01*
X2536491Y-7064150D02*
X2565063Y-7064150D01*
X2565063Y-7064150D02*
X2584110Y-7073674D01*
X2584110Y-7073674D02*
X2593634Y-7092722D01*
X2593634Y-7092722D02*
X2593634Y-7197484D01*
X2593634Y-7092722D02*
X2603158Y-7073674D01*
X2603158Y-7073674D02*
X2622205Y-7064150D01*
X2622205Y-7064150D02*
X2650777Y-7064150D01*
X2650777Y-7064150D02*
X2669825Y-7073674D01*
X2669825Y-7073674D02*
X2679348Y-7092722D01*
X2679348Y-7092722D02*
X2679348Y-7197484D01*
X2774586Y-7197484D02*
X2774586Y-7064150D01*
X2774586Y-7083198D02*
X2784110Y-7073674D01*
X2784110Y-7073674D02*
X2803158Y-7064150D01*
X2803158Y-7064150D02*
X2831729Y-7064150D01*
X2831729Y-7064150D02*
X2850777Y-7073674D01*
X2850777Y-7073674D02*
X2860301Y-7092722D01*
X2860301Y-7092722D02*
X2860301Y-7197484D01*
X2860301Y-7092722D02*
X2869824Y-7073674D01*
X2869824Y-7073674D02*
X2888872Y-7064150D01*
X2888872Y-7064150D02*
X2917443Y-7064150D01*
X2917443Y-7064150D02*
X2936491Y-7073674D01*
X2936491Y-7073674D02*
X2946015Y-7092722D01*
X2946015Y-7092722D02*
X2946015Y-7197484D01*
X3336491Y-6987960D02*
X3165063Y-7245103D01*
X3593634Y-6997484D02*
X3612682Y-6997484D01*
X3612682Y-6997484D02*
X3631729Y-7007008D01*
X3631729Y-7007008D02*
X3641253Y-7016531D01*
X3641253Y-7016531D02*
X3650777Y-7035579D01*
X3650777Y-7035579D02*
X3660301Y-7073674D01*
X3660301Y-7073674D02*
X3660301Y-7121293D01*
X3660301Y-7121293D02*
X3650777Y-7159388D01*
X3650777Y-7159388D02*
X3641253Y-7178436D01*
X3641253Y-7178436D02*
X3631729Y-7187960D01*
X3631729Y-7187960D02*
X3612682Y-7197484D01*
X3612682Y-7197484D02*
X3593634Y-7197484D01*
X3593634Y-7197484D02*
X3574586Y-7187960D01*
X3574586Y-7187960D02*
X3565063Y-7178436D01*
X3565063Y-7178436D02*
X3555539Y-7159388D01*
X3555539Y-7159388D02*
X3546015Y-7121293D01*
X3546015Y-7121293D02*
X3546015Y-7073674D01*
X3546015Y-7073674D02*
X3555539Y-7035579D01*
X3555539Y-7035579D02*
X3565063Y-7016531D01*
X3565063Y-7016531D02*
X3574586Y-7007008D01*
X3574586Y-7007008D02*
X3593634Y-6997484D01*
X3746015Y-7178436D02*
X3755539Y-7187960D01*
X3755539Y-7187960D02*
X3746015Y-7197484D01*
X3746015Y-7197484D02*
X3736491Y-7187960D01*
X3736491Y-7187960D02*
X3746015Y-7178436D01*
X3746015Y-7178436D02*
X3746015Y-7197484D01*
X3879348Y-6997484D02*
X3898396Y-6997484D01*
X3898396Y-6997484D02*
X3917444Y-7007008D01*
X3917444Y-7007008D02*
X3926967Y-7016531D01*
X3926967Y-7016531D02*
X3936491Y-7035579D01*
X3936491Y-7035579D02*
X3946015Y-7073674D01*
X3946015Y-7073674D02*
X3946015Y-7121293D01*
X3946015Y-7121293D02*
X3936491Y-7159388D01*
X3936491Y-7159388D02*
X3926967Y-7178436D01*
X3926967Y-7178436D02*
X3917444Y-7187960D01*
X3917444Y-7187960D02*
X3898396Y-7197484D01*
X3898396Y-7197484D02*
X3879348Y-7197484D01*
X3879348Y-7197484D02*
X3860301Y-7187960D01*
X3860301Y-7187960D02*
X3850777Y-7178436D01*
X3850777Y-7178436D02*
X3841253Y-7159388D01*
X3841253Y-7159388D02*
X3831729Y-7121293D01*
X3831729Y-7121293D02*
X3831729Y-7073674D01*
X3831729Y-7073674D02*
X3841253Y-7035579D01*
X3841253Y-7035579D02*
X3850777Y-7016531D01*
X3850777Y-7016531D02*
X3860301Y-7007008D01*
X3860301Y-7007008D02*
X3879348Y-6997484D01*
X4126967Y-6997484D02*
X4031729Y-6997484D01*
X4031729Y-6997484D02*
X4022206Y-7092722D01*
X4022206Y-7092722D02*
X4031729Y-7083198D01*
X4031729Y-7083198D02*
X4050777Y-7073674D01*
X4050777Y-7073674D02*
X4098396Y-7073674D01*
X4098396Y-7073674D02*
X4117444Y-7083198D01*
X4117444Y-7083198D02*
X4126967Y-7092722D01*
X4126967Y-7092722D02*
X4136491Y-7111769D01*
X4136491Y-7111769D02*
X4136491Y-7159388D01*
X4136491Y-7159388D02*
X4126967Y-7178436D01*
X4126967Y-7178436D02*
X4117444Y-7187960D01*
X4117444Y-7187960D02*
X4098396Y-7197484D01*
X4098396Y-7197484D02*
X4050777Y-7197484D01*
X4050777Y-7197484D02*
X4031729Y-7187960D01*
X4031729Y-7187960D02*
X4022206Y-7178436D01*
X4326968Y-7197484D02*
X4212682Y-7197484D01*
X4269825Y-7197484D02*
X4269825Y-6997484D01*
X4269825Y-6997484D02*
X4250777Y-7026055D01*
X4250777Y-7026055D02*
X4231729Y-7045103D01*
X4231729Y-7045103D02*
X4212682Y-7054627D01*
X4450777Y-6997484D02*
X4469825Y-6997484D01*
X4469825Y-6997484D02*
X4488872Y-7007008D01*
X4488872Y-7007008D02*
X4498396Y-7016531D01*
X4498396Y-7016531D02*
X4507920Y-7035579D01*
X4507920Y-7035579D02*
X4517444Y-7073674D01*
X4517444Y-7073674D02*
X4517444Y-7121293D01*
X4517444Y-7121293D02*
X4507920Y-7159388D01*
X4507920Y-7159388D02*
X4498396Y-7178436D01*
X4498396Y-7178436D02*
X4488872Y-7187960D01*
X4488872Y-7187960D02*
X4469825Y-7197484D01*
X4469825Y-7197484D02*
X4450777Y-7197484D01*
X4450777Y-7197484D02*
X4431729Y-7187960D01*
X4431729Y-7187960D02*
X4422206Y-7178436D01*
X4422206Y-7178436D02*
X4412682Y-7159388D01*
X4412682Y-7159388D02*
X4403158Y-7121293D01*
X4403158Y-7121293D02*
X4403158Y-7073674D01*
X4403158Y-7073674D02*
X4412682Y-7035579D01*
X4412682Y-7035579D02*
X4422206Y-7016531D01*
X4422206Y-7016531D02*
X4431729Y-7007008D01*
X4431729Y-7007008D02*
X4450777Y-6997484D01*
X4593634Y-6997484D02*
X4593634Y-7035579D01*
X4669825Y-6997484D02*
X4669825Y-7035579D01*
X4965063Y-7273674D02*
X4955539Y-7264150D01*
X4955539Y-7264150D02*
X4936491Y-7235579D01*
X4936491Y-7235579D02*
X4926968Y-7216531D01*
X4926968Y-7216531D02*
X4917444Y-7187960D01*
X4917444Y-7187960D02*
X4907920Y-7140341D01*
X4907920Y-7140341D02*
X4907920Y-7102246D01*
X4907920Y-7102246D02*
X4917444Y-7054627D01*
X4917444Y-7054627D02*
X4926968Y-7026055D01*
X4926968Y-7026055D02*
X4936491Y-7007008D01*
X4936491Y-7007008D02*
X4955539Y-6978436D01*
X4955539Y-6978436D02*
X4965063Y-6968912D01*
X5126968Y-6997484D02*
X5088872Y-6997484D01*
X5088872Y-6997484D02*
X5069825Y-7007008D01*
X5069825Y-7007008D02*
X5060301Y-7016531D01*
X5060301Y-7016531D02*
X5041253Y-7045103D01*
X5041253Y-7045103D02*
X5031730Y-7083198D01*
X5031730Y-7083198D02*
X5031730Y-7159388D01*
X5031730Y-7159388D02*
X5041253Y-7178436D01*
X5041253Y-7178436D02*
X5050777Y-7187960D01*
X5050777Y-7187960D02*
X5069825Y-7197484D01*
X5069825Y-7197484D02*
X5107920Y-7197484D01*
X5107920Y-7197484D02*
X5126968Y-7187960D01*
X5126968Y-7187960D02*
X5136491Y-7178436D01*
X5136491Y-7178436D02*
X5146015Y-7159388D01*
X5146015Y-7159388D02*
X5146015Y-7111769D01*
X5146015Y-7111769D02*
X5136491Y-7092722D01*
X5136491Y-7092722D02*
X5126968Y-7083198D01*
X5126968Y-7083198D02*
X5107920Y-7073674D01*
X5107920Y-7073674D02*
X5069825Y-7073674D01*
X5069825Y-7073674D02*
X5050777Y-7083198D01*
X5050777Y-7083198D02*
X5041253Y-7092722D01*
X5041253Y-7092722D02*
X5031730Y-7111769D01*
X5384111Y-7197484D02*
X5384111Y-6997484D01*
X5469825Y-7197484D02*
X5469825Y-7092722D01*
X5469825Y-7092722D02*
X5460301Y-7073674D01*
X5460301Y-7073674D02*
X5441253Y-7064150D01*
X5441253Y-7064150D02*
X5412682Y-7064150D01*
X5412682Y-7064150D02*
X5393634Y-7073674D01*
X5393634Y-7073674D02*
X5384111Y-7083198D01*
X5593634Y-7197484D02*
X5574587Y-7187960D01*
X5574587Y-7187960D02*
X5565063Y-7178436D01*
X5565063Y-7178436D02*
X5555539Y-7159388D01*
X5555539Y-7159388D02*
X5555539Y-7102246D01*
X5555539Y-7102246D02*
X5565063Y-7083198D01*
X5565063Y-7083198D02*
X5574587Y-7073674D01*
X5574587Y-7073674D02*
X5593634Y-7064150D01*
X5593634Y-7064150D02*
X5622206Y-7064150D01*
X5622206Y-7064150D02*
X5641253Y-7073674D01*
X5641253Y-7073674D02*
X5650777Y-7083198D01*
X5650777Y-7083198D02*
X5660301Y-7102246D01*
X5660301Y-7102246D02*
X5660301Y-7159388D01*
X5660301Y-7159388D02*
X5650777Y-7178436D01*
X5650777Y-7178436D02*
X5641253Y-7187960D01*
X5641253Y-7187960D02*
X5622206Y-7197484D01*
X5622206Y-7197484D02*
X5593634Y-7197484D01*
X5774587Y-7197484D02*
X5755539Y-7187960D01*
X5755539Y-7187960D02*
X5746015Y-7168912D01*
X5746015Y-7168912D02*
X5746015Y-6997484D01*
X5926968Y-7187960D02*
X5907920Y-7197484D01*
X5907920Y-7197484D02*
X5869825Y-7197484D01*
X5869825Y-7197484D02*
X5850777Y-7187960D01*
X5850777Y-7187960D02*
X5841253Y-7168912D01*
X5841253Y-7168912D02*
X5841253Y-7092722D01*
X5841253Y-7092722D02*
X5850777Y-7073674D01*
X5850777Y-7073674D02*
X5869825Y-7064150D01*
X5869825Y-7064150D02*
X5907920Y-7064150D01*
X5907920Y-7064150D02*
X5926968Y-7073674D01*
X5926968Y-7073674D02*
X5936491Y-7092722D01*
X5936491Y-7092722D02*
X5936491Y-7111769D01*
X5936491Y-7111769D02*
X5841253Y-7130817D01*
X6012682Y-7187960D02*
X6031730Y-7197484D01*
X6031730Y-7197484D02*
X6069825Y-7197484D01*
X6069825Y-7197484D02*
X6088872Y-7187960D01*
X6088872Y-7187960D02*
X6098396Y-7168912D01*
X6098396Y-7168912D02*
X6098396Y-7159388D01*
X6098396Y-7159388D02*
X6088872Y-7140341D01*
X6088872Y-7140341D02*
X6069825Y-7130817D01*
X6069825Y-7130817D02*
X6041253Y-7130817D01*
X6041253Y-7130817D02*
X6022206Y-7121293D01*
X6022206Y-7121293D02*
X6012682Y-7102246D01*
X6012682Y-7102246D02*
X6012682Y-7092722D01*
X6012682Y-7092722D02*
X6022206Y-7073674D01*
X6022206Y-7073674D02*
X6041253Y-7064150D01*
X6041253Y-7064150D02*
X6069825Y-7064150D01*
X6069825Y-7064150D02*
X6088872Y-7073674D01*
X6165063Y-7273674D02*
X6174587Y-7264150D01*
X6174587Y-7264150D02*
X6193634Y-7235579D01*
X6193634Y-7235579D02*
X6203158Y-7216531D01*
X6203158Y-7216531D02*
X6212682Y-7187960D01*
X6212682Y-7187960D02*
X6222206Y-7140341D01*
X6222206Y-7140341D02*
X6222206Y-7102246D01*
X6222206Y-7102246D02*
X6212682Y-7054627D01*
X6212682Y-7054627D02*
X6203158Y-7026055D01*
X6203158Y-7026055D02*
X6193634Y-7007008D01*
X6193634Y-7007008D02*
X6174587Y-6978436D01*
X6174587Y-6978436D02*
X6165063Y-6968912D01*
X1190000Y-7270000D02*
X1390000Y-7470000D01*
X1390000Y-7270000D02*
X1190000Y-7470000D01*
X1390000Y-7370000D02*
G75*
G02*
X1190000Y-7370000I-100000J0D01*
G01*
X1190000Y-7370000D02*
G75*
G02*
X1390000Y-7370000I100000J0D01*
G01*
X1641253Y-7280531D02*
X1650777Y-7271008D01*
X1650777Y-7271008D02*
X1669824Y-7261484D01*
X1669824Y-7261484D02*
X1717443Y-7261484D01*
X1717443Y-7261484D02*
X1736491Y-7271008D01*
X1736491Y-7271008D02*
X1746015Y-7280531D01*
X1746015Y-7280531D02*
X1755539Y-7299579D01*
X1755539Y-7299579D02*
X1755539Y-7318627D01*
X1755539Y-7318627D02*
X1746015Y-7347198D01*
X1746015Y-7347198D02*
X1631729Y-7461484D01*
X1631729Y-7461484D02*
X1755539Y-7461484D01*
X1841253Y-7442436D02*
X1850777Y-7451960D01*
X1850777Y-7451960D02*
X1841253Y-7461484D01*
X1841253Y-7461484D02*
X1831729Y-7451960D01*
X1831729Y-7451960D02*
X1841253Y-7442436D01*
X1841253Y-7442436D02*
X1841253Y-7461484D01*
X1917443Y-7261484D02*
X2041253Y-7261484D01*
X2041253Y-7261484D02*
X1974586Y-7337674D01*
X1974586Y-7337674D02*
X2003158Y-7337674D01*
X2003158Y-7337674D02*
X2022205Y-7347198D01*
X2022205Y-7347198D02*
X2031729Y-7356722D01*
X2031729Y-7356722D02*
X2041253Y-7375769D01*
X2041253Y-7375769D02*
X2041253Y-7423388D01*
X2041253Y-7423388D02*
X2031729Y-7442436D01*
X2031729Y-7442436D02*
X2022205Y-7451960D01*
X2022205Y-7451960D02*
X2003158Y-7461484D01*
X2003158Y-7461484D02*
X1946015Y-7461484D01*
X1946015Y-7461484D02*
X1926967Y-7451960D01*
X1926967Y-7451960D02*
X1917443Y-7442436D01*
X2231729Y-7461484D02*
X2117444Y-7461484D01*
X2174586Y-7461484D02*
X2174586Y-7261484D01*
X2174586Y-7261484D02*
X2155539Y-7290055D01*
X2155539Y-7290055D02*
X2136491Y-7309103D01*
X2136491Y-7309103D02*
X2117444Y-7318627D01*
X2422205Y-7461484D02*
X2307920Y-7461484D01*
X2365063Y-7461484D02*
X2365063Y-7261484D01*
X2365063Y-7261484D02*
X2346015Y-7290055D01*
X2346015Y-7290055D02*
X2326967Y-7309103D01*
X2326967Y-7309103D02*
X2307920Y-7318627D01*
X2507920Y-7461484D02*
X2507920Y-7328150D01*
X2507920Y-7347198D02*
X2517444Y-7337674D01*
X2517444Y-7337674D02*
X2536491Y-7328150D01*
X2536491Y-7328150D02*
X2565063Y-7328150D01*
X2565063Y-7328150D02*
X2584110Y-7337674D01*
X2584110Y-7337674D02*
X2593634Y-7356722D01*
X2593634Y-7356722D02*
X2593634Y-7461484D01*
X2593634Y-7356722D02*
X2603158Y-7337674D01*
X2603158Y-7337674D02*
X2622205Y-7328150D01*
X2622205Y-7328150D02*
X2650777Y-7328150D01*
X2650777Y-7328150D02*
X2669825Y-7337674D01*
X2669825Y-7337674D02*
X2679348Y-7356722D01*
X2679348Y-7356722D02*
X2679348Y-7461484D01*
X2774586Y-7461484D02*
X2774586Y-7328150D01*
X2774586Y-7347198D02*
X2784110Y-7337674D01*
X2784110Y-7337674D02*
X2803158Y-7328150D01*
X2803158Y-7328150D02*
X2831729Y-7328150D01*
X2831729Y-7328150D02*
X2850777Y-7337674D01*
X2850777Y-7337674D02*
X2860301Y-7356722D01*
X2860301Y-7356722D02*
X2860301Y-7461484D01*
X2860301Y-7356722D02*
X2869824Y-7337674D01*
X2869824Y-7337674D02*
X2888872Y-7328150D01*
X2888872Y-7328150D02*
X2917443Y-7328150D01*
X2917443Y-7328150D02*
X2936491Y-7337674D01*
X2936491Y-7337674D02*
X2946015Y-7356722D01*
X2946015Y-7356722D02*
X2946015Y-7461484D01*
X3336491Y-7251960D02*
X3165063Y-7509103D01*
X3593634Y-7261484D02*
X3612682Y-7261484D01*
X3612682Y-7261484D02*
X3631729Y-7271008D01*
X3631729Y-7271008D02*
X3641253Y-7280531D01*
X3641253Y-7280531D02*
X3650777Y-7299579D01*
X3650777Y-7299579D02*
X3660301Y-7337674D01*
X3660301Y-7337674D02*
X3660301Y-7385293D01*
X3660301Y-7385293D02*
X3650777Y-7423388D01*
X3650777Y-7423388D02*
X3641253Y-7442436D01*
X3641253Y-7442436D02*
X3631729Y-7451960D01*
X3631729Y-7451960D02*
X3612682Y-7461484D01*
X3612682Y-7461484D02*
X3593634Y-7461484D01*
X3593634Y-7461484D02*
X3574586Y-7451960D01*
X3574586Y-7451960D02*
X3565063Y-7442436D01*
X3565063Y-7442436D02*
X3555539Y-7423388D01*
X3555539Y-7423388D02*
X3546015Y-7385293D01*
X3546015Y-7385293D02*
X3546015Y-7337674D01*
X3546015Y-7337674D02*
X3555539Y-7299579D01*
X3555539Y-7299579D02*
X3565063Y-7280531D01*
X3565063Y-7280531D02*
X3574586Y-7271008D01*
X3574586Y-7271008D02*
X3593634Y-7261484D01*
X3746015Y-7442436D02*
X3755539Y-7451960D01*
X3755539Y-7451960D02*
X3746015Y-7461484D01*
X3746015Y-7461484D02*
X3736491Y-7451960D01*
X3736491Y-7451960D02*
X3746015Y-7442436D01*
X3746015Y-7442436D02*
X3746015Y-7461484D01*
X3879348Y-7261484D02*
X3898396Y-7261484D01*
X3898396Y-7261484D02*
X3917444Y-7271008D01*
X3917444Y-7271008D02*
X3926967Y-7280531D01*
X3926967Y-7280531D02*
X3936491Y-7299579D01*
X3936491Y-7299579D02*
X3946015Y-7337674D01*
X3946015Y-7337674D02*
X3946015Y-7385293D01*
X3946015Y-7385293D02*
X3936491Y-7423388D01*
X3936491Y-7423388D02*
X3926967Y-7442436D01*
X3926967Y-7442436D02*
X3917444Y-7451960D01*
X3917444Y-7451960D02*
X3898396Y-7461484D01*
X3898396Y-7461484D02*
X3879348Y-7461484D01*
X3879348Y-7461484D02*
X3860301Y-7451960D01*
X3860301Y-7451960D02*
X3850777Y-7442436D01*
X3850777Y-7442436D02*
X3841253Y-7423388D01*
X3841253Y-7423388D02*
X3831729Y-7385293D01*
X3831729Y-7385293D02*
X3831729Y-7337674D01*
X3831729Y-7337674D02*
X3841253Y-7299579D01*
X3841253Y-7299579D02*
X3850777Y-7280531D01*
X3850777Y-7280531D02*
X3860301Y-7271008D01*
X3860301Y-7271008D02*
X3879348Y-7261484D01*
X4041253Y-7461484D02*
X4079348Y-7461484D01*
X4079348Y-7461484D02*
X4098396Y-7451960D01*
X4098396Y-7451960D02*
X4107920Y-7442436D01*
X4107920Y-7442436D02*
X4126967Y-7413865D01*
X4126967Y-7413865D02*
X4136491Y-7375769D01*
X4136491Y-7375769D02*
X4136491Y-7299579D01*
X4136491Y-7299579D02*
X4126967Y-7280531D01*
X4126967Y-7280531D02*
X4117444Y-7271008D01*
X4117444Y-7271008D02*
X4098396Y-7261484D01*
X4098396Y-7261484D02*
X4060301Y-7261484D01*
X4060301Y-7261484D02*
X4041253Y-7271008D01*
X4041253Y-7271008D02*
X4031729Y-7280531D01*
X4031729Y-7280531D02*
X4022206Y-7299579D01*
X4022206Y-7299579D02*
X4022206Y-7347198D01*
X4022206Y-7347198D02*
X4031729Y-7366246D01*
X4031729Y-7366246D02*
X4041253Y-7375769D01*
X4041253Y-7375769D02*
X4060301Y-7385293D01*
X4060301Y-7385293D02*
X4098396Y-7385293D01*
X4098396Y-7385293D02*
X4117444Y-7375769D01*
X4117444Y-7375769D02*
X4126967Y-7366246D01*
X4126967Y-7366246D02*
X4136491Y-7347198D01*
X4326968Y-7461484D02*
X4212682Y-7461484D01*
X4269825Y-7461484D02*
X4269825Y-7261484D01*
X4269825Y-7261484D02*
X4250777Y-7290055D01*
X4250777Y-7290055D02*
X4231729Y-7309103D01*
X4231729Y-7309103D02*
X4212682Y-7318627D01*
X4450777Y-7261484D02*
X4469825Y-7261484D01*
X4469825Y-7261484D02*
X4488872Y-7271008D01*
X4488872Y-7271008D02*
X4498396Y-7280531D01*
X4498396Y-7280531D02*
X4507920Y-7299579D01*
X4507920Y-7299579D02*
X4517444Y-7337674D01*
X4517444Y-7337674D02*
X4517444Y-7385293D01*
X4517444Y-7385293D02*
X4507920Y-7423388D01*
X4507920Y-7423388D02*
X4498396Y-7442436D01*
X4498396Y-7442436D02*
X4488872Y-7451960D01*
X4488872Y-7451960D02*
X4469825Y-7461484D01*
X4469825Y-7461484D02*
X4450777Y-7461484D01*
X4450777Y-7461484D02*
X4431729Y-7451960D01*
X4431729Y-7451960D02*
X4422206Y-7442436D01*
X4422206Y-7442436D02*
X4412682Y-7423388D01*
X4412682Y-7423388D02*
X4403158Y-7385293D01*
X4403158Y-7385293D02*
X4403158Y-7337674D01*
X4403158Y-7337674D02*
X4412682Y-7299579D01*
X4412682Y-7299579D02*
X4422206Y-7280531D01*
X4422206Y-7280531D02*
X4431729Y-7271008D01*
X4431729Y-7271008D02*
X4450777Y-7261484D01*
X4593634Y-7261484D02*
X4593634Y-7299579D01*
X4669825Y-7261484D02*
X4669825Y-7299579D01*
X4965063Y-7537674D02*
X4955539Y-7528150D01*
X4955539Y-7528150D02*
X4936491Y-7499579D01*
X4936491Y-7499579D02*
X4926968Y-7480531D01*
X4926968Y-7480531D02*
X4917444Y-7451960D01*
X4917444Y-7451960D02*
X4907920Y-7404341D01*
X4907920Y-7404341D02*
X4907920Y-7366246D01*
X4907920Y-7366246D02*
X4917444Y-7318627D01*
X4917444Y-7318627D02*
X4926968Y-7290055D01*
X4926968Y-7290055D02*
X4936491Y-7271008D01*
X4936491Y-7271008D02*
X4955539Y-7242436D01*
X4955539Y-7242436D02*
X4965063Y-7232912D01*
X5126968Y-7328150D02*
X5126968Y-7461484D01*
X5079349Y-7251960D02*
X5031730Y-7394817D01*
X5031730Y-7394817D02*
X5155539Y-7394817D01*
X5384111Y-7461484D02*
X5384111Y-7261484D01*
X5469825Y-7461484D02*
X5469825Y-7356722D01*
X5469825Y-7356722D02*
X5460301Y-7337674D01*
X5460301Y-7337674D02*
X5441253Y-7328150D01*
X5441253Y-7328150D02*
X5412682Y-7328150D01*
X5412682Y-7328150D02*
X5393634Y-7337674D01*
X5393634Y-7337674D02*
X5384111Y-7347198D01*
X5593634Y-7461484D02*
X5574587Y-7451960D01*
X5574587Y-7451960D02*
X5565063Y-7442436D01*
X5565063Y-7442436D02*
X5555539Y-7423388D01*
X5555539Y-7423388D02*
X5555539Y-7366246D01*
X5555539Y-7366246D02*
X5565063Y-7347198D01*
X5565063Y-7347198D02*
X5574587Y-7337674D01*
X5574587Y-7337674D02*
X5593634Y-7328150D01*
X5593634Y-7328150D02*
X5622206Y-7328150D01*
X5622206Y-7328150D02*
X5641253Y-7337674D01*
X5641253Y-7337674D02*
X5650777Y-7347198D01*
X5650777Y-7347198D02*
X5660301Y-7366246D01*
X5660301Y-7366246D02*
X5660301Y-7423388D01*
X5660301Y-7423388D02*
X5650777Y-7442436D01*
X5650777Y-7442436D02*
X5641253Y-7451960D01*
X5641253Y-7451960D02*
X5622206Y-7461484D01*
X5622206Y-7461484D02*
X5593634Y-7461484D01*
X5774587Y-7461484D02*
X5755539Y-7451960D01*
X5755539Y-7451960D02*
X5746015Y-7432912D01*
X5746015Y-7432912D02*
X5746015Y-7261484D01*
X5926968Y-7451960D02*
X5907920Y-7461484D01*
X5907920Y-7461484D02*
X5869825Y-7461484D01*
X5869825Y-7461484D02*
X5850777Y-7451960D01*
X5850777Y-7451960D02*
X5841253Y-7432912D01*
X5841253Y-7432912D02*
X5841253Y-7356722D01*
X5841253Y-7356722D02*
X5850777Y-7337674D01*
X5850777Y-7337674D02*
X5869825Y-7328150D01*
X5869825Y-7328150D02*
X5907920Y-7328150D01*
X5907920Y-7328150D02*
X5926968Y-7337674D01*
X5926968Y-7337674D02*
X5936491Y-7356722D01*
X5936491Y-7356722D02*
X5936491Y-7375769D01*
X5936491Y-7375769D02*
X5841253Y-7394817D01*
X6012682Y-7451960D02*
X6031730Y-7461484D01*
X6031730Y-7461484D02*
X6069825Y-7461484D01*
X6069825Y-7461484D02*
X6088872Y-7451960D01*
X6088872Y-7451960D02*
X6098396Y-7432912D01*
X6098396Y-7432912D02*
X6098396Y-7423388D01*
X6098396Y-7423388D02*
X6088872Y-7404341D01*
X6088872Y-7404341D02*
X6069825Y-7394817D01*
X6069825Y-7394817D02*
X6041253Y-7394817D01*
X6041253Y-7394817D02*
X6022206Y-7385293D01*
X6022206Y-7385293D02*
X6012682Y-7366246D01*
X6012682Y-7366246D02*
X6012682Y-7356722D01*
X6012682Y-7356722D02*
X6022206Y-7337674D01*
X6022206Y-7337674D02*
X6041253Y-7328150D01*
X6041253Y-7328150D02*
X6069825Y-7328150D01*
X6069825Y-7328150D02*
X6088872Y-7337674D01*
X6165063Y-7537674D02*
X6174587Y-7528150D01*
X6174587Y-7528150D02*
X6193634Y-7499579D01*
X6193634Y-7499579D02*
X6203158Y-7480531D01*
X6203158Y-7480531D02*
X6212682Y-7451960D01*
X6212682Y-7451960D02*
X6222206Y-7404341D01*
X6222206Y-7404341D02*
X6222206Y-7366246D01*
X6222206Y-7366246D02*
X6212682Y-7318627D01*
X6212682Y-7318627D02*
X6203158Y-7290055D01*
X6203158Y-7290055D02*
X6193634Y-7271008D01*
X6193634Y-7271008D02*
X6174587Y-7242436D01*
X6174587Y-7242436D02*
X6165063Y-7232912D01*
M02*
