M48
; DRILL file {KiCad 8.0.8} date 2025-03-28T23:27:34-0700
; FORMAT={-:-/ absolute / metric / decimal}
; #@! TF.CreationDate,2025-03-28T23:27:34-07:00
; #@! TF.GenerationSoftware,Kicad,Pcbnew,8.0.8
; #@! TF.FileFunction,Plated,1,2,PTH
FMAT,2
METRIC
; #@! TA.AperFunction,Plated,PTH,ViaDrill
T1C0.300
; #@! TA.AperFunction,Plated,PTH,ComponentDrill
T2C0.300
; #@! TA.AperFunction,Plated,PTH,ComponentDrill
T3C0.914
; #@! TA.AperFunction,Plated,PTH,ComponentDrill
T4C1.060
; #@! TA.AperFunction,Plated,PTH,ComponentDrill
T5C1.295
; #@! TA.AperFunction,Plated,PTH,ComponentDrill
T6C2.311
%
G90
G05
T1
X16.5Y-29.0
X16.5Y-34.0
X16.5Y-42.0
X18.6Y-24.6
X20.0Y-42.0
X22.5Y-29.0
X22.5Y-34.0
X23.0Y-25.3
X23.0Y-38.0
X23.5Y-43.0
X24.5Y-35.9
X24.7Y-46.4
X25.0Y-44.0
X25.0Y-44.8
X26.0Y-43.0
X26.1Y-47.0
X26.4Y-32.6
X26.5Y-17.0
X26.5Y-22.0
X26.5Y-25.0
X26.5Y-28.6
X26.5Y-46.5
X27.0Y-51.0
X27.6Y-43.0
X28.5Y-27.0
X28.5Y-33.5
X28.8Y-46.5
X29.1Y-43.0
X29.2Y-47.0
X29.5Y-35.3
X29.8Y-29.9
X30.0Y-45.0
X30.0Y-46.1
X30.1Y-43.8
X30.5Y-17.0
X30.5Y-22.0
X30.5Y-40.9
X31.0Y-27.0
X31.0Y-29.0
X31.0Y-42.0
X31.1Y-25.0
X31.8Y-44.8
X32.0Y-29.6
X32.0Y-31.0
X32.2Y-27.0
X32.2Y-33.8
X32.5Y-36.5
X33.0Y-51.0
X33.1Y-43.6
X33.2Y-27.0
X33.2Y-42.8
X33.4Y-29.6
X33.5Y-19.5
X33.5Y-22.0
X33.8Y-40.9
X34.0Y-28.0
X34.0Y-46.0
X34.1Y-25.0
X34.3Y-32.0
X34.5Y-18.0
X34.5Y-21.0
X34.8Y-29.6
X34.8Y-33.0
X34.8Y-35.3
X34.8Y-36.1
X35.1Y-26.8
X35.4Y-42.2
X35.6Y-24.7
X35.6Y-30.4
X35.8Y-28.4
X35.9Y-40.4
X36.5Y-17.0
X36.5Y-18.0
X36.5Y-21.0
X36.5Y-27.0
X36.6Y-24.3
X36.7Y-41.2
X37.0Y-29.4
X37.2Y-18.6
X37.2Y-28.6
X37.339Y-42.261
X37.39Y-44.009
X37.5Y-20.5
X37.7Y-24.2
X38.0Y-35.0
X38.0Y-35.9
X38.0Y-51.0
X38.2Y-30.4
X38.4Y-42.8
X38.7Y-21.1
X38.7Y-28.6
X38.7Y-44.9
X38.8Y-22.1
X38.8Y-22.9
X38.9Y-34.35
X39.3Y-27.0
X39.5Y-28.5
X39.5Y-30.5
X39.6Y-47.5
X39.6Y-49.5
X39.8Y-18.8
X39.8Y-44.9
X40.5Y-34.35
X40.7Y-19.6
X41.2Y-42.8
X41.3Y-47.0
X41.5Y-17.0
X41.5Y-20.5
X41.5Y-49.6
X42.0Y-21.6
X42.0Y-22.7
X42.0Y-23.7
X42.1Y-46.0
X42.4Y-42.8
X42.4Y-48.5
X42.8Y-24.4
X43.0Y-27.2
X43.0Y-28.2
X43.0Y-29.2
X43.0Y-30.1
X43.45Y-47.8
X43.5Y-44.4
X43.65Y-24.65
X43.7Y-42.8
X43.75Y-26.65
X44.0Y-20.0
X44.0Y-23.0
X44.1Y-29.7
X44.7Y-46.45
X44.75Y-51.15
X44.9Y-34.45
X45.0Y-16.8
X45.0Y-27.0
X45.0Y-48.0
X45.3Y-45.6
X45.4Y-28.5
X45.7Y-43.9
X45.8Y-31.2
X45.8Y-32.1
X45.8Y-41.1
X46.6Y-30.7
X47.2Y-29.8
X47.3Y-40.1
X47.3Y-46.0
X47.4Y-21.0
X47.4Y-28.3
X47.4Y-51.1
X47.7Y-30.7
X47.9Y-39.2
X48.5Y-16.8
X49.0Y-41.0
X49.5Y-21.0
X50.2Y-29.7
X50.5Y-24.0
X50.5Y-46.0
X50.5Y-51.0
X51.1Y-29.7
X51.3Y-32.6
X52.0Y-27.0
X52.0Y-28.8
X52.0Y-30.0
X52.0Y-32.0
X52.0Y-33.2
X52.0Y-35.4
X52.0Y-37.3
X52.0Y-41.0
X52.0Y-43.0
X53.5Y-17.0
X53.5Y-21.0
X53.5Y-26.5
X53.5Y-41.5
X54.5Y-26.5
X54.5Y-41.5
X56.0Y-41.0
X56.0Y-43.0
X56.4Y-26.9
X56.5Y-28.7
X56.5Y-30.0
X56.5Y-32.0
X56.5Y-34.0
X56.5Y-36.0
X56.5Y-38.0
X57.5Y-17.0
X57.5Y-23.0
X57.5Y-46.0
X57.5Y-51.0
X58.1Y-20.8
X59.4Y-35.3
X59.5Y-31.0
X59.5Y-37.0
X62.3Y-30.7
X62.5Y-17.0
X62.5Y-23.0
X62.5Y-35.0
X62.5Y-37.0
X62.5Y-46.0
X62.5Y-51.0
X63.0Y-20.0
X64.0Y-28.0
X65.0Y-39.7
X65.6Y-33.9
X66.5Y-42.2
X66.7Y-25.8
X67.5Y-31.3
X67.5Y-37.0
X70.0Y-40.0
X70.8Y-28.6
X72.5Y-26.0
X72.5Y-37.0
X72.5Y-42.0
X72.8Y-30.2
T2
X34.21Y-37.76
X34.21Y-38.94
X34.8Y-38.35
X35.39Y-37.76
X35.39Y-38.94
T3
X50.593Y-40.051
X50.657Y-27.949
X53.093Y-40.051
X53.157Y-27.949
X55.093Y-40.051
X55.158Y-27.949
X57.593Y-40.051
X57.658Y-27.949
T4
X16.575Y-40.415
X21.825Y-40.415
T5
X19.525Y-28.927
X19.525Y-34.007
X30.427Y-19.475
X32.927Y-48.475
X35.507Y-19.475
X38.007Y-48.475
T6
X47.523Y-42.761
X47.588Y-25.239
X60.662Y-42.761
X60.727Y-25.239
M30
