M48
; DRILL file {KiCad 8.0.8} date 2025-03-29T15:23:25-0700
; FORMAT={-:-/ absolute / metric / decimal}
; #@! TF.CreationDate,2025-03-29T15:23:25-07:00
; #@! TF.GenerationSoftware,Kicad,Pcbnew,8.0.8
; #@! TF.FileFunction,Plated,1,2,PTH
FMAT,2
METRIC
; #@! TA.AperFunction,Plated,PTH,ViaDrill
T1C0.300
; #@! TA.AperFunction,Plated,PTH,ComponentDrill
T2C0.300
; #@! TA.AperFunction,Plated,PTH,ComponentDrill
T3C0.914
; #@! TA.AperFunction,Plated,PTH,ComponentDrill
T4C1.060
; #@! TA.AperFunction,Plated,PTH,ComponentDrill
T5C1.295
; #@! TA.AperFunction,Plated,PTH,ComponentDrill
T6C2.311
%
G90
G05
T1
X15.2Y-39.6
X15.2Y-41.4
X16.5Y-29.0
X16.6Y-38.4
X16.6Y-42.4
X17.0Y-34.0
X17.6Y-32.8
X17.6Y-35.2
X17.6Y-36.2
X17.6Y-37.4
X18.0Y-41.6
X18.6Y-32.0
X19.8Y-39.4
X19.8Y-41.8
X20.2Y-40.4
X20.4Y-32.0
X20.6Y-38.4
X21.0Y-37.4
X21.4Y-32.8
X21.4Y-35.2
X21.4Y-36.2
X21.8Y-42.2
X22.0Y-34.0
X22.5Y-29.0
X23.0Y-25.3
X23.0Y-38.0
X23.2Y-42.2
X23.5Y-43.0
X24.5Y-35.9
X24.7Y-46.4
X25.0Y-44.0
X25.0Y-44.8
X26.0Y-43.0
X26.1Y-47.2
X26.4Y-30.6
X26.4Y-32.6
X26.5Y-17.0
X26.5Y-22.0
X26.5Y-25.0
X26.5Y-28.6
X26.5Y-46.7
X27.0Y-51.0
X27.6Y-43.0
X28.5Y-27.0
X28.6Y-28.4
X28.8Y-46.7
X29.1Y-43.0
X29.2Y-47.2
X29.5Y-35.3
X29.8Y-30.0
X30.1Y-43.8
X30.5Y-17.0
X30.5Y-22.0
X30.5Y-40.9
X30.8Y-26.8
X30.8Y-45.0
X30.8Y-46.1
X31.0Y-42.0
X31.1Y-25.0
X31.6Y-29.4
X31.8Y-44.8
X32.0Y-26.2
X32.0Y-31.0
X32.2Y-33.8
X32.5Y-36.5
X33.0Y-29.6
X33.0Y-41.6
X33.0Y-51.0
X33.2Y-26.2
X33.2Y-42.8
X33.2Y-43.6
X33.4Y-19.5
X33.5Y-22.0
X34.1Y-25.0
X34.2Y-26.6
X34.2Y-27.8
X34.5Y-17.6
X34.6Y-21.2
X34.6Y-29.8
X34.6Y-42.2
X34.8Y-31.8
X34.8Y-33.0
X34.8Y-34.6
X34.8Y-36.1
X35.0Y-45.0
X35.1Y-26.8
X35.2Y-24.2
X35.6Y-30.6
X36.0Y-26.8
X36.2Y-17.6
X36.2Y-40.4
X36.2Y-48.0
X36.2Y-49.2
X36.4Y-21.2
X36.4Y-24.2
X36.6Y-28.8
X36.8Y-44.6
X37.0Y-18.4
X37.0Y-41.4
X37.4Y-20.7
X37.4Y-46.6
X37.4Y-50.2
X37.6Y-24.2
X38.0Y-41.0
X38.1Y-30.5
X38.2Y-35.0
X38.2Y-35.9
X38.4Y-42.8
X38.6Y-46.6
X38.6Y-50.2
X38.7Y-21.1
X38.7Y-44.9
X38.8Y-22.1
X38.8Y-22.9
X38.9Y-29.6
X39.0Y-34.288
X39.2Y-28.5
X39.3Y-27.0
X39.8Y-44.9
X40.0Y-18.8
X40.0Y-46.8
X40.0Y-50.0
X40.5Y-34.35
X40.8Y-19.6
X41.2Y-42.8
X41.4Y-46.2
X41.5Y-16.8
X41.6Y-20.4
X42.0Y-49.8
X42.2Y-21.4
X42.2Y-22.5
X42.2Y-24.0
X42.4Y-42.8
X43.0Y-48.8
X43.2Y-24.0
X43.2Y-27.2
X43.2Y-28.2
X43.2Y-29.2
X43.2Y-30.2
X43.5Y-44.4
X43.7Y-42.8
X44.0Y-20.0
X44.0Y-47.8
X44.2Y-22.8
X44.2Y-26.8
X44.75Y-51.15
X44.8Y-46.8
X44.9Y-34.45
X45.0Y-16.8
X45.2Y-24.0
X45.3Y-25.6
X45.6Y-31.8
X45.6Y-32.6
X45.6Y-45.8
X45.7Y-43.9
X45.8Y-27.0
X45.8Y-28.2
X45.8Y-29.4
X46.1Y-41.1
X47.4Y-51.1
X47.6Y-39.6
X48.0Y-44.75
X49.0Y-39.6
X49.5Y-21.0
X50.2Y-32.0
X50.2Y-35.2
X50.5Y-46.0
X50.5Y-51.0
X50.6Y-37.2
X51.0Y-30.0
X51.0Y-31.0
X51.4Y-17.0
X51.6Y-38.2
X51.8Y-28.6
X51.8Y-32.0
X51.8Y-35.2
X52.0Y-26.6
X52.0Y-41.5
X52.0Y-43.4
X53.5Y-21.0
X53.5Y-26.2
X53.5Y-42.0
X54.5Y-42.0
X54.6Y-26.2
X55.8Y-17.0
X56.0Y-41.5
X56.0Y-43.4
X56.4Y-26.6
X56.5Y-28.7
X57.0Y-30.0
X57.0Y-32.0
X57.0Y-33.8
X57.0Y-36.0
X57.0Y-38.0
X57.4Y-21.0
X57.5Y-46.0
X57.5Y-51.0
X57.6Y-41.8
X58.5Y-38.0
X59.4Y-35.3
X59.5Y-31.0
X59.5Y-37.0
X62.3Y-30.7
X62.5Y-23.0
X62.5Y-35.0
X62.5Y-37.0
X62.5Y-46.0
X62.5Y-51.0
X64.0Y-28.0
X65.0Y-39.8
X65.5Y-33.25
X65.5Y-34.25
X66.5Y-35.25
X66.5Y-36.25
X66.5Y-42.2
X67.5Y-31.3
X67.5Y-32.0
X67.5Y-37.0
X68.8Y-31.2
X69.5Y-37.0
X70.0Y-39.8
X70.5Y-37.0
X70.8Y-28.6
X72.25Y-37.0
X72.5Y-42.0
X72.8Y-30.2
X73.0Y-37.0
T2
X34.21Y-37.76
X34.21Y-38.94
X34.8Y-38.35
X35.39Y-37.76
X35.39Y-38.94
T3
X50.593Y-40.051
X50.657Y-27.949
X53.093Y-40.051
X53.157Y-27.949
X55.093Y-40.051
X55.158Y-27.949
X57.593Y-40.051
X57.658Y-27.949
T4
X16.575Y-40.415
X21.825Y-40.415
T5
X19.525Y-28.927
X19.525Y-34.007
X30.427Y-19.475
X32.927Y-48.475
X35.507Y-19.475
X38.007Y-48.475
T6
X47.523Y-42.761
X47.588Y-25.239
X60.662Y-42.761
X60.727Y-25.239
M30
