G04 #@! TF.GenerationSoftware,KiCad,Pcbnew,8.0.8*
G04 #@! TF.CreationDate,2025-03-28T18:21:51-07:00*
G04 #@! TF.ProjectId,RCA Radio Telescope,52434120-5261-4646-996f-2054656c6573,1.9*
G04 #@! TF.SameCoordinates,Original*
G04 #@! TF.FileFunction,Copper,L2,Bot*
G04 #@! TF.FilePolarity,Positive*
%FSLAX46Y46*%
G04 Gerber Fmt 4.6, Leading zero omitted, Abs format (unit mm)*
G04 Created by KiCad (PCBNEW 8.0.8) date 2025-03-28 18:21:51*
%MOMM*%
%LPD*%
G01*
G04 APERTURE LIST*
G04 #@! TA.AperFunction,ComponentPad*
%ADD10C,1.422400*%
G04 #@! TD*
G04 #@! TA.AperFunction,ComponentPad*
%ADD11C,2.800000*%
G04 #@! TD*
G04 #@! TA.AperFunction,ComponentPad*
%ADD12C,1.360000*%
G04 #@! TD*
G04 #@! TA.AperFunction,ComponentPad*
%ADD13C,1.803400*%
G04 #@! TD*
G04 #@! TA.AperFunction,ComponentPad*
%ADD14C,0.499999*%
G04 #@! TD*
G04 #@! TA.AperFunction,SMDPad,CuDef*
%ADD15C,1.000000*%
G04 #@! TD*
G04 #@! TA.AperFunction,ViaPad*
%ADD16C,0.600000*%
G04 #@! TD*
G04 #@! TA.AperFunction,Conductor*
%ADD17C,1.000000*%
G04 #@! TD*
G04 APERTURE END LIST*
D10*
X50592500Y-40050600D03*
X53092500Y-40050600D03*
X55092501Y-40050600D03*
D11*
X47522501Y-42760600D03*
D10*
X57592501Y-40050600D03*
D11*
X60662500Y-42760600D03*
D10*
X57657501Y-27949400D03*
X55157501Y-27949400D03*
X53157500Y-27949400D03*
D11*
X60727500Y-25239400D03*
D10*
X50657500Y-27949400D03*
D11*
X47587501Y-25239400D03*
D12*
X21825000Y-40415000D03*
X16575000Y-40415000D03*
D13*
X19525000Y-34006600D03*
X19525000Y-28926600D03*
X38006600Y-48475001D03*
X32926600Y-48475001D03*
D14*
X34210001Y-38939998D03*
X34210001Y-37760001D03*
X35389998Y-37760001D03*
X35389998Y-38939998D03*
X34799999Y-38350000D03*
D13*
X35506600Y-19475001D03*
X30426600Y-19475001D03*
D15*
X53100000Y-35700000D03*
D16*
X24500000Y-35900000D03*
X28500000Y-33500000D03*
X72500000Y-37000000D03*
X54500000Y-41500000D03*
X35100000Y-42300000D03*
X53500000Y-21000000D03*
X39500000Y-28500000D03*
X64000000Y-28000000D03*
X36700000Y-41200000D03*
X35800000Y-42700000D03*
X41500000Y-20500000D03*
X52000000Y-41000000D03*
X45400000Y-30100000D03*
X53500000Y-17000000D03*
X26500000Y-25000000D03*
X35900000Y-40400000D03*
X34300000Y-32000000D03*
X40500000Y-34350000D03*
X39800000Y-44900000D03*
X66700000Y-25800000D03*
X23000000Y-25300000D03*
X40500000Y-42800000D03*
X42000000Y-42800000D03*
X34500000Y-21000000D03*
X16500000Y-34000000D03*
X43650000Y-24650000D03*
X34000000Y-46000000D03*
X34900000Y-30400000D03*
X52000000Y-37300000D03*
X18600000Y-24600000D03*
X47400000Y-30000000D03*
X56000000Y-41000000D03*
X39600000Y-49500000D03*
X44700000Y-46450000D03*
X27000000Y-51000000D03*
X52000000Y-35400000D03*
X26400000Y-32600000D03*
X36500000Y-27000000D03*
X26500000Y-28600000D03*
X50500000Y-24000000D03*
X57500000Y-17000000D03*
X42400000Y-48500000D03*
X25000000Y-44800000D03*
X23500000Y-43000000D03*
X45700000Y-43900000D03*
X36500000Y-17000000D03*
X52000000Y-43000000D03*
X33500000Y-22000000D03*
X52000000Y-33200000D03*
X47900000Y-39200000D03*
X45800000Y-41100000D03*
X70800000Y-28600000D03*
X34800000Y-33000000D03*
X42100000Y-46000000D03*
X43000000Y-29000000D03*
X52000000Y-30000000D03*
X52000000Y-27000000D03*
X36500000Y-18000000D03*
X33000000Y-51000000D03*
X39300000Y-27000000D03*
X56500000Y-28700000D03*
X28500000Y-27000000D03*
X59500000Y-31000000D03*
X54500000Y-26500000D03*
X56500000Y-34000000D03*
X38700000Y-44900000D03*
X57500000Y-51000000D03*
X33800000Y-40900000D03*
X43700000Y-42800000D03*
X38800000Y-22900000D03*
X44750000Y-51150000D03*
X45000000Y-48000000D03*
X38400000Y-42800000D03*
X56500000Y-38000000D03*
X44900000Y-34450000D03*
X40700000Y-19600000D03*
X45300000Y-45600000D03*
X37339265Y-42260735D03*
X22500000Y-29000000D03*
X47300000Y-40100000D03*
X38000000Y-35000000D03*
X63000000Y-20000000D03*
X22500000Y-34000000D03*
X45000000Y-16800000D03*
X65600000Y-33900000D03*
X43450000Y-47800000D03*
X62500000Y-35000000D03*
X37500000Y-44800000D03*
X29500000Y-35300000D03*
X41500000Y-49600000D03*
X26000000Y-43000000D03*
X23000000Y-38000000D03*
X26500000Y-46500000D03*
X72500000Y-26000000D03*
X56500000Y-32000000D03*
X43500000Y-44400000D03*
X30500000Y-22000000D03*
X45600000Y-32150000D03*
X44000000Y-20000000D03*
X49500000Y-21000000D03*
X59400000Y-35300000D03*
X38700000Y-28600000D03*
X62500000Y-17000000D03*
X39600000Y-47500000D03*
X42000000Y-23700000D03*
X70000000Y-40000000D03*
X52000000Y-28800000D03*
X41500000Y-17000000D03*
X38000000Y-51000000D03*
X38900000Y-34350000D03*
X43000000Y-27000000D03*
X24700000Y-46400000D03*
X56000000Y-43000000D03*
X31100000Y-25000000D03*
X38800000Y-22100000D03*
X30500000Y-17000000D03*
X59500000Y-37000000D03*
X41300000Y-47000000D03*
X56400000Y-26900000D03*
X31000000Y-42000000D03*
X56500000Y-30000000D03*
X62300000Y-30700000D03*
X47300000Y-46000000D03*
X32000000Y-27000000D03*
X57500000Y-46000000D03*
X48500000Y-16800000D03*
X57500000Y-23000000D03*
X32000000Y-31000000D03*
X29200000Y-47000000D03*
X26500000Y-22000000D03*
X20000000Y-42000000D03*
X37200000Y-18600000D03*
X53500000Y-26500000D03*
X30000000Y-45000000D03*
X35100000Y-26800000D03*
X26100000Y-47000000D03*
X39500000Y-30500000D03*
X42000000Y-21600000D03*
X42800000Y-30100000D03*
X34800000Y-36100000D03*
X45400000Y-28500000D03*
X72500000Y-42000000D03*
X67500000Y-31300000D03*
X26500000Y-17000000D03*
X34500000Y-18000000D03*
X35600000Y-24700000D03*
X65000000Y-39700000D03*
X36400000Y-43700000D03*
X27600000Y-43000000D03*
X38700000Y-21100000D03*
X49000000Y-41000000D03*
X36600000Y-24300000D03*
X62500000Y-23000000D03*
X62500000Y-51000000D03*
X42000000Y-22700000D03*
X66500000Y-42200000D03*
X67500000Y-37000000D03*
X47400000Y-21000000D03*
X47400000Y-28300000D03*
X45000000Y-27000000D03*
X25000000Y-44000000D03*
X37700000Y-24200000D03*
X62500000Y-46000000D03*
X52000000Y-32000000D03*
X43000000Y-28000000D03*
X38000000Y-35900000D03*
X32500000Y-36500000D03*
X16500000Y-29000000D03*
X47400000Y-51100000D03*
X58100000Y-20800000D03*
X30000000Y-46100000D03*
X42800000Y-24400000D03*
X53500000Y-41500000D03*
X38200000Y-30400000D03*
X39800000Y-18800000D03*
X34100000Y-25000000D03*
X43750000Y-26650000D03*
X37500000Y-20500000D03*
X35900000Y-28500000D03*
X44000000Y-23000000D03*
X16500000Y-42000000D03*
X50500000Y-46000000D03*
X36500000Y-21000000D03*
X56500000Y-36000000D03*
X30500000Y-29000000D03*
X37300000Y-28600000D03*
X28800000Y-46500000D03*
X33100000Y-43600000D03*
X33500000Y-19500000D03*
X50500000Y-51000000D03*
X72800000Y-30200000D03*
X30100000Y-43800000D03*
X33600000Y-28300000D03*
X29100000Y-43000000D03*
X62500000Y-37000000D03*
D17*
X55250000Y-32250000D02*
X55250000Y-28041899D01*
X53092500Y-35500000D02*
X53092500Y-40050600D01*
X53092500Y-35000000D02*
X53092500Y-35500000D01*
X53092500Y-35000000D02*
X53092500Y-34407500D01*
X55250000Y-28041899D02*
X55157501Y-27949400D01*
X53092500Y-34407500D02*
X55250000Y-32250000D01*
G04 #@! TA.AperFunction,Conductor*
G36*
X72002684Y-14500692D02*
G01*
X72208039Y-14515379D01*
X72218640Y-14516902D01*
X72417213Y-14560099D01*
X72427488Y-14563116D01*
X72564283Y-14614138D01*
X72617877Y-14634128D01*
X72627636Y-14638585D01*
X72805968Y-14735961D01*
X72814995Y-14741762D01*
X72977664Y-14863535D01*
X72985772Y-14870562D01*
X73129437Y-15014227D01*
X73136464Y-15022335D01*
X73258237Y-15185004D01*
X73264038Y-15194031D01*
X73361414Y-15372363D01*
X73365871Y-15382122D01*
X73436882Y-15572508D01*
X73439902Y-15582795D01*
X73483094Y-15781343D01*
X73484620Y-15791963D01*
X73499308Y-15997315D01*
X73499500Y-16002680D01*
X73499500Y-51997319D01*
X73499308Y-52002684D01*
X73484620Y-52208036D01*
X73483094Y-52218656D01*
X73439905Y-52417196D01*
X73436882Y-52427491D01*
X73365871Y-52617877D01*
X73361414Y-52627636D01*
X73264038Y-52805968D01*
X73258237Y-52814995D01*
X73136464Y-52977664D01*
X73129437Y-52985772D01*
X72985772Y-53129437D01*
X72977664Y-53136464D01*
X72814995Y-53258237D01*
X72805968Y-53264038D01*
X72627636Y-53361414D01*
X72617877Y-53365871D01*
X72427491Y-53436882D01*
X72417200Y-53439903D01*
X72218654Y-53483094D01*
X72208036Y-53484620D01*
X72002684Y-53499308D01*
X71997319Y-53499500D01*
X16002681Y-53499500D01*
X15997316Y-53499308D01*
X15791963Y-53484620D01*
X15781347Y-53483094D01*
X15582795Y-53439902D01*
X15572508Y-53436882D01*
X15382122Y-53365871D01*
X15372363Y-53361414D01*
X15194031Y-53264038D01*
X15185004Y-53258237D01*
X15022335Y-53136464D01*
X15014227Y-53129437D01*
X14870562Y-52985772D01*
X14863535Y-52977664D01*
X14741762Y-52814995D01*
X14735961Y-52805968D01*
X14638585Y-52627636D01*
X14634128Y-52617877D01*
X14563117Y-52427491D01*
X14560099Y-52417213D01*
X14516902Y-52218640D01*
X14515379Y-52208036D01*
X14500692Y-52002684D01*
X14500500Y-51997319D01*
X14500500Y-48000000D01*
X16494696Y-48000000D01*
X16513897Y-48366403D01*
X16571293Y-48728786D01*
X16571294Y-48728788D01*
X16571295Y-48728794D01*
X16659430Y-49057716D01*
X16666260Y-49083206D01*
X16797741Y-49425730D01*
X16797742Y-49425731D01*
X16964317Y-49752651D01*
X17164149Y-50060366D01*
X17164155Y-50060375D01*
X17395047Y-50345501D01*
X17395064Y-50345520D01*
X17654479Y-50604935D01*
X17654488Y-50604943D01*
X17654494Y-50604949D01*
X17654498Y-50604952D01*
X17939624Y-50835844D01*
X17939631Y-50835849D01*
X17939634Y-50835851D01*
X18247348Y-51035682D01*
X18574268Y-51202257D01*
X18574269Y-51202258D01*
X18916793Y-51333739D01*
X18916801Y-51333742D01*
X19271206Y-51428705D01*
X19633596Y-51486102D01*
X20000000Y-51505304D01*
X20366404Y-51486102D01*
X20728794Y-51428705D01*
X21083199Y-51333742D01*
X21189364Y-51292989D01*
X21425730Y-51202258D01*
X21425731Y-51202257D01*
X21425731Y-51202256D01*
X21425736Y-51202255D01*
X21752652Y-51035682D01*
X22060366Y-50835851D01*
X22345506Y-50604949D01*
X22604949Y-50345506D01*
X22835851Y-50060366D01*
X23035682Y-49752652D01*
X23202255Y-49425736D01*
X23202257Y-49425731D01*
X23202258Y-49425730D01*
X23292989Y-49189364D01*
X23333742Y-49083199D01*
X23428705Y-48728794D01*
X23468902Y-48475001D01*
X31867400Y-48475001D01*
X31887751Y-48681637D01*
X31948027Y-48880340D01*
X32024547Y-49023500D01*
X32327318Y-48720728D01*
X32352616Y-48781802D01*
X32423499Y-48887886D01*
X32513715Y-48978102D01*
X32619799Y-49048985D01*
X32680870Y-49074281D01*
X32378099Y-49377052D01*
X32521260Y-49453573D01*
X32719965Y-49513849D01*
X32719961Y-49513849D01*
X32926600Y-49534200D01*
X33133236Y-49513849D01*
X33331938Y-49453573D01*
X33475099Y-49377052D01*
X33172328Y-49074281D01*
X33233401Y-49048985D01*
X33339485Y-48978102D01*
X33429701Y-48887886D01*
X33500584Y-48781802D01*
X33525880Y-48720729D01*
X33828651Y-49023500D01*
X33905172Y-48880339D01*
X33965448Y-48681637D01*
X33985799Y-48475001D01*
X33985799Y-48474998D01*
X36899678Y-48474998D01*
X36899678Y-48475003D01*
X36918525Y-48678401D01*
X36974424Y-48874865D01*
X36974426Y-48874868D01*
X37065473Y-49057716D01*
X37188571Y-49220726D01*
X37188574Y-49220729D01*
X37339527Y-49358342D01*
X37339529Y-49358343D01*
X37339530Y-49358344D01*
X37379491Y-49383087D01*
X37513198Y-49465875D01*
X37513200Y-49465875D01*
X37513202Y-49465877D01*
X37703676Y-49539667D01*
X37904466Y-49577201D01*
X37904471Y-49577201D01*
X38108729Y-49577201D01*
X38108734Y-49577201D01*
X38309524Y-49539667D01*
X38499998Y-49465877D01*
X38673670Y-49358344D01*
X38824625Y-49220730D01*
X38947724Y-49057720D01*
X39038774Y-48874867D01*
X39051952Y-48828554D01*
X39094674Y-48678401D01*
X39094674Y-48678400D01*
X39094675Y-48678397D01*
X39113522Y-48475001D01*
X39094675Y-48271605D01*
X39093753Y-48268364D01*
X39038775Y-48075136D01*
X39038773Y-48075133D01*
X39001361Y-48000000D01*
X64494696Y-48000000D01*
X64513897Y-48366403D01*
X64571293Y-48728786D01*
X64571294Y-48728788D01*
X64571295Y-48728794D01*
X64659430Y-49057716D01*
X64666260Y-49083206D01*
X64797741Y-49425730D01*
X64797742Y-49425731D01*
X64964317Y-49752651D01*
X65164149Y-50060366D01*
X65164155Y-50060375D01*
X65395047Y-50345501D01*
X65395064Y-50345520D01*
X65654479Y-50604935D01*
X65654488Y-50604943D01*
X65654494Y-50604949D01*
X65654498Y-50604952D01*
X65939624Y-50835844D01*
X65939631Y-50835849D01*
X65939634Y-50835851D01*
X66247348Y-51035682D01*
X66574268Y-51202257D01*
X66574269Y-51202258D01*
X66916793Y-51333739D01*
X66916801Y-51333742D01*
X67271206Y-51428705D01*
X67633596Y-51486102D01*
X68000000Y-51505304D01*
X68366404Y-51486102D01*
X68728794Y-51428705D01*
X69083199Y-51333742D01*
X69189364Y-51292989D01*
X69425730Y-51202258D01*
X69425731Y-51202257D01*
X69425731Y-51202256D01*
X69425736Y-51202255D01*
X69752652Y-51035682D01*
X70060366Y-50835851D01*
X70345506Y-50604949D01*
X70604949Y-50345506D01*
X70835851Y-50060366D01*
X71035682Y-49752652D01*
X71202255Y-49425736D01*
X71202257Y-49425731D01*
X71202258Y-49425730D01*
X71292989Y-49189364D01*
X71333742Y-49083199D01*
X71428705Y-48728794D01*
X71486102Y-48366404D01*
X71505304Y-48000000D01*
X71486102Y-47633596D01*
X71428705Y-47271206D01*
X71333742Y-46916801D01*
X71333739Y-46916793D01*
X71202258Y-46574269D01*
X71202257Y-46574268D01*
X71035682Y-46247348D01*
X70835850Y-45939633D01*
X70835844Y-45939624D01*
X70604952Y-45654498D01*
X70604949Y-45654494D01*
X70604943Y-45654488D01*
X70604935Y-45654479D01*
X70345520Y-45395064D01*
X70345510Y-45395055D01*
X70345506Y-45395051D01*
X70335067Y-45386598D01*
X70060375Y-45164155D01*
X70060366Y-45164149D01*
X69752651Y-44964317D01*
X69425731Y-44797742D01*
X69425730Y-44797741D01*
X69083206Y-44666260D01*
X69083199Y-44666258D01*
X68728794Y-44571295D01*
X68728788Y-44571294D01*
X68728786Y-44571293D01*
X68366403Y-44513897D01*
X68000000Y-44494696D01*
X67633596Y-44513897D01*
X67271213Y-44571293D01*
X67271211Y-44571294D01*
X67271209Y-44571294D01*
X67271206Y-44571295D01*
X67022089Y-44638045D01*
X66916793Y-44666260D01*
X66574269Y-44797741D01*
X66574268Y-44797742D01*
X66247348Y-44964317D01*
X65939633Y-45164149D01*
X65939624Y-45164155D01*
X65654498Y-45395047D01*
X65654479Y-45395064D01*
X65395064Y-45654479D01*
X65395047Y-45654498D01*
X65164155Y-45939624D01*
X65164149Y-45939633D01*
X64964317Y-46247348D01*
X64797742Y-46574268D01*
X64797741Y-46574269D01*
X64666260Y-46916793D01*
X64571294Y-47271211D01*
X64571293Y-47271213D01*
X64513897Y-47633596D01*
X64494696Y-48000000D01*
X39001361Y-48000000D01*
X38947726Y-47892285D01*
X38824628Y-47729275D01*
X38824625Y-47729272D01*
X38673672Y-47591659D01*
X38500001Y-47484126D01*
X38309525Y-47410335D01*
X38276059Y-47404079D01*
X38108734Y-47372801D01*
X37904466Y-47372801D01*
X37770606Y-47397823D01*
X37703674Y-47410335D01*
X37513199Y-47484126D01*
X37513198Y-47484126D01*
X37339527Y-47591659D01*
X37188574Y-47729272D01*
X37188571Y-47729275D01*
X37065473Y-47892285D01*
X36974426Y-48075133D01*
X36974424Y-48075136D01*
X36918525Y-48271600D01*
X36899678Y-48474998D01*
X33985799Y-48474998D01*
X33965448Y-48268364D01*
X33905172Y-48069661D01*
X33828651Y-47926500D01*
X33525880Y-48229271D01*
X33500584Y-48168200D01*
X33429701Y-48062116D01*
X33339485Y-47971900D01*
X33233401Y-47901017D01*
X33172327Y-47875719D01*
X33475099Y-47572948D01*
X33331939Y-47496428D01*
X33133234Y-47436152D01*
X33133238Y-47436152D01*
X32926600Y-47415801D01*
X32719963Y-47436152D01*
X32521262Y-47496428D01*
X32521259Y-47496429D01*
X32378099Y-47572948D01*
X32680871Y-47875719D01*
X32619799Y-47901017D01*
X32513715Y-47971900D01*
X32423499Y-48062116D01*
X32352616Y-48168200D01*
X32327319Y-48229272D01*
X32024547Y-47926500D01*
X31948028Y-48069660D01*
X31948027Y-48069663D01*
X31887751Y-48268364D01*
X31867400Y-48475001D01*
X23468902Y-48475001D01*
X23486102Y-48366404D01*
X23505304Y-48000000D01*
X23486102Y-47633596D01*
X23428705Y-47271206D01*
X23333742Y-46916801D01*
X23333739Y-46916793D01*
X23202258Y-46574269D01*
X23202257Y-46574268D01*
X23035682Y-46247348D01*
X22835850Y-45939633D01*
X22835844Y-45939624D01*
X22604952Y-45654498D01*
X22604949Y-45654494D01*
X22604943Y-45654488D01*
X22604935Y-45654479D01*
X22345520Y-45395064D01*
X22345510Y-45395055D01*
X22345506Y-45395051D01*
X22335067Y-45386598D01*
X22060375Y-45164155D01*
X22060366Y-45164149D01*
X21752651Y-44964317D01*
X21425731Y-44797742D01*
X21425730Y-44797741D01*
X21083206Y-44666260D01*
X21083199Y-44666258D01*
X20728794Y-44571295D01*
X20728788Y-44571294D01*
X20728786Y-44571293D01*
X20366403Y-44513897D01*
X20000000Y-44494696D01*
X19633596Y-44513897D01*
X19271213Y-44571293D01*
X19271211Y-44571294D01*
X19271209Y-44571294D01*
X19271206Y-44571295D01*
X19022089Y-44638045D01*
X18916793Y-44666260D01*
X18574269Y-44797741D01*
X18574268Y-44797742D01*
X18247348Y-44964317D01*
X17939633Y-45164149D01*
X17939624Y-45164155D01*
X17654498Y-45395047D01*
X17654479Y-45395064D01*
X17395064Y-45654479D01*
X17395047Y-45654498D01*
X17164155Y-45939624D01*
X17164149Y-45939633D01*
X16964317Y-46247348D01*
X16797742Y-46574268D01*
X16797741Y-46574269D01*
X16666260Y-46916793D01*
X16571294Y-47271211D01*
X16571293Y-47271213D01*
X16513897Y-47633596D01*
X16494696Y-48000000D01*
X14500500Y-48000000D01*
X14500500Y-42760597D01*
X45965301Y-42760597D01*
X45965301Y-42760602D01*
X45984472Y-43004197D01*
X45984474Y-43004207D01*
X46041514Y-43241792D01*
X46041517Y-43241803D01*
X46135026Y-43467553D01*
X46259260Y-43670286D01*
X46546332Y-43383214D01*
X46640982Y-43513488D01*
X46769613Y-43642119D01*
X46899884Y-43736767D01*
X46612813Y-44023839D01*
X46815549Y-44148075D01*
X47041297Y-44241583D01*
X47041308Y-44241586D01*
X47278893Y-44298626D01*
X47278903Y-44298628D01*
X47522498Y-44317800D01*
X47522504Y-44317800D01*
X47766098Y-44298628D01*
X47766108Y-44298626D01*
X48003693Y-44241586D01*
X48003704Y-44241583D01*
X48229454Y-44148075D01*
X48229461Y-44148071D01*
X48432186Y-44023840D01*
X48432187Y-44023839D01*
X48145116Y-43736768D01*
X48275389Y-43642119D01*
X48404020Y-43513488D01*
X48498669Y-43383215D01*
X48785740Y-43670286D01*
X48785741Y-43670285D01*
X48909972Y-43467560D01*
X48909976Y-43467553D01*
X49003484Y-43241803D01*
X49003487Y-43241792D01*
X49060527Y-43004207D01*
X49060529Y-43004197D01*
X49079701Y-42760602D01*
X49079701Y-42760597D01*
X59105300Y-42760597D01*
X59105300Y-42760602D01*
X59124471Y-43004197D01*
X59124473Y-43004207D01*
X59181513Y-43241792D01*
X59181516Y-43241803D01*
X59275025Y-43467553D01*
X59399259Y-43670286D01*
X59686331Y-43383214D01*
X59780981Y-43513488D01*
X59909612Y-43642119D01*
X60039883Y-43736767D01*
X59752812Y-44023839D01*
X59955548Y-44148075D01*
X60181296Y-44241583D01*
X60181307Y-44241586D01*
X60418892Y-44298626D01*
X60418902Y-44298628D01*
X60662497Y-44317800D01*
X60662503Y-44317800D01*
X60906097Y-44298628D01*
X60906107Y-44298626D01*
X61143692Y-44241586D01*
X61143703Y-44241583D01*
X61369453Y-44148075D01*
X61369460Y-44148071D01*
X61572185Y-44023840D01*
X61572186Y-44023839D01*
X61285115Y-43736768D01*
X61415388Y-43642119D01*
X61544019Y-43513488D01*
X61638668Y-43383215D01*
X61925739Y-43670286D01*
X61925740Y-43670285D01*
X62049971Y-43467560D01*
X62049975Y-43467553D01*
X62143483Y-43241803D01*
X62143486Y-43241792D01*
X62200526Y-43004207D01*
X62200528Y-43004197D01*
X62219700Y-42760602D01*
X62219700Y-42760597D01*
X62200528Y-42517002D01*
X62200526Y-42516992D01*
X62143486Y-42279407D01*
X62143483Y-42279396D01*
X62049975Y-42053648D01*
X61925739Y-41850912D01*
X61638667Y-42137983D01*
X61544019Y-42007712D01*
X61415388Y-41879081D01*
X61285114Y-41784431D01*
X61572186Y-41497359D01*
X61369453Y-41373125D01*
X61143703Y-41279616D01*
X61143692Y-41279613D01*
X60906107Y-41222573D01*
X60906097Y-41222571D01*
X60662503Y-41203400D01*
X60662497Y-41203400D01*
X60418902Y-41222571D01*
X60418892Y-41222573D01*
X60181307Y-41279613D01*
X60181296Y-41279616D01*
X59955546Y-41373125D01*
X59752812Y-41497359D01*
X60039884Y-41784431D01*
X59909612Y-41879081D01*
X59780981Y-42007712D01*
X59686331Y-42137984D01*
X59399259Y-41850912D01*
X59275025Y-42053646D01*
X59181516Y-42279396D01*
X59181513Y-42279407D01*
X59124473Y-42516992D01*
X59124471Y-42517002D01*
X59105300Y-42760597D01*
X49079701Y-42760597D01*
X49060529Y-42517002D01*
X49060527Y-42516992D01*
X49003487Y-42279407D01*
X49003484Y-42279396D01*
X48909976Y-42053648D01*
X48785740Y-41850912D01*
X48498668Y-42137983D01*
X48404020Y-42007712D01*
X48275389Y-41879081D01*
X48145115Y-41784431D01*
X48432187Y-41497359D01*
X48229454Y-41373125D01*
X48003704Y-41279616D01*
X48003693Y-41279613D01*
X47766108Y-41222573D01*
X47766098Y-41222571D01*
X47522504Y-41203400D01*
X47522498Y-41203400D01*
X47278903Y-41222571D01*
X47278893Y-41222573D01*
X47041308Y-41279613D01*
X47041297Y-41279616D01*
X46815547Y-41373125D01*
X46612813Y-41497359D01*
X46899885Y-41784431D01*
X46769613Y-41879081D01*
X46640982Y-42007712D01*
X46546332Y-42137984D01*
X46259260Y-41850912D01*
X46135026Y-42053646D01*
X46041517Y-42279396D01*
X46041514Y-42279407D01*
X45984474Y-42516992D01*
X45984472Y-42517002D01*
X45965301Y-42760597D01*
X14500500Y-42760597D01*
X14500500Y-40415000D01*
X15689650Y-40415000D01*
X15708997Y-40599076D01*
X15766190Y-40775099D01*
X15766193Y-40775106D01*
X15858736Y-40935396D01*
X15982586Y-41072944D01*
X15982587Y-41072945D01*
X16132325Y-41181736D01*
X16301412Y-41257018D01*
X16482456Y-41295500D01*
X16482458Y-41295500D01*
X16667542Y-41295500D01*
X16667544Y-41295500D01*
X16848588Y-41257018D01*
X17017675Y-41181736D01*
X17167415Y-41072943D01*
X17291263Y-40935396D01*
X17383807Y-40775104D01*
X17441003Y-40599075D01*
X17460350Y-40415000D01*
X20939650Y-40415000D01*
X20958997Y-40599076D01*
X21016190Y-40775099D01*
X21016193Y-40775106D01*
X21108736Y-40935396D01*
X21232586Y-41072944D01*
X21232587Y-41072945D01*
X21382325Y-41181736D01*
X21551412Y-41257018D01*
X21732456Y-41295500D01*
X21732458Y-41295500D01*
X21917542Y-41295500D01*
X21917544Y-41295500D01*
X22098588Y-41257018D01*
X22267675Y-41181736D01*
X22417415Y-41072943D01*
X22541263Y-40935396D01*
X22633807Y-40775104D01*
X22691003Y-40599075D01*
X22710350Y-40415000D01*
X22691003Y-40230925D01*
X22651969Y-40110792D01*
X22633809Y-40054900D01*
X22633806Y-40054893D01*
X22631327Y-40050600D01*
X49675778Y-40050600D01*
X49695810Y-40241193D01*
X49695810Y-40241195D01*
X49695811Y-40241197D01*
X49752754Y-40416451D01*
X49755034Y-40423466D01*
X49850855Y-40589436D01*
X49979094Y-40731858D01*
X49979095Y-40731859D01*
X50091631Y-40813621D01*
X50134139Y-40844505D01*
X50309217Y-40922454D01*
X50496676Y-40962300D01*
X50496678Y-40962300D01*
X50688322Y-40962300D01*
X50688324Y-40962300D01*
X50875783Y-40922454D01*
X51050861Y-40844505D01*
X51205907Y-40731857D01*
X51334144Y-40589436D01*
X51429967Y-40423464D01*
X51489189Y-40241197D01*
X51509222Y-40050600D01*
X52175778Y-40050600D01*
X52195810Y-40241193D01*
X52195810Y-40241195D01*
X52195811Y-40241197D01*
X52252754Y-40416451D01*
X52255034Y-40423466D01*
X52350855Y-40589436D01*
X52479094Y-40731858D01*
X52479095Y-40731859D01*
X52591631Y-40813621D01*
X52634139Y-40844505D01*
X52809217Y-40922454D01*
X52996676Y-40962300D01*
X52996678Y-40962300D01*
X53188322Y-40962300D01*
X53188324Y-40962300D01*
X53375783Y-40922454D01*
X53550861Y-40844505D01*
X53705907Y-40731857D01*
X53834144Y-40589436D01*
X53929967Y-40423464D01*
X53989189Y-40241197D01*
X54009222Y-40050600D01*
X54175779Y-40050600D01*
X54195811Y-40241193D01*
X54195811Y-40241195D01*
X54195812Y-40241197D01*
X54252755Y-40416451D01*
X54255035Y-40423466D01*
X54350856Y-40589436D01*
X54479095Y-40731858D01*
X54479096Y-40731859D01*
X54591632Y-40813621D01*
X54634140Y-40844505D01*
X54809218Y-40922454D01*
X54996677Y-40962300D01*
X54996679Y-40962300D01*
X55188323Y-40962300D01*
X55188325Y-40962300D01*
X55375784Y-40922454D01*
X55550862Y-40844505D01*
X55705908Y-40731857D01*
X55834145Y-40589436D01*
X55929968Y-40423464D01*
X55989190Y-40241197D01*
X56009223Y-40050600D01*
X56724144Y-40050600D01*
X56743119Y-40231138D01*
X56799218Y-40403795D01*
X56830891Y-40458654D01*
X56830893Y-40458654D01*
X57144484Y-40145063D01*
X57166459Y-40227073D01*
X57226650Y-40331327D01*
X57311774Y-40416451D01*
X57416028Y-40476642D01*
X57498036Y-40498616D01*
X57183032Y-40813620D01*
X57324162Y-40876456D01*
X57501735Y-40914200D01*
X57683267Y-40914200D01*
X57860843Y-40876455D01*
X58001967Y-40813621D01*
X58001968Y-40813620D01*
X57686965Y-40498616D01*
X57768974Y-40476642D01*
X57873228Y-40416451D01*
X57958352Y-40331327D01*
X58018543Y-40227073D01*
X58040517Y-40145064D01*
X58354108Y-40458655D01*
X58385785Y-40403791D01*
X58441882Y-40231138D01*
X58460857Y-40050600D01*
X58441882Y-39870061D01*
X58385785Y-39697410D01*
X58354108Y-39642544D01*
X58354107Y-39642544D01*
X58040517Y-39956134D01*
X58018543Y-39874127D01*
X57958352Y-39769873D01*
X57873228Y-39684749D01*
X57768974Y-39624558D01*
X57686964Y-39602583D01*
X58001968Y-39287578D01*
X57860839Y-39224743D01*
X57683267Y-39187000D01*
X57501735Y-39187000D01*
X57324162Y-39224743D01*
X57183032Y-39287579D01*
X57498037Y-39602583D01*
X57416028Y-39624558D01*
X57311774Y-39684749D01*
X57226650Y-39769873D01*
X57166459Y-39874127D01*
X57144484Y-39956135D01*
X56830893Y-39642544D01*
X56830891Y-39642544D01*
X56799218Y-39697404D01*
X56743119Y-39870061D01*
X56724144Y-40050600D01*
X56009223Y-40050600D01*
X55989190Y-39860003D01*
X55929968Y-39677736D01*
X55881277Y-39593400D01*
X55834145Y-39511763D01*
X55705906Y-39369341D01*
X55705905Y-39369340D01*
X55550861Y-39256694D01*
X55375787Y-39178747D01*
X55375785Y-39178746D01*
X55375784Y-39178746D01*
X55188325Y-39138900D01*
X54996677Y-39138900D01*
X54809218Y-39178746D01*
X54809217Y-39178746D01*
X54809214Y-39178747D01*
X54634140Y-39256694D01*
X54479096Y-39369340D01*
X54479095Y-39369341D01*
X54350856Y-39511763D01*
X54255035Y-39677733D01*
X54255034Y-39677735D01*
X54255034Y-39677736D01*
X54248642Y-39697410D01*
X54195811Y-39860006D01*
X54175779Y-40050600D01*
X54009222Y-40050600D01*
X53989189Y-39860003D01*
X53929967Y-39677736D01*
X53881276Y-39593400D01*
X53834144Y-39511763D01*
X53812316Y-39487521D01*
X53793046Y-39439827D01*
X53793000Y-39437202D01*
X53793000Y-35808690D01*
X53793548Y-35799626D01*
X53793679Y-35798540D01*
X53805645Y-35700000D01*
X53793548Y-35600373D01*
X53793000Y-35591309D01*
X53793000Y-34728805D01*
X53810593Y-34680467D01*
X53815026Y-34675631D01*
X55794109Y-32696548D01*
X55794114Y-32696543D01*
X55870775Y-32581811D01*
X55923580Y-32454328D01*
X55950500Y-32318994D01*
X55950500Y-32181006D01*
X55950500Y-28419434D01*
X55960574Y-28381835D01*
X55994968Y-28322264D01*
X56054190Y-28139997D01*
X56074223Y-27949400D01*
X56740779Y-27949400D01*
X56760811Y-28139993D01*
X56760811Y-28139995D01*
X56760812Y-28139997D01*
X56817755Y-28315251D01*
X56820035Y-28322266D01*
X56915856Y-28488236D01*
X57044095Y-28630658D01*
X57044096Y-28630659D01*
X57191388Y-28737673D01*
X57199140Y-28743305D01*
X57374218Y-28821254D01*
X57561677Y-28861100D01*
X57561679Y-28861100D01*
X57753323Y-28861100D01*
X57753325Y-28861100D01*
X57940784Y-28821254D01*
X58115862Y-28743305D01*
X58270908Y-28630657D01*
X58399145Y-28488236D01*
X58494968Y-28322264D01*
X58554190Y-28139997D01*
X58574223Y-27949400D01*
X58554190Y-27758803D01*
X58494968Y-27576536D01*
X58446277Y-27492200D01*
X58399145Y-27410563D01*
X58270906Y-27268141D01*
X58270905Y-27268140D01*
X58115861Y-27155494D01*
X57940787Y-27077547D01*
X57940785Y-27077546D01*
X57940784Y-27077546D01*
X57753325Y-27037700D01*
X57561677Y-27037700D01*
X57374218Y-27077546D01*
X57374217Y-27077546D01*
X57374214Y-27077547D01*
X57199140Y-27155494D01*
X57044096Y-27268140D01*
X57044095Y-27268141D01*
X56915856Y-27410563D01*
X56820035Y-27576533D01*
X56820034Y-27576535D01*
X56820034Y-27576536D01*
X56813642Y-27596210D01*
X56760811Y-27758806D01*
X56740779Y-27949400D01*
X56074223Y-27949400D01*
X56054190Y-27758803D01*
X55994968Y-27576536D01*
X55946277Y-27492200D01*
X55899145Y-27410563D01*
X55770906Y-27268141D01*
X55770905Y-27268140D01*
X55615861Y-27155494D01*
X55440787Y-27077547D01*
X55440785Y-27077546D01*
X55440784Y-27077546D01*
X55253325Y-27037700D01*
X55061677Y-27037700D01*
X54874218Y-27077546D01*
X54874217Y-27077546D01*
X54874214Y-27077547D01*
X54699140Y-27155494D01*
X54544096Y-27268140D01*
X54544095Y-27268141D01*
X54415856Y-27410563D01*
X54320035Y-27576533D01*
X54320034Y-27576535D01*
X54320034Y-27576536D01*
X54313642Y-27596210D01*
X54260811Y-27758806D01*
X54240779Y-27949400D01*
X54260811Y-28139993D01*
X54260811Y-28139995D01*
X54260812Y-28139997D01*
X54317755Y-28315251D01*
X54320035Y-28322266D01*
X54415856Y-28488236D01*
X54530184Y-28615208D01*
X54549454Y-28662902D01*
X54549500Y-28665527D01*
X54549500Y-31928694D01*
X54531907Y-31977032D01*
X54527474Y-31981868D01*
X52548391Y-33960950D01*
X52548387Y-33960955D01*
X52517890Y-34006599D01*
X52517889Y-34006600D01*
X52471726Y-34075686D01*
X52418921Y-34203168D01*
X52418920Y-34203170D01*
X52392000Y-34338505D01*
X52392000Y-39437202D01*
X52374407Y-39485540D01*
X52372684Y-39487521D01*
X52350855Y-39511763D01*
X52255034Y-39677733D01*
X52255033Y-39677735D01*
X52255033Y-39677736D01*
X52248641Y-39697410D01*
X52195810Y-39860006D01*
X52175778Y-40050600D01*
X51509222Y-40050600D01*
X51489189Y-39860003D01*
X51429967Y-39677736D01*
X51381276Y-39593400D01*
X51334144Y-39511763D01*
X51205905Y-39369341D01*
X51205904Y-39369340D01*
X51050860Y-39256694D01*
X50875786Y-39178747D01*
X50875784Y-39178746D01*
X50875783Y-39178746D01*
X50688324Y-39138900D01*
X50496676Y-39138900D01*
X50309217Y-39178746D01*
X50309216Y-39178746D01*
X50309213Y-39178747D01*
X50134139Y-39256694D01*
X49979095Y-39369340D01*
X49979094Y-39369341D01*
X49850855Y-39511763D01*
X49755034Y-39677733D01*
X49755033Y-39677735D01*
X49755033Y-39677736D01*
X49748641Y-39697410D01*
X49695810Y-39860006D01*
X49675778Y-40050600D01*
X22631327Y-40050600D01*
X22541263Y-39894603D01*
X22439848Y-39781971D01*
X22417415Y-39757057D01*
X22417414Y-39757056D01*
X22417413Y-39757055D01*
X22417412Y-39757054D01*
X22267674Y-39648263D01*
X22098591Y-39572983D01*
X22098589Y-39572982D01*
X22098588Y-39572982D01*
X21917544Y-39534500D01*
X21732456Y-39534500D01*
X21551412Y-39572982D01*
X21551411Y-39572982D01*
X21551408Y-39572983D01*
X21382325Y-39648263D01*
X21232587Y-39757054D01*
X21232586Y-39757055D01*
X21108736Y-39894603D01*
X21016193Y-40054893D01*
X21016190Y-40054900D01*
X20958997Y-40230923D01*
X20939650Y-40415000D01*
X17460350Y-40415000D01*
X17441003Y-40230925D01*
X17401969Y-40110792D01*
X17383809Y-40054900D01*
X17383806Y-40054893D01*
X17291263Y-39894603D01*
X17189848Y-39781971D01*
X17167415Y-39757057D01*
X17167414Y-39757056D01*
X17167413Y-39757055D01*
X17167412Y-39757054D01*
X17017674Y-39648263D01*
X16848591Y-39572983D01*
X16848589Y-39572982D01*
X16848588Y-39572982D01*
X16667544Y-39534500D01*
X16482456Y-39534500D01*
X16301412Y-39572982D01*
X16301411Y-39572982D01*
X16301408Y-39572983D01*
X16132325Y-39648263D01*
X15982587Y-39757054D01*
X15982586Y-39757055D01*
X15858736Y-39894603D01*
X15766193Y-40054893D01*
X15766190Y-40054900D01*
X15708997Y-40230923D01*
X15689650Y-40415000D01*
X14500500Y-40415000D01*
X14500500Y-39340048D01*
X34163501Y-39340048D01*
X34210000Y-39347413D01*
X34210002Y-39347413D01*
X34256498Y-39340048D01*
X35343498Y-39340048D01*
X35389997Y-39347413D01*
X35389999Y-39347413D01*
X35436495Y-39340048D01*
X35436496Y-39340047D01*
X35389999Y-39293550D01*
X35389998Y-39293550D01*
X35343498Y-39340048D01*
X34256498Y-39340048D01*
X34256499Y-39340047D01*
X34210002Y-39293550D01*
X34210001Y-39293550D01*
X34163501Y-39340048D01*
X14500500Y-39340048D01*
X14500500Y-38939995D01*
X33802586Y-38939995D01*
X33802586Y-38939999D01*
X33809949Y-38986495D01*
X33856449Y-38939998D01*
X33856449Y-38939997D01*
X33836241Y-38919789D01*
X34108401Y-38919789D01*
X34108401Y-38960207D01*
X34123869Y-38997550D01*
X34152449Y-39026130D01*
X34189792Y-39041598D01*
X34230210Y-39041598D01*
X34267553Y-39026130D01*
X34296133Y-38997550D01*
X34311601Y-38960207D01*
X34311601Y-38939998D01*
X34563553Y-38939998D01*
X34563553Y-38939999D01*
X34610050Y-38986496D01*
X34610051Y-38986495D01*
X34617416Y-38939999D01*
X34617416Y-38939996D01*
X34617416Y-38939995D01*
X34982583Y-38939995D01*
X34982583Y-38939999D01*
X34989946Y-38986495D01*
X35036446Y-38939998D01*
X35036446Y-38939997D01*
X35016238Y-38919789D01*
X35288398Y-38919789D01*
X35288398Y-38960207D01*
X35303866Y-38997550D01*
X35332446Y-39026130D01*
X35369789Y-39041598D01*
X35410207Y-39041598D01*
X35447550Y-39026130D01*
X35476130Y-38997550D01*
X35491598Y-38960207D01*
X35491598Y-38939998D01*
X35743550Y-38939998D01*
X35743550Y-38939999D01*
X35790047Y-38986496D01*
X35790048Y-38986495D01*
X35797413Y-38939999D01*
X35797413Y-38939996D01*
X35790048Y-38893498D01*
X35743550Y-38939998D01*
X35491598Y-38939998D01*
X35491598Y-38919789D01*
X35476130Y-38882446D01*
X35447550Y-38853866D01*
X35410207Y-38838398D01*
X35369789Y-38838398D01*
X35332446Y-38853866D01*
X35303866Y-38882446D01*
X35288398Y-38919789D01*
X35016238Y-38919789D01*
X34989947Y-38893498D01*
X34989946Y-38893498D01*
X34982583Y-38939995D01*
X34617416Y-38939995D01*
X34610051Y-38893498D01*
X34563553Y-38939998D01*
X34311601Y-38939998D01*
X34311601Y-38919789D01*
X34296133Y-38882446D01*
X34267553Y-38853866D01*
X34230210Y-38838398D01*
X34189792Y-38838398D01*
X34152449Y-38853866D01*
X34123869Y-38882446D01*
X34108401Y-38919789D01*
X33836241Y-38919789D01*
X33809950Y-38893498D01*
X33809949Y-38893498D01*
X33802586Y-38939995D01*
X14500500Y-38939995D01*
X14500500Y-38750050D01*
X34753499Y-38750050D01*
X34799998Y-38757415D01*
X34800000Y-38757415D01*
X34846496Y-38750050D01*
X34846497Y-38750049D01*
X34800000Y-38703552D01*
X34799999Y-38703552D01*
X34753499Y-38750050D01*
X14500500Y-38750050D01*
X14500500Y-38539946D01*
X34163501Y-38539946D01*
X34163501Y-38539947D01*
X34210000Y-38586446D01*
X34210001Y-38586446D01*
X34256498Y-38539946D01*
X35343498Y-38539946D01*
X35343498Y-38539947D01*
X35389997Y-38586446D01*
X35389998Y-38586446D01*
X35436495Y-38539946D01*
X35390000Y-38532583D01*
X35389996Y-38532583D01*
X35343498Y-38539946D01*
X34256498Y-38539946D01*
X34210003Y-38532583D01*
X34209999Y-38532583D01*
X34163501Y-38539946D01*
X14500500Y-38539946D01*
X14500500Y-38349997D01*
X34392584Y-38349997D01*
X34392584Y-38350001D01*
X34399947Y-38396497D01*
X34446447Y-38350000D01*
X34446447Y-38349999D01*
X34426239Y-38329791D01*
X34698399Y-38329791D01*
X34698399Y-38370209D01*
X34713867Y-38407552D01*
X34742447Y-38436132D01*
X34779790Y-38451600D01*
X34820208Y-38451600D01*
X34857551Y-38436132D01*
X34886131Y-38407552D01*
X34901599Y-38370209D01*
X34901599Y-38350000D01*
X35153551Y-38350000D01*
X35153551Y-38350001D01*
X35200048Y-38396498D01*
X35200049Y-38396497D01*
X35207414Y-38350001D01*
X35207414Y-38349998D01*
X35200049Y-38303500D01*
X35153551Y-38350000D01*
X34901599Y-38350000D01*
X34901599Y-38329791D01*
X34886131Y-38292448D01*
X34857551Y-38263868D01*
X34820208Y-38248400D01*
X34779790Y-38248400D01*
X34742447Y-38263868D01*
X34713867Y-38292448D01*
X34698399Y-38329791D01*
X34426239Y-38329791D01*
X34399948Y-38303500D01*
X34399947Y-38303500D01*
X34392584Y-38349997D01*
X14500500Y-38349997D01*
X14500500Y-38160051D01*
X34163501Y-38160051D01*
X34210000Y-38167416D01*
X34210002Y-38167416D01*
X34256498Y-38160051D01*
X35343498Y-38160051D01*
X35389997Y-38167416D01*
X35389999Y-38167416D01*
X35436495Y-38160051D01*
X35436496Y-38160050D01*
X35389999Y-38113553D01*
X35389998Y-38113553D01*
X35343498Y-38160051D01*
X34256498Y-38160051D01*
X34256499Y-38160050D01*
X34210002Y-38113553D01*
X34210001Y-38113553D01*
X34163501Y-38160051D01*
X14500500Y-38160051D01*
X14500500Y-37949948D01*
X34753499Y-37949948D01*
X34753499Y-37949949D01*
X34799998Y-37996448D01*
X34799999Y-37996448D01*
X34846496Y-37949948D01*
X34800001Y-37942585D01*
X34799997Y-37942585D01*
X34753499Y-37949948D01*
X14500500Y-37949948D01*
X14500500Y-37759998D01*
X33802586Y-37759998D01*
X33802586Y-37760002D01*
X33809949Y-37806498D01*
X33856449Y-37760001D01*
X33856449Y-37760000D01*
X33836241Y-37739792D01*
X34108401Y-37739792D01*
X34108401Y-37780210D01*
X34123869Y-37817553D01*
X34152449Y-37846133D01*
X34189792Y-37861601D01*
X34230210Y-37861601D01*
X34267553Y-37846133D01*
X34296133Y-37817553D01*
X34311601Y-37780210D01*
X34311601Y-37760001D01*
X34563553Y-37760001D01*
X34563553Y-37760002D01*
X34610050Y-37806499D01*
X34610051Y-37806498D01*
X34617416Y-37760002D01*
X34617416Y-37759999D01*
X34617416Y-37759998D01*
X34982583Y-37759998D01*
X34982583Y-37760002D01*
X34989946Y-37806498D01*
X35036446Y-37760001D01*
X35036446Y-37760000D01*
X35016238Y-37739792D01*
X35288398Y-37739792D01*
X35288398Y-37780210D01*
X35303866Y-37817553D01*
X35332446Y-37846133D01*
X35369789Y-37861601D01*
X35410207Y-37861601D01*
X35447550Y-37846133D01*
X35476130Y-37817553D01*
X35491598Y-37780210D01*
X35491598Y-37760001D01*
X35743550Y-37760001D01*
X35743550Y-37760002D01*
X35790047Y-37806499D01*
X35790048Y-37806498D01*
X35797413Y-37760002D01*
X35797413Y-37759999D01*
X35790048Y-37713501D01*
X35743550Y-37760001D01*
X35491598Y-37760001D01*
X35491598Y-37739792D01*
X35476130Y-37702449D01*
X35447550Y-37673869D01*
X35410207Y-37658401D01*
X35369789Y-37658401D01*
X35332446Y-37673869D01*
X35303866Y-37702449D01*
X35288398Y-37739792D01*
X35016238Y-37739792D01*
X34989947Y-37713501D01*
X34989946Y-37713501D01*
X34982583Y-37759998D01*
X34617416Y-37759998D01*
X34610051Y-37713501D01*
X34563553Y-37760001D01*
X34311601Y-37760001D01*
X34311601Y-37739792D01*
X34296133Y-37702449D01*
X34267553Y-37673869D01*
X34230210Y-37658401D01*
X34189792Y-37658401D01*
X34152449Y-37673869D01*
X34123869Y-37702449D01*
X34108401Y-37739792D01*
X33836241Y-37739792D01*
X33809950Y-37713501D01*
X33809949Y-37713501D01*
X33802586Y-37759998D01*
X14500500Y-37759998D01*
X14500500Y-37359949D01*
X34163501Y-37359949D01*
X34163501Y-37359950D01*
X34210000Y-37406449D01*
X34210001Y-37406449D01*
X34256498Y-37359949D01*
X35343498Y-37359949D01*
X35343498Y-37359950D01*
X35389997Y-37406449D01*
X35389998Y-37406449D01*
X35436495Y-37359949D01*
X35390000Y-37352586D01*
X35389996Y-37352586D01*
X35343498Y-37359949D01*
X34256498Y-37359949D01*
X34210003Y-37352586D01*
X34209999Y-37352586D01*
X34163501Y-37359949D01*
X14500500Y-37359949D01*
X14500500Y-34006597D01*
X18418078Y-34006597D01*
X18418078Y-34006599D01*
X18436925Y-34210000D01*
X18492824Y-34406464D01*
X18492826Y-34406467D01*
X18583873Y-34589315D01*
X18706971Y-34752325D01*
X18706974Y-34752328D01*
X18857927Y-34889941D01*
X19031598Y-34997474D01*
X19031600Y-34997474D01*
X19031602Y-34997476D01*
X19222076Y-35071266D01*
X19422866Y-35108800D01*
X19422871Y-35108800D01*
X19627129Y-35108800D01*
X19627134Y-35108800D01*
X19827924Y-35071266D01*
X20018398Y-34997476D01*
X20192070Y-34889943D01*
X20343025Y-34752329D01*
X20466124Y-34589319D01*
X20557174Y-34406466D01*
X20613075Y-34209996D01*
X20631922Y-34006600D01*
X20627692Y-33960955D01*
X20625490Y-33937193D01*
X20613075Y-33803204D01*
X20613074Y-33803199D01*
X20557175Y-33606735D01*
X20557173Y-33606732D01*
X20466126Y-33423884D01*
X20343028Y-33260874D01*
X20343025Y-33260871D01*
X20192072Y-33123258D01*
X20018401Y-33015725D01*
X19827925Y-32941934D01*
X19794459Y-32935678D01*
X19627134Y-32904400D01*
X19422866Y-32904400D01*
X19289006Y-32929422D01*
X19222074Y-32941934D01*
X19031599Y-33015725D01*
X19031598Y-33015725D01*
X18857927Y-33123258D01*
X18706974Y-33260871D01*
X18706971Y-33260874D01*
X18583873Y-33423884D01*
X18492826Y-33606732D01*
X18492824Y-33606735D01*
X18436925Y-33803199D01*
X18418078Y-34006597D01*
X14500500Y-34006597D01*
X14500500Y-28926600D01*
X18465800Y-28926600D01*
X18486151Y-29133236D01*
X18546427Y-29331939D01*
X18622947Y-29475099D01*
X18925718Y-29172327D01*
X18951016Y-29233401D01*
X19021899Y-29339485D01*
X19112115Y-29429701D01*
X19218199Y-29500584D01*
X19279270Y-29525880D01*
X18976499Y-29828651D01*
X19119660Y-29905172D01*
X19318365Y-29965448D01*
X19318361Y-29965448D01*
X19525000Y-29985799D01*
X19731636Y-29965448D01*
X19930338Y-29905172D01*
X20073499Y-29828651D01*
X19770728Y-29525880D01*
X19831801Y-29500584D01*
X19937885Y-29429701D01*
X20028101Y-29339485D01*
X20098984Y-29233401D01*
X20124280Y-29172328D01*
X20427051Y-29475099D01*
X20503572Y-29331938D01*
X20563848Y-29133236D01*
X20584199Y-28926600D01*
X20563848Y-28719963D01*
X20503572Y-28521260D01*
X20427051Y-28378099D01*
X20124280Y-28680870D01*
X20098984Y-28619799D01*
X20028101Y-28513715D01*
X19937885Y-28423499D01*
X19831801Y-28352616D01*
X19770727Y-28327318D01*
X20073499Y-28024547D01*
X19932908Y-27949400D01*
X49789143Y-27949400D01*
X49808118Y-28129938D01*
X49864217Y-28302595D01*
X49895890Y-28357454D01*
X49895892Y-28357454D01*
X50209483Y-28043863D01*
X50231458Y-28125873D01*
X50291649Y-28230127D01*
X50376773Y-28315251D01*
X50481027Y-28375442D01*
X50563035Y-28397416D01*
X50248031Y-28712420D01*
X50389161Y-28775256D01*
X50566734Y-28813000D01*
X50748266Y-28813000D01*
X50925842Y-28775255D01*
X51066966Y-28712421D01*
X51066967Y-28712420D01*
X50751964Y-28397416D01*
X50833973Y-28375442D01*
X50938227Y-28315251D01*
X51023351Y-28230127D01*
X51083542Y-28125873D01*
X51105516Y-28043864D01*
X51419107Y-28357455D01*
X51450784Y-28302591D01*
X51506881Y-28129938D01*
X51525856Y-27949400D01*
X52240778Y-27949400D01*
X52260810Y-28139993D01*
X52260810Y-28139995D01*
X52260811Y-28139997D01*
X52317754Y-28315251D01*
X52320034Y-28322266D01*
X52415855Y-28488236D01*
X52544094Y-28630658D01*
X52544095Y-28630659D01*
X52691387Y-28737673D01*
X52699139Y-28743305D01*
X52874217Y-28821254D01*
X53061676Y-28861100D01*
X53061678Y-28861100D01*
X53253322Y-28861100D01*
X53253324Y-28861100D01*
X53440783Y-28821254D01*
X53615861Y-28743305D01*
X53770907Y-28630657D01*
X53899144Y-28488236D01*
X53994967Y-28322264D01*
X54054189Y-28139997D01*
X54074222Y-27949400D01*
X54054189Y-27758803D01*
X53994967Y-27576536D01*
X53946276Y-27492200D01*
X53899144Y-27410563D01*
X53770905Y-27268141D01*
X53770904Y-27268140D01*
X53615860Y-27155494D01*
X53440786Y-27077547D01*
X53440784Y-27077546D01*
X53440783Y-27077546D01*
X53253324Y-27037700D01*
X53061676Y-27037700D01*
X52874217Y-27077546D01*
X52874216Y-27077546D01*
X52874213Y-27077547D01*
X52699139Y-27155494D01*
X52544095Y-27268140D01*
X52544094Y-27268141D01*
X52415855Y-27410563D01*
X52320034Y-27576533D01*
X52320033Y-27576535D01*
X52320033Y-27576536D01*
X52313641Y-27596210D01*
X52260810Y-27758806D01*
X52240778Y-27949400D01*
X51525856Y-27949400D01*
X51506881Y-27768861D01*
X51450784Y-27596210D01*
X51419107Y-27541344D01*
X51419106Y-27541344D01*
X51105516Y-27854934D01*
X51083542Y-27772927D01*
X51023351Y-27668673D01*
X50938227Y-27583549D01*
X50833973Y-27523358D01*
X50751963Y-27501383D01*
X51066967Y-27186378D01*
X50925838Y-27123543D01*
X50748266Y-27085800D01*
X50566734Y-27085800D01*
X50389161Y-27123543D01*
X50248031Y-27186379D01*
X50563036Y-27501383D01*
X50481027Y-27523358D01*
X50376773Y-27583549D01*
X50291649Y-27668673D01*
X50231458Y-27772927D01*
X50209483Y-27854935D01*
X49895892Y-27541344D01*
X49895890Y-27541344D01*
X49864217Y-27596204D01*
X49808118Y-27768861D01*
X49789143Y-27949400D01*
X19932908Y-27949400D01*
X19930339Y-27948027D01*
X19731634Y-27887751D01*
X19731638Y-27887751D01*
X19525000Y-27867400D01*
X19318363Y-27887751D01*
X19119662Y-27948027D01*
X19119659Y-27948028D01*
X18976499Y-28024547D01*
X19279271Y-28327318D01*
X19218199Y-28352616D01*
X19112115Y-28423499D01*
X19021899Y-28513715D01*
X18951016Y-28619799D01*
X18925719Y-28680871D01*
X18622947Y-28378099D01*
X18546428Y-28521259D01*
X18546427Y-28521262D01*
X18486151Y-28719963D01*
X18465800Y-28926600D01*
X14500500Y-28926600D01*
X14500500Y-25239397D01*
X46030301Y-25239397D01*
X46030301Y-25239402D01*
X46049472Y-25482997D01*
X46049474Y-25483007D01*
X46106514Y-25720592D01*
X46106517Y-25720603D01*
X46200026Y-25946353D01*
X46324260Y-26149086D01*
X46611332Y-25862014D01*
X46705982Y-25992288D01*
X46834613Y-26120919D01*
X46964884Y-26215567D01*
X46677813Y-26502639D01*
X46880549Y-26626875D01*
X47106297Y-26720383D01*
X47106308Y-26720386D01*
X47343893Y-26777426D01*
X47343903Y-26777428D01*
X47587498Y-26796600D01*
X47587504Y-26796600D01*
X47831098Y-26777428D01*
X47831108Y-26777426D01*
X48068693Y-26720386D01*
X48068704Y-26720383D01*
X48294454Y-26626875D01*
X48294461Y-26626871D01*
X48497186Y-26502640D01*
X48497187Y-26502639D01*
X48210116Y-26215568D01*
X48340389Y-26120919D01*
X48469020Y-25992288D01*
X48563669Y-25862015D01*
X48850740Y-26149086D01*
X48850741Y-26149085D01*
X48974972Y-25946360D01*
X48974976Y-25946353D01*
X49068484Y-25720603D01*
X49068487Y-25720592D01*
X49125527Y-25483007D01*
X49125529Y-25482997D01*
X49144701Y-25239402D01*
X49144701Y-25239397D01*
X59170300Y-25239397D01*
X59170300Y-25239402D01*
X59189471Y-25482997D01*
X59189473Y-25483007D01*
X59246513Y-25720592D01*
X59246516Y-25720603D01*
X59340025Y-25946353D01*
X59464259Y-26149086D01*
X59751331Y-25862014D01*
X59845981Y-25992288D01*
X59974612Y-26120919D01*
X60104883Y-26215567D01*
X59817812Y-26502639D01*
X60020548Y-26626875D01*
X60246296Y-26720383D01*
X60246307Y-26720386D01*
X60483892Y-26777426D01*
X60483902Y-26777428D01*
X60727497Y-26796600D01*
X60727503Y-26796600D01*
X60971097Y-26777428D01*
X60971107Y-26777426D01*
X61208692Y-26720386D01*
X61208703Y-26720383D01*
X61434453Y-26626875D01*
X61434460Y-26626871D01*
X61637185Y-26502640D01*
X61637186Y-26502639D01*
X61350115Y-26215568D01*
X61480388Y-26120919D01*
X61609019Y-25992288D01*
X61703668Y-25862015D01*
X61990739Y-26149086D01*
X61990740Y-26149085D01*
X62114971Y-25946360D01*
X62114975Y-25946353D01*
X62208483Y-25720603D01*
X62208486Y-25720592D01*
X62265526Y-25483007D01*
X62265528Y-25482997D01*
X62284700Y-25239402D01*
X62284700Y-25239397D01*
X62265528Y-24995802D01*
X62265526Y-24995792D01*
X62208486Y-24758207D01*
X62208483Y-24758196D01*
X62114975Y-24532448D01*
X61990739Y-24329712D01*
X61703667Y-24616783D01*
X61609019Y-24486512D01*
X61480388Y-24357881D01*
X61350114Y-24263231D01*
X61637186Y-23976159D01*
X61434453Y-23851925D01*
X61208703Y-23758416D01*
X61208692Y-23758413D01*
X60971107Y-23701373D01*
X60971097Y-23701371D01*
X60727503Y-23682200D01*
X60727497Y-23682200D01*
X60483902Y-23701371D01*
X60483892Y-23701373D01*
X60246307Y-23758413D01*
X60246296Y-23758416D01*
X60020546Y-23851925D01*
X59817812Y-23976159D01*
X60104884Y-24263231D01*
X59974612Y-24357881D01*
X59845981Y-24486512D01*
X59751331Y-24616784D01*
X59464259Y-24329712D01*
X59340025Y-24532446D01*
X59246516Y-24758196D01*
X59246513Y-24758207D01*
X59189473Y-24995792D01*
X59189471Y-24995802D01*
X59170300Y-25239397D01*
X49144701Y-25239397D01*
X49125529Y-24995802D01*
X49125527Y-24995792D01*
X49068487Y-24758207D01*
X49068484Y-24758196D01*
X48974976Y-24532448D01*
X48850740Y-24329712D01*
X48563668Y-24616783D01*
X48469020Y-24486512D01*
X48340389Y-24357881D01*
X48210115Y-24263231D01*
X48497187Y-23976159D01*
X48294454Y-23851925D01*
X48068704Y-23758416D01*
X48068693Y-23758413D01*
X47831108Y-23701373D01*
X47831098Y-23701371D01*
X47587504Y-23682200D01*
X47587498Y-23682200D01*
X47343903Y-23701371D01*
X47343893Y-23701373D01*
X47106308Y-23758413D01*
X47106297Y-23758416D01*
X46880547Y-23851925D01*
X46677813Y-23976159D01*
X46964885Y-24263231D01*
X46834613Y-24357881D01*
X46705982Y-24486512D01*
X46611332Y-24616784D01*
X46324260Y-24329712D01*
X46200026Y-24532446D01*
X46106517Y-24758196D01*
X46106514Y-24758207D01*
X46049474Y-24995792D01*
X46049472Y-24995802D01*
X46030301Y-25239397D01*
X14500500Y-25239397D01*
X14500500Y-20000000D01*
X16494696Y-20000000D01*
X16513897Y-20366403D01*
X16571293Y-20728786D01*
X16571294Y-20728788D01*
X16571295Y-20728794D01*
X16666258Y-21083199D01*
X16666260Y-21083206D01*
X16797741Y-21425730D01*
X16797742Y-21425731D01*
X16964317Y-21752651D01*
X17164149Y-22060366D01*
X17164155Y-22060375D01*
X17395047Y-22345501D01*
X17395064Y-22345520D01*
X17654479Y-22604935D01*
X17654488Y-22604943D01*
X17654494Y-22604949D01*
X17654498Y-22604952D01*
X17939624Y-22835844D01*
X17939631Y-22835849D01*
X17939634Y-22835851D01*
X18247348Y-23035682D01*
X18574268Y-23202257D01*
X18574269Y-23202258D01*
X18916793Y-23333739D01*
X18916801Y-23333742D01*
X19271206Y-23428705D01*
X19633596Y-23486102D01*
X20000000Y-23505304D01*
X20366404Y-23486102D01*
X20728794Y-23428705D01*
X21083199Y-23333742D01*
X21189364Y-23292989D01*
X21425730Y-23202258D01*
X21425731Y-23202257D01*
X21425731Y-23202256D01*
X21425736Y-23202255D01*
X21752652Y-23035682D01*
X22060366Y-22835851D01*
X22345506Y-22604949D01*
X22604949Y-22345506D01*
X22835851Y-22060366D01*
X23035682Y-21752652D01*
X23202255Y-21425736D01*
X23202257Y-21425731D01*
X23202258Y-21425730D01*
X23333739Y-21083206D01*
X23333742Y-21083199D01*
X23428705Y-20728794D01*
X23486102Y-20366404D01*
X23505304Y-20000000D01*
X23486102Y-19633596D01*
X23460983Y-19475001D01*
X29367400Y-19475001D01*
X29387751Y-19681637D01*
X29448027Y-19880340D01*
X29524547Y-20023500D01*
X29827318Y-19720728D01*
X29852616Y-19781802D01*
X29923499Y-19887886D01*
X30013715Y-19978102D01*
X30119799Y-20048985D01*
X30180870Y-20074281D01*
X29878099Y-20377052D01*
X30021260Y-20453573D01*
X30219965Y-20513849D01*
X30219961Y-20513849D01*
X30426600Y-20534200D01*
X30633236Y-20513849D01*
X30831938Y-20453573D01*
X30975099Y-20377052D01*
X30672328Y-20074281D01*
X30733401Y-20048985D01*
X30839485Y-19978102D01*
X30929701Y-19887886D01*
X31000584Y-19781802D01*
X31025880Y-19720729D01*
X31328651Y-20023500D01*
X31405172Y-19880339D01*
X31465448Y-19681637D01*
X31485799Y-19475001D01*
X31485799Y-19474998D01*
X34399678Y-19474998D01*
X34399678Y-19475003D01*
X34418525Y-19678401D01*
X34474424Y-19874865D01*
X34474426Y-19874868D01*
X34565473Y-20057716D01*
X34688571Y-20220726D01*
X34688574Y-20220729D01*
X34839527Y-20358342D01*
X34839529Y-20358343D01*
X34839530Y-20358344D01*
X34879491Y-20383087D01*
X35013198Y-20465875D01*
X35013200Y-20465875D01*
X35013202Y-20465877D01*
X35203676Y-20539667D01*
X35404466Y-20577201D01*
X35404471Y-20577201D01*
X35608729Y-20577201D01*
X35608734Y-20577201D01*
X35809524Y-20539667D01*
X35999998Y-20465877D01*
X36173670Y-20358344D01*
X36324625Y-20220730D01*
X36447724Y-20057720D01*
X36476465Y-20000000D01*
X64494696Y-20000000D01*
X64513897Y-20366403D01*
X64571293Y-20728786D01*
X64571294Y-20728788D01*
X64571295Y-20728794D01*
X64666258Y-21083199D01*
X64666260Y-21083206D01*
X64797741Y-21425730D01*
X64797742Y-21425731D01*
X64964317Y-21752651D01*
X65164149Y-22060366D01*
X65164155Y-22060375D01*
X65395047Y-22345501D01*
X65395064Y-22345520D01*
X65654479Y-22604935D01*
X65654488Y-22604943D01*
X65654494Y-22604949D01*
X65654498Y-22604952D01*
X65939624Y-22835844D01*
X65939631Y-22835849D01*
X65939634Y-22835851D01*
X66247348Y-23035682D01*
X66574268Y-23202257D01*
X66574269Y-23202258D01*
X66916793Y-23333739D01*
X66916801Y-23333742D01*
X67271206Y-23428705D01*
X67633596Y-23486102D01*
X68000000Y-23505304D01*
X68366404Y-23486102D01*
X68728794Y-23428705D01*
X69083199Y-23333742D01*
X69189364Y-23292989D01*
X69425730Y-23202258D01*
X69425731Y-23202257D01*
X69425731Y-23202256D01*
X69425736Y-23202255D01*
X69752652Y-23035682D01*
X70060366Y-22835851D01*
X70345506Y-22604949D01*
X70604949Y-22345506D01*
X70835851Y-22060366D01*
X71035682Y-21752652D01*
X71202255Y-21425736D01*
X71202257Y-21425731D01*
X71202258Y-21425730D01*
X71333739Y-21083206D01*
X71333742Y-21083199D01*
X71428705Y-20728794D01*
X71486102Y-20366404D01*
X71505304Y-20000000D01*
X71486102Y-19633596D01*
X71428705Y-19271206D01*
X71333742Y-18916801D01*
X71308941Y-18852192D01*
X71202258Y-18574269D01*
X71202257Y-18574268D01*
X71118728Y-18410335D01*
X71035682Y-18247348D01*
X70835851Y-17939634D01*
X70835849Y-17939631D01*
X70835844Y-17939624D01*
X70604952Y-17654498D01*
X70604949Y-17654494D01*
X70604943Y-17654488D01*
X70604935Y-17654479D01*
X70345520Y-17395064D01*
X70345510Y-17395055D01*
X70345506Y-17395051D01*
X70335067Y-17386598D01*
X70060375Y-17164155D01*
X70060366Y-17164149D01*
X69752651Y-16964317D01*
X69425731Y-16797742D01*
X69425730Y-16797741D01*
X69083206Y-16666260D01*
X69083199Y-16666258D01*
X68728794Y-16571295D01*
X68728788Y-16571294D01*
X68728786Y-16571293D01*
X68366403Y-16513897D01*
X68000000Y-16494696D01*
X67633596Y-16513897D01*
X67271213Y-16571293D01*
X67271211Y-16571294D01*
X67271209Y-16571294D01*
X67271206Y-16571295D01*
X67022089Y-16638045D01*
X66916793Y-16666260D01*
X66574269Y-16797741D01*
X66574268Y-16797742D01*
X66247348Y-16964317D01*
X65939633Y-17164149D01*
X65939624Y-17164155D01*
X65654498Y-17395047D01*
X65654479Y-17395064D01*
X65395064Y-17654479D01*
X65395047Y-17654498D01*
X65164155Y-17939624D01*
X65164149Y-17939633D01*
X64964317Y-18247348D01*
X64797742Y-18574268D01*
X64797741Y-18574269D01*
X64666260Y-18916793D01*
X64571294Y-19271211D01*
X64571293Y-19271213D01*
X64513897Y-19633596D01*
X64494696Y-20000000D01*
X36476465Y-20000000D01*
X36538774Y-19874867D01*
X36551952Y-19828554D01*
X36594674Y-19678401D01*
X36594674Y-19678400D01*
X36594675Y-19678397D01*
X36613522Y-19475001D01*
X36594675Y-19271605D01*
X36594674Y-19271600D01*
X36538775Y-19075136D01*
X36538773Y-19075133D01*
X36447726Y-18892285D01*
X36324628Y-18729275D01*
X36324625Y-18729272D01*
X36173672Y-18591659D01*
X36000001Y-18484126D01*
X35809525Y-18410335D01*
X35776059Y-18404079D01*
X35608734Y-18372801D01*
X35404466Y-18372801D01*
X35270606Y-18397823D01*
X35203674Y-18410335D01*
X35013199Y-18484126D01*
X35013198Y-18484126D01*
X34839527Y-18591659D01*
X34688574Y-18729272D01*
X34688571Y-18729275D01*
X34565473Y-18892285D01*
X34474426Y-19075133D01*
X34474424Y-19075136D01*
X34418525Y-19271600D01*
X34399678Y-19474998D01*
X31485799Y-19474998D01*
X31465448Y-19268364D01*
X31405172Y-19069661D01*
X31328651Y-18926500D01*
X31025880Y-19229271D01*
X31000584Y-19168200D01*
X30929701Y-19062116D01*
X30839485Y-18971900D01*
X30733401Y-18901017D01*
X30672327Y-18875719D01*
X30975099Y-18572948D01*
X30831939Y-18496428D01*
X30633234Y-18436152D01*
X30633238Y-18436152D01*
X30426600Y-18415801D01*
X30219963Y-18436152D01*
X30021262Y-18496428D01*
X30021259Y-18496429D01*
X29878099Y-18572948D01*
X30180871Y-18875719D01*
X30119799Y-18901017D01*
X30013715Y-18971900D01*
X29923499Y-19062116D01*
X29852616Y-19168200D01*
X29827319Y-19229272D01*
X29524547Y-18926500D01*
X29448028Y-19069660D01*
X29448027Y-19069663D01*
X29387751Y-19268364D01*
X29367400Y-19475001D01*
X23460983Y-19475001D01*
X23428705Y-19271206D01*
X23333742Y-18916801D01*
X23308941Y-18852192D01*
X23202258Y-18574269D01*
X23202257Y-18574268D01*
X23118728Y-18410335D01*
X23035682Y-18247348D01*
X22835851Y-17939634D01*
X22835849Y-17939631D01*
X22835844Y-17939624D01*
X22604952Y-17654498D01*
X22604949Y-17654494D01*
X22604943Y-17654488D01*
X22604935Y-17654479D01*
X22345520Y-17395064D01*
X22345510Y-17395055D01*
X22345506Y-17395051D01*
X22335067Y-17386598D01*
X22060375Y-17164155D01*
X22060366Y-17164149D01*
X21752651Y-16964317D01*
X21425731Y-16797742D01*
X21425730Y-16797741D01*
X21083206Y-16666260D01*
X21083199Y-16666258D01*
X20728794Y-16571295D01*
X20728788Y-16571294D01*
X20728786Y-16571293D01*
X20366403Y-16513897D01*
X20000000Y-16494696D01*
X19633596Y-16513897D01*
X19271213Y-16571293D01*
X19271211Y-16571294D01*
X19271209Y-16571294D01*
X19271206Y-16571295D01*
X19022089Y-16638045D01*
X18916793Y-16666260D01*
X18574269Y-16797741D01*
X18574268Y-16797742D01*
X18247348Y-16964317D01*
X17939633Y-17164149D01*
X17939624Y-17164155D01*
X17654498Y-17395047D01*
X17654479Y-17395064D01*
X17395064Y-17654479D01*
X17395047Y-17654498D01*
X17164155Y-17939624D01*
X17164149Y-17939633D01*
X16964317Y-18247348D01*
X16797742Y-18574268D01*
X16797741Y-18574269D01*
X16666260Y-18916793D01*
X16571294Y-19271211D01*
X16571293Y-19271213D01*
X16513897Y-19633596D01*
X16494696Y-20000000D01*
X14500500Y-20000000D01*
X14500500Y-16002680D01*
X14500692Y-15997315D01*
X14515379Y-15791963D01*
X14516902Y-15781361D01*
X14560099Y-15582782D01*
X14563114Y-15572515D01*
X14634129Y-15382118D01*
X14638585Y-15372363D01*
X14702815Y-15254734D01*
X14735965Y-15194024D01*
X14741757Y-15185010D01*
X14863540Y-15022328D01*
X14870555Y-15014234D01*
X15014234Y-14870555D01*
X15022328Y-14863540D01*
X15185010Y-14741757D01*
X15194024Y-14735965D01*
X15372367Y-14638582D01*
X15382118Y-14634129D01*
X15572515Y-14563114D01*
X15582782Y-14560099D01*
X15781361Y-14516902D01*
X15791958Y-14515379D01*
X15997316Y-14500692D01*
X16002681Y-14500500D01*
X16065892Y-14500500D01*
X71934108Y-14500500D01*
X71997319Y-14500500D01*
X72002684Y-14500692D01*
G37*
G04 #@! TD.AperFunction*
M02*
