G04 ===== Begin FILE IDENTIFICATION =====*
G04 File Format:  Gerber RS274X*
G04 ===== End FILE IDENTIFICATION =====*
%FSLAX24Y24*%
%MOIN*%
%SFA1.0000B1.0000*%
%OFA0.0B0.0*%
%ADD14C,0.000984*%
%ADD15R,0.196850X0.098425*%
%LNcond*%
%IPPOS*%
%LPD*%
G75*
D14*
G01X-5906Y-12380D02*
G01X-5905Y11229D01*
G01X-6299Y-12380D02*
G01X-5906D01*
G01X-6299Y-11986D02*
G01X-5906D01*
G01X-6299Y-11592D02*
G01X-5906D01*
G01X-6299Y-11199D02*
G01X-5906D01*
G01X-6299Y-10805D02*
G01X-5906D01*
G01X-6299Y-10411D02*
G01X-5906D01*
G01X-6299Y-10018D02*
G01X-5906D01*
G01X-6299Y-9624D02*
G01X-5906D01*
G01X-6299Y-9230D02*
G01X-5906D01*
G01X-6299Y-8836D02*
G01X-5906D01*
G01X-6299Y-8443D02*
G01X-5906D01*
G01X-6299Y-8049D02*
G01X-5906D01*
G01X-6299Y-7655D02*
G01X-5906D01*
G01X-6299Y-7262D02*
G01X-5906D01*
G01X-6299Y-6868D02*
G01X-5906D01*
G01X-6299Y-6474D02*
G01X-5906D01*
G01X-6299Y-6081D02*
G01X-5906D01*
G01X-6299Y-5687D02*
G01X-5906D01*
G01X-6299Y-5293D02*
G01X-5906D01*
G01X-6299Y-4899D02*
G01X-5906D01*
G01X-6299Y-4506D02*
G01X-5906D01*
G01X-6299Y-4112D02*
G01X-5906D01*
G01X-6299Y-3718D02*
G01X-5906D01*
G01X-6299Y-3325D02*
G01X-5906D01*
G01X-6299Y-2931D02*
G01X-5906D01*
G01X-6299Y-2537D02*
G01X-5906D01*
G01X-6299Y-2144D02*
G01X-5906D01*
G01X-6299Y-1750D02*
G01X-5906D01*
G01X-6299Y-1356D02*
G01X-5906D01*
G01X-6299Y-962D02*
G01X-5906D01*
G01X-6299Y-569D02*
G01X-5906D01*
G01X-6299Y-175D02*
G01X-5906D01*
G01X-6299Y219D02*
G01X-5906D01*
G01X-6299Y612D02*
G01X-5906D01*
G01X-6299Y1006D02*
G01X-5906D01*
G01X-6299Y1400D02*
G01X-5906D01*
G01X-6299Y1793D02*
G01X-5906D01*
G01X-6299Y2187D02*
G01X-5906D01*
G01X-6299Y2581D02*
G01X-5906D01*
G01X-6299Y2975D02*
G01X-5906D01*
G01X-6299Y3368D02*
G01X-5906D01*
G01X-6299Y3762D02*
G01X-5906D01*
G01X-6299Y4156D02*
G01X-5906D01*
G01X-6299Y4549D02*
G01X-5906D01*
G01X-6299Y4943D02*
G01X-5906D01*
G01X-6299Y5337D02*
G01X-5906D01*
G01X-6299Y5730D02*
G01X-5906D01*
G01X-6299Y6124D02*
G01X-5906D01*
G01X-6299Y6518D02*
G01X-5906D01*
G01X-6299Y6912D02*
G01X-5906D01*
G01X-6299Y7305D02*
G01X-5906D01*
G01X-6299Y7699D02*
G01X-5906D01*
G01X-6299Y8093D02*
G01X-5906D01*
G01X-6299Y8486D02*
G01X-5906D01*
G01X-6299Y8880D02*
G01X-5906D01*
G01X-6299Y9274D02*
G01X-5906D01*
G01X-6299Y9667D02*
G01X-5906D01*
G01X-6299Y10061D02*
G01X-5906D01*
G01X-6299Y10455D02*
G01X-5906D01*
G01X-6299Y10849D02*
G01X-5906D01*
G36*
G01X-10190Y-12352D02*
G01X-10070Y-12619D01*
G01X-9703Y-12705D01*
G01X-9513D01*
G01X-9159Y-12616D01*
G01X-9040Y-12350D01*
G01X-9161Y-12083D01*
G01X-9533Y-11998D01*
G01X-9717D01*
G01X-9727Y-12001D01*
G01Y-12140D01*
G01X-9494D01*
G01X-9237Y-12194D01*
G01X-9156Y-12350D01*
G01X-9242Y-12510D01*
G01X-9510Y-12563D01*
G01X-9738D01*
G01X-9991Y-12511D01*
G01X-10073Y-12352D01*
G01X-9991Y-12191D01*
G01X-9727Y-12140D01*
G01Y-12001D01*
G01X-10074Y-12086D01*
G01X-10190Y-12352D01*
G37*
D14*
G01X-6693Y-8443D02*
G01X-5906D01*
G36*
G01X-6693Y-12023D02*
G01Y-12094D01*
G01X-7167D01*
G01X-7114Y-12238D01*
G01X-7179D01*
G01X-7255Y-12034D01*
G01Y-12023D01*
G01X-6693D01*
G37*
G36*
G01X-7260Y-11613D02*
G01X-7200Y-11747D01*
G01X-7017Y-11789D01*
G01X-6922D01*
G01X-6745Y-11745D01*
G01X-6685Y-11612D01*
G01X-6746Y-11479D01*
G01X-6932Y-11436D01*
G01X-7024D01*
G01X-7029Y-11437D01*
G01Y-11507D01*
G01X-6912D01*
G01X-6784Y-11534D01*
G01X-6743Y-11612D01*
G01X-6787Y-11692D01*
G01X-6921Y-11718D01*
G01X-7034D01*
G01X-7161Y-11692D01*
G01X-7202Y-11613D01*
G01X-7161Y-11533D01*
G01X-7029Y-11507D01*
G01Y-11437D01*
G01X-7203Y-11480D01*
G01X-7260Y-11613D01*
G37*
G36*
G01X-6730Y-11322D02*
G01X-6761Y-11312D01*
G01X-6773Y-11279D01*
G01X-6761Y-11245D01*
G01X-6730Y-11234D01*
G01X-6701Y-11245D01*
G01X-6689Y-11279D01*
G01X-6701Y-11312D01*
G01X-6730Y-11322D01*
G37*
G36*
G01X-7260Y-10936D02*
G01X-7200Y-11070D01*
G01X-7017Y-11113D01*
G01X-6922D01*
G01X-6745Y-11068D01*
G01X-6685Y-10935D01*
G01X-6746Y-10802D01*
G01X-6932Y-10759D01*
G01X-7024D01*
G01X-7029Y-10761D01*
G01Y-10830D01*
G01X-6912D01*
G01X-6784Y-10857D01*
G01X-6743Y-10935D01*
G01X-6787Y-11015D01*
G01X-6921Y-11042D01*
G01X-7034D01*
G01X-7161Y-11016D01*
G01X-7202Y-10936D01*
G01X-7161Y-10856D01*
G01X-7029Y-10830D01*
G01Y-10761D01*
G01X-7203Y-10803D01*
G01X-7260Y-10936D01*
G37*
G36*
G01X-7260Y-10467D02*
G01X-7200Y-10600D01*
G01X-7017Y-10643D01*
G01X-6922D01*
G01X-6745Y-10599D01*
G01X-6685Y-10466D01*
G01X-6746Y-10333D01*
G01X-6932Y-10290D01*
G01X-7024D01*
G01X-7029Y-10291D01*
G01Y-10361D01*
G01X-6912D01*
G01X-6784Y-10388D01*
G01X-6743Y-10466D01*
G01X-6787Y-10546D01*
G01X-6921Y-10572D01*
G01X-7034D01*
G01X-7161Y-10546D01*
G01X-7202Y-10467D01*
G01X-7161Y-10386D01*
G01X-7029Y-10361D01*
G01Y-10291D01*
G01X-7203Y-10334D01*
G01X-7260Y-10467D01*
G37*
G36*
G01X-7260Y-9997D02*
G01X-7200Y-10131D01*
G01X-7017Y-10174D01*
G01X-6922D01*
G01X-6745Y-10129D01*
G01X-6685Y-9996D01*
G01X-6746Y-9863D01*
G01X-6932Y-9820D01*
G01X-7024D01*
G01X-7029Y-9822D01*
G01Y-9891D01*
G01X-6912D01*
G01X-6784Y-9918D01*
G01X-6743Y-9996D01*
G01X-6787Y-10076D01*
G01X-6921Y-10103D01*
G01X-7034D01*
G01X-7161Y-10077D01*
G01X-7202Y-9997D01*
G01X-7161Y-9917D01*
G01X-7029Y-9891D01*
G01Y-9822D01*
G01X-7203Y-9864D01*
G01X-7260Y-9997D01*
G37*
G36*
G01X-7260Y-9528D02*
G01X-7200Y-9662D01*
G01X-7017Y-9704D01*
G01X-6922D01*
G01X-6745Y-9660D01*
G01X-6685Y-9527D01*
G01X-6746Y-9394D01*
G01X-6932Y-9351D01*
G01X-7024D01*
G01X-7029Y-9352D01*
G01Y-9422D01*
G01X-6912D01*
G01X-6784Y-9449D01*
G01X-6743Y-9527D01*
G01X-6787Y-9607D01*
G01X-6921Y-9633D01*
G01X-7034D01*
G01X-7161Y-9607D01*
G01X-7202Y-9528D01*
G01X-7161Y-9447D01*
G01X-7029Y-9422D01*
G01Y-9352D01*
G01X-7203Y-9395D01*
G01X-7260Y-9528D01*
G37*
G36*
G01X-7260Y-9058D02*
G01X-7200Y-9192D01*
G01X-7017Y-9235D01*
G01X-6922D01*
G01X-6745Y-9190D01*
G01X-6685Y-9057D01*
G01X-6746Y-8924D01*
G01X-6932Y-8881D01*
G01X-7024D01*
G01X-7029Y-8883D01*
G01Y-8952D01*
G01X-6912D01*
G01X-6784Y-8979D01*
G01X-6743Y-9057D01*
G01X-6787Y-9137D01*
G01X-6921Y-9164D01*
G01X-7034D01*
G01X-7161Y-9138D01*
G01X-7202Y-9058D01*
G01X-7161Y-8978D01*
G01X-7029Y-8952D01*
G01Y-8883D01*
G01X-7203Y-8925D01*
G01X-7260Y-9058D01*
G37*
G36*
G01X-7260Y-8589D02*
G01X-7200Y-8723D01*
G01X-7017Y-8765D01*
G01X-6922D01*
G01X-6745Y-8721D01*
G01X-6685Y-8588D01*
G01X-6746Y-8455D01*
G01X-6932Y-8412D01*
G01X-7024D01*
G01X-7029Y-8413D01*
G01Y-8483D01*
G01X-6912D01*
G01X-6784Y-8510D01*
G01X-6743Y-8588D01*
G01X-6787Y-8668D01*
G01X-6921Y-8694D01*
G01X-7034D01*
G01X-7161Y-8668D01*
G01X-7202Y-8589D01*
G01X-7161Y-8508D01*
G01X-7029Y-8483D01*
G01Y-8413D01*
G01X-7203Y-8456D01*
G01X-7260Y-8589D01*
G37*
G36*
G01X-7260Y-8119D02*
G01X-7200Y-8253D01*
G01X-7017Y-8296D01*
G01X-6922D01*
G01X-6745Y-8251D01*
G01X-6685Y-8118D01*
G01X-6746Y-7985D01*
G01X-6932Y-7942D01*
G01X-7024D01*
G01X-7029Y-7944D01*
G01Y-8014D01*
G01X-6912D01*
G01X-6784Y-8040D01*
G01X-6743Y-8118D01*
G01X-6787Y-8198D01*
G01X-6921Y-8225D01*
G01X-7034D01*
G01X-7161Y-8199D01*
G01X-7202Y-8119D01*
G01X-7161Y-8039D01*
G01X-7029Y-8014D01*
G01Y-7944D01*
G01X-7203Y-7986D01*
G01X-7260Y-8119D01*
G37*
G36*
G01X-7260Y-7650D02*
G01X-7200Y-7784D01*
G01X-7017Y-7826D01*
G01X-6922D01*
G01X-6745Y-7782D01*
G01X-6685Y-7649D01*
G01X-6746Y-7516D01*
G01X-6932Y-7473D01*
G01X-7024D01*
G01X-7029Y-7474D01*
G01Y-7544D01*
G01X-6912D01*
G01X-6784Y-7571D01*
G01X-6743Y-7649D01*
G01X-6787Y-7729D01*
G01X-6921Y-7755D01*
G01X-7034D01*
G01X-7161Y-7729D01*
G01X-7202Y-7650D01*
G01X-7161Y-7569D01*
G01X-7029Y-7544D01*
G01Y-7474D01*
G01X-7203Y-7517D01*
G01X-7260Y-7650D01*
G37*
G36*
G01X-7260Y-7180D02*
G01X-7200Y-7314D01*
G01X-7017Y-7357D01*
G01X-6922D01*
G01X-6745Y-7312D01*
G01X-6685Y-7180D01*
G01X-6746Y-7046D01*
G01X-6932Y-7003D01*
G01X-7024D01*
G01X-7029Y-7005D01*
G01Y-7075D01*
G01X-6912D01*
G01X-6784Y-7101D01*
G01X-6743Y-7180D01*
G01X-6787Y-7259D01*
G01X-6921Y-7286D01*
G01X-7034D01*
G01X-7161Y-7260D01*
G01X-7202Y-7180D01*
G01X-7161Y-7100D01*
G01X-7029Y-7075D01*
G01Y-7005D01*
G01X-7203Y-7047D01*
G01X-7260Y-7180D01*
G37*
G36*
G01X-7260Y-6711D02*
G01X-7200Y-6845D01*
G01X-7017Y-6887D01*
G01X-6922D01*
G01X-6745Y-6843D01*
G01X-6685Y-6710D01*
G01X-6746Y-6577D01*
G01X-6932Y-6534D01*
G01X-7024D01*
G01X-7029Y-6535D01*
G01Y-6605D01*
G01X-6912D01*
G01X-6784Y-6632D01*
G01X-6743Y-6710D01*
G01X-6787Y-6790D01*
G01X-6921Y-6816D01*
G01X-7034D01*
G01X-7161Y-6790D01*
G01X-7202Y-6711D01*
G01X-7161Y-6630D01*
G01X-7029Y-6605D01*
G01Y-6535D01*
G01X-7203Y-6578D01*
G01X-7260Y-6711D01*
G37*
G36*
G01X-7260Y-6241D02*
G01X-7200Y-6375D01*
G01X-7017Y-6418D01*
G01X-6922D01*
G01X-6745Y-6373D01*
G01X-6685Y-6241D01*
G01X-6746Y-6107D01*
G01X-6932Y-6064D01*
G01X-7024D01*
G01X-7029Y-6066D01*
G01Y-6136D01*
G01X-6912D01*
G01X-6784Y-6162D01*
G01X-6743Y-6241D01*
G01X-6787Y-6320D01*
G01X-6921Y-6347D01*
G01X-7034D01*
G01X-7161Y-6321D01*
G01X-7202Y-6241D01*
G01X-7161Y-6161D01*
G01X-7029Y-6136D01*
G01Y-6066D01*
G01X-7203Y-6108D01*
G01X-7260Y-6241D01*
G37*
G36*
G01X-7260Y-5772D02*
G01X-7200Y-5906D01*
G01X-7017Y-5948D01*
G01X-6922D01*
G01X-6745Y-5904D01*
G01X-6685Y-5771D01*
G01X-6746Y-5638D01*
G01X-6932Y-5595D01*
G01X-7024D01*
G01X-7029Y-5596D01*
G01Y-5666D01*
G01X-6912D01*
G01X-6784Y-5693D01*
G01X-6743Y-5771D01*
G01X-6787Y-5851D01*
G01X-6921Y-5877D01*
G01X-7034D01*
G01X-7161Y-5851D01*
G01X-7202Y-5772D01*
G01X-7161Y-5691D01*
G01X-7029Y-5666D01*
G01Y-5596D01*
G01X-7203Y-5639D01*
G01X-7260Y-5772D01*
G37*
G36*
G01X-7260Y-5302D02*
G01X-7200Y-5436D01*
G01X-7017Y-5479D01*
G01X-6922D01*
G01X-6745Y-5434D01*
G01X-6685Y-5302D01*
G01X-6746Y-5168D01*
G01X-6932Y-5125D01*
G01X-7024D01*
G01X-7029Y-5127D01*
G01Y-5197D01*
G01X-6912D01*
G01X-6784Y-5223D01*
G01X-6743Y-5302D01*
G01X-6787Y-5381D01*
G01X-6921Y-5408D01*
G01X-7034D01*
G01X-7161Y-5382D01*
G01X-7202Y-5302D01*
G01X-7161Y-5222D01*
G01X-7029Y-5197D01*
G01Y-5127D01*
G01X-7203Y-5169D01*
G01X-7260Y-5302D01*
G37*
G36*
G01X-7260Y-4833D02*
G01X-7200Y-4967D01*
G01X-7017Y-5009D01*
G01X-6922D01*
G01X-6745Y-4965D01*
G01X-6685Y-4832D01*
G01X-6746Y-4699D01*
G01X-6932Y-4656D01*
G01X-7024D01*
G01X-7029Y-4657D01*
G01Y-4727D01*
G01X-6912D01*
G01X-6784Y-4754D01*
G01X-6743Y-4832D01*
G01X-6787Y-4912D01*
G01X-6921Y-4938D01*
G01X-7034D01*
G01X-7161Y-4912D01*
G01X-7202Y-4833D01*
G01X-7161Y-4752D01*
G01X-7029Y-4727D01*
G01Y-4657D01*
G01X-7203Y-4700D01*
G01X-7260Y-4833D01*
G37*
G36*
G01X-6693Y-4171D02*
G01Y-4538D01*
G01X-6744D01*
G01X-6959Y-4344D01*
G01X-7039Y-4284D01*
G01X-7102Y-4268D01*
G01X-7174Y-4295D01*
G01X-7202Y-4365D01*
G01X-7172Y-4448D01*
G01X-7088Y-4477D01*
G01Y-4548D01*
G01X-7213Y-4498D01*
G01X-7260Y-4365D01*
G01X-7219Y-4242D01*
G01X-7110Y-4196D01*
G01X-6914Y-4302D01*
G01X-6751Y-4452D01*
G01Y-4171D01*
G01X-6693D01*
G37*
D14*
G01X-6693Y-4506D02*
G01X-5906D01*
G36*
G01X-6693Y-7953D02*
G01Y-8320D01*
G01X-6744D01*
G01X-6959Y-8126D01*
G01X-7039Y-8066D01*
G01X-7102Y-8050D01*
G01X-7174Y-8077D01*
G01X-7202Y-8147D01*
G01X-7172Y-8230D01*
G01X-7088Y-8259D01*
G01Y-8330D01*
G01X-7213Y-8280D01*
G01X-7260Y-8147D01*
G01X-7219Y-8024D01*
G01X-7110Y-7978D01*
G01X-6914Y-8084D01*
G01X-6751Y-8234D01*
G01Y-7953D01*
G01X-6693D01*
G37*
G36*
G01X-7260Y-7676D02*
G01X-7200Y-7810D01*
G01X-7017Y-7852D01*
G01X-6922D01*
G01X-6745Y-7808D01*
G01X-6685Y-7675D01*
G01X-6746Y-7542D01*
G01X-6932Y-7499D01*
G01X-7024D01*
G01X-7029Y-7500D01*
G01Y-7570D01*
G01X-6912D01*
G01X-6784Y-7597D01*
G01X-6743Y-7675D01*
G01X-6787Y-7755D01*
G01X-6921Y-7781D01*
G01X-7034D01*
G01X-7161Y-7755D01*
G01X-7202Y-7676D01*
G01X-7161Y-7595D01*
G01X-7029Y-7570D01*
G01Y-7500D01*
G01X-7203Y-7543D01*
G01X-7260Y-7676D01*
G37*
G36*
G01X-6730Y-7385D02*
G01X-6761Y-7375D01*
G01X-6773Y-7342D01*
G01X-6761Y-7308D01*
G01X-6730Y-7297D01*
G01X-6701Y-7308D01*
G01X-6689Y-7342D01*
G01X-6701Y-7375D01*
G01X-6730Y-7385D01*
G37*
G36*
G01X-7260Y-6999D02*
G01X-7200Y-7133D01*
G01X-7017Y-7176D01*
G01X-6922D01*
G01X-6745Y-7131D01*
G01X-6685Y-6998D01*
G01X-6746Y-6865D01*
G01X-6932Y-6822D01*
G01X-7024D01*
G01X-7029Y-6824D01*
G01Y-6893D01*
G01X-6912D01*
G01X-6784Y-6920D01*
G01X-6743Y-6998D01*
G01X-6787Y-7078D01*
G01X-6921Y-7105D01*
G01X-7034D01*
G01X-7161Y-7079D01*
G01X-7202Y-6999D01*
G01X-7161Y-6919D01*
G01X-7029Y-6893D01*
G01Y-6824D01*
G01X-7203Y-6866D01*
G01X-7260Y-6999D01*
G37*
G36*
G01X-7260Y-6530D02*
G01X-7200Y-6663D01*
G01X-7017Y-6706D01*
G01X-6922D01*
G01X-6745Y-6662D01*
G01X-6685Y-6529D01*
G01X-6746Y-6396D01*
G01X-6932Y-6353D01*
G01X-7024D01*
G01X-7029Y-6354D01*
G01Y-6424D01*
G01X-6912D01*
G01X-6784Y-6451D01*
G01X-6743Y-6529D01*
G01X-6787Y-6609D01*
G01X-6921Y-6635D01*
G01X-7034D01*
G01X-7161Y-6609D01*
G01X-7202Y-6530D01*
G01X-7161Y-6449D01*
G01X-7029Y-6424D01*
G01Y-6354D01*
G01X-7203Y-6397D01*
G01X-7260Y-6530D01*
G37*
G36*
G01X-7260Y-6060D02*
G01X-7200Y-6194D01*
G01X-7017Y-6237D01*
G01X-6922D01*
G01X-6745Y-6192D01*
G01X-6685Y-6059D01*
G01X-6746Y-5926D01*
G01X-6932Y-5883D01*
G01X-7024D01*
G01X-7029Y-5885D01*
G01Y-5954D01*
G01X-6912D01*
G01X-6784Y-5981D01*
G01X-6743Y-6059D01*
G01X-6787Y-6139D01*
G01X-6921Y-6166D01*
G01X-7034D01*
G01X-7161Y-6140D01*
G01X-7202Y-6060D01*
G01X-7161Y-5980D01*
G01X-7029Y-5954D01*
G01Y-5885D01*
G01X-7203Y-5927D01*
G01X-7260Y-6060D01*
G37*
G36*
G01X-7260Y-5591D02*
G01X-7200Y-5725D01*
G01X-7017Y-5767D01*
G01X-6922D01*
G01X-6745Y-5723D01*
G01X-6685Y-5590D01*
G01X-6746Y-5457D01*
G01X-6932Y-5414D01*
G01X-7024D01*
G01X-7029Y-5415D01*
G01Y-5485D01*
G01X-6912D01*
G01X-6784Y-5512D01*
G01X-6743Y-5590D01*
G01X-6787Y-5670D01*
G01X-6921Y-5696D01*
G01X-7034D01*
G01X-7161Y-5670D01*
G01X-7202Y-5591D01*
G01X-7161Y-5510D01*
G01X-7029Y-5485D01*
G01Y-5415D01*
G01X-7203Y-5458D01*
G01X-7260Y-5591D01*
G37*
G36*
G01X-7260Y-5121D02*
G01X-7200Y-5255D01*
G01X-7017Y-5298D01*
G01X-6922D01*
G01X-6745Y-5253D01*
G01X-6685Y-5120D01*
G01X-6746Y-4987D01*
G01X-6932Y-4944D01*
G01X-7024D01*
G01X-7029Y-4946D01*
G01Y-5015D01*
G01X-6912D01*
G01X-6784Y-5042D01*
G01X-6743Y-5120D01*
G01X-6787Y-5200D01*
G01X-6921Y-5227D01*
G01X-7034D01*
G01X-7161Y-5201D01*
G01X-7202Y-5121D01*
G01X-7161Y-5041D01*
G01X-7029Y-5015D01*
G01Y-4946D01*
G01X-7203Y-4988D01*
G01X-7260Y-5121D01*
G37*
G36*
G01X-7260Y-4652D02*
G01X-7200Y-4786D01*
G01X-7017Y-4828D01*
G01X-6922D01*
G01X-6745Y-4784D01*
G01X-6685Y-4651D01*
G01X-6746Y-4518D01*
G01X-6932Y-4475D01*
G01X-7024D01*
G01X-7029Y-4476D01*
G01Y-4546D01*
G01X-6912D01*
G01X-6784Y-4573D01*
G01X-6743Y-4651D01*
G01X-6787Y-4731D01*
G01X-6921Y-4757D01*
G01X-7034D01*
G01X-7161Y-4731D01*
G01X-7202Y-4652D01*
G01X-7161Y-4571D01*
G01X-7029Y-4546D01*
G01Y-4476D01*
G01X-7203Y-4519D01*
G01X-7260Y-4652D01*
G37*
G36*
G01X-7260Y-4182D02*
G01X-7200Y-4316D01*
G01X-7017Y-4359D01*
G01X-6922D01*
G01X-6745Y-4314D01*
G01X-6685Y-4181D01*
G01X-6746Y-4048D01*
G01X-6932Y-4005D01*
G01X-7024D01*
G01X-7029Y-4007D01*
G01Y-4077D01*
G01X-6912D01*
G01X-6784Y-4103D01*
G01X-6743Y-4181D01*
G01X-6787Y-4261D01*
G01X-6921Y-4288D01*
G01X-7034D01*
G01X-7161Y-4262D01*
G01X-7202Y-4182D01*
G01X-7161Y-4102D01*
G01X-7029Y-4077D01*
G01Y-4007D01*
G01X-7203Y-4049D01*
G01X-7260Y-4182D01*
G37*
G36*
G01X-7260Y-3713D02*
G01X-7200Y-3847D01*
G01X-7017Y-3889D01*
G01X-6922D01*
G01X-6745Y-3845D01*
G01X-6685Y-3712D01*
G01X-6746Y-3579D01*
G01X-6932Y-3536D01*
G01X-7024D01*
G01X-7029Y-3537D01*
G01Y-3607D01*
G01X-6912D01*
G01X-6784Y-3634D01*
G01X-6743Y-3712D01*
G01X-6787Y-3792D01*
G01X-6921Y-3818D01*
G01X-7034D01*
G01X-7161Y-3792D01*
G01X-7202Y-3713D01*
G01X-7161Y-3632D01*
G01X-7029Y-3607D01*
G01Y-3537D01*
G01X-7203Y-3580D01*
G01X-7260Y-3713D01*
G37*
G36*
G01X-7260Y-3243D02*
G01X-7200Y-3377D01*
G01X-7017Y-3420D01*
G01X-6922D01*
G01X-6745Y-3375D01*
G01X-6685Y-3243D01*
G01X-6746Y-3109D01*
G01X-6932Y-3066D01*
G01X-7024D01*
G01X-7029Y-3068D01*
G01Y-3138D01*
G01X-6912D01*
G01X-6784Y-3164D01*
G01X-6743Y-3243D01*
G01X-6787Y-3322D01*
G01X-6921Y-3349D01*
G01X-7034D01*
G01X-7161Y-3323D01*
G01X-7202Y-3243D01*
G01X-7161Y-3163D01*
G01X-7029Y-3138D01*
G01Y-3068D01*
G01X-7203Y-3110D01*
G01X-7260Y-3243D01*
G37*
G36*
G01X-7260Y-2774D02*
G01X-7200Y-2908D01*
G01X-7017Y-2950D01*
G01X-6922D01*
G01X-6745Y-2906D01*
G01X-6685Y-2773D01*
G01X-6746Y-2640D01*
G01X-6932Y-2597D01*
G01X-7024D01*
G01X-7029Y-2598D01*
G01Y-2668D01*
G01X-6912D01*
G01X-6784Y-2695D01*
G01X-6743Y-2773D01*
G01X-6787Y-2853D01*
G01X-6921Y-2879D01*
G01X-7034D01*
G01X-7161Y-2853D01*
G01X-7202Y-2774D01*
G01X-7161Y-2693D01*
G01X-7029Y-2668D01*
G01Y-2598D01*
G01X-7203Y-2641D01*
G01X-7260Y-2774D01*
G37*
G36*
G01X-7260Y-2304D02*
G01X-7200Y-2438D01*
G01X-7017Y-2481D01*
G01X-6922D01*
G01X-6745Y-2436D01*
G01X-6685Y-2304D01*
G01X-6746Y-2170D01*
G01X-6932Y-2127D01*
G01X-7024D01*
G01X-7029Y-2129D01*
G01Y-2199D01*
G01X-6912D01*
G01X-6784Y-2225D01*
G01X-6743Y-2304D01*
G01X-6787Y-2383D01*
G01X-6921Y-2410D01*
G01X-7034D01*
G01X-7161Y-2384D01*
G01X-7202Y-2304D01*
G01X-7161Y-2224D01*
G01X-7029Y-2199D01*
G01Y-2129D01*
G01X-7203Y-2171D01*
G01X-7260Y-2304D01*
G37*
G36*
G01X-7260Y-1835D02*
G01X-7200Y-1969D01*
G01X-7017Y-2011D01*
G01X-6922D01*
G01X-6745Y-1967D01*
G01X-6685Y-1834D01*
G01X-6746Y-1701D01*
G01X-6932Y-1658D01*
G01X-7024D01*
G01X-7029Y-1659D01*
G01Y-1729D01*
G01X-6912D01*
G01X-6784Y-1756D01*
G01X-6743Y-1834D01*
G01X-6787Y-1914D01*
G01X-6921Y-1940D01*
G01X-7034D01*
G01X-7161Y-1914D01*
G01X-7202Y-1835D01*
G01X-7161Y-1754D01*
G01X-7029Y-1729D01*
G01Y-1659D01*
G01X-7203Y-1702D01*
G01X-7260Y-1835D01*
G37*
G36*
G01X-7260Y-1365D02*
G01X-7200Y-1499D01*
G01X-7017Y-1542D01*
G01X-6922D01*
G01X-6745Y-1497D01*
G01X-6685Y-1365D01*
G01X-6746Y-1231D01*
G01X-6932Y-1188D01*
G01X-7024D01*
G01X-7029Y-1190D01*
G01Y-1260D01*
G01X-6912D01*
G01X-6784Y-1286D01*
G01X-6743Y-1365D01*
G01X-6787Y-1444D01*
G01X-6921Y-1471D01*
G01X-7034D01*
G01X-7161Y-1445D01*
G01X-7202Y-1365D01*
G01X-7161Y-1285D01*
G01X-7029Y-1260D01*
G01Y-1190D01*
G01X-7203Y-1232D01*
G01X-7260Y-1365D01*
G37*
G36*
G01X-7260Y-896D02*
G01X-7200Y-1030D01*
G01X-7017Y-1072D01*
G01X-6922D01*
G01X-6745Y-1028D01*
G01X-6685Y-895D01*
G01X-6746Y-762D01*
G01X-6932Y-719D01*
G01X-7024D01*
G01X-7029Y-720D01*
G01Y-790D01*
G01X-6912D01*
G01X-6784Y-817D01*
G01X-6743Y-895D01*
G01X-6787Y-975D01*
G01X-6921Y-1001D01*
G01X-7034D01*
G01X-7161Y-975D01*
G01X-7202Y-896D01*
G01X-7161Y-815D01*
G01X-7029Y-790D01*
G01Y-720D01*
G01X-7203Y-763D01*
G01X-7260Y-896D01*
G37*
G36*
G01X-6823Y-300D02*
G01Y-223D01*
G01X-6881D01*
G01Y-300D01*
G01X-7155D01*
G01Y-372D01*
G01X-6881D01*
G01Y-546D01*
G01X-7140Y-380D01*
G01X-7155Y-372D01*
G01Y-300D01*
G01X-7253D01*
G01Y-376D01*
G01X-6865Y-627D01*
G01X-6823D01*
G01Y-372D01*
G01X-6693D01*
G01Y-300D01*
G01X-6823D01*
G37*
D14*
G01X-6693Y-569D02*
G01X-5906D01*
G36*
G01X-7007Y-4279D02*
G01Y-4226D01*
G01X-7034Y-4146D01*
G01X-7104Y-4118D01*
G01X-7202Y-4216D01*
G01X-7176Y-4289D01*
G01X-7106Y-4317D01*
G01Y-4388D01*
G01X-7216Y-4339D01*
G01X-7260Y-4216D01*
G01X-7218Y-4091D01*
G01X-7102Y-4046D01*
G01X-7031Y-4070D01*
G01X-6980Y-4135D01*
G01X-6932Y-4063D01*
G01X-6849Y-4038D01*
G01X-6729Y-4087D01*
G01X-6685Y-4215D01*
G01X-6728Y-4343D01*
G01X-6841Y-4393D01*
G01Y-4321D01*
G01X-6770Y-4293D01*
G01X-6743Y-4215D01*
G01X-6770Y-4136D01*
G01X-6847Y-4109D01*
G01X-6922Y-4139D01*
G01X-6949Y-4226D01*
G01Y-4279D01*
G01X-7007D01*
G37*
G36*
G01X-7260Y-3739D02*
G01X-7200Y-3873D01*
G01X-7017Y-3915D01*
G01X-6922D01*
G01X-6745Y-3871D01*
G01X-6685Y-3738D01*
G01X-6746Y-3605D01*
G01X-6932Y-3562D01*
G01X-7024D01*
G01X-7029Y-3563D01*
G01Y-3633D01*
G01X-6912D01*
G01X-6784Y-3660D01*
G01X-6743Y-3738D01*
G01X-6787Y-3818D01*
G01X-6921Y-3844D01*
G01X-7034D01*
G01X-7161Y-3818D01*
G01X-7202Y-3739D01*
G01X-7161Y-3658D01*
G01X-7029Y-3633D01*
G01Y-3563D01*
G01X-7203Y-3606D01*
G01X-7260Y-3739D01*
G37*
G36*
G01X-6730Y-3448D02*
G01X-6761Y-3437D01*
G01X-6773Y-3405D01*
G01X-6761Y-3371D01*
G01X-6730Y-3360D01*
G01X-6701Y-3371D01*
G01X-6689Y-3405D01*
G01X-6701Y-3437D01*
G01X-6730Y-3448D01*
G37*
G36*
G01X-7260Y-3062D02*
G01X-7200Y-3196D01*
G01X-7017Y-3239D01*
G01X-6922D01*
G01X-6745Y-3194D01*
G01X-6685Y-3061D01*
G01X-6746Y-2928D01*
G01X-6932Y-2885D01*
G01X-7024D01*
G01X-7029Y-2887D01*
G01Y-2956D01*
G01X-6912D01*
G01X-6784Y-2983D01*
G01X-6743Y-3061D01*
G01X-6787Y-3141D01*
G01X-6921Y-3168D01*
G01X-7034D01*
G01X-7161Y-3142D01*
G01X-7202Y-3062D01*
G01X-7161Y-2982D01*
G01X-7029Y-2956D01*
G01Y-2887D01*
G01X-7203Y-2929D01*
G01X-7260Y-3062D01*
G37*
G36*
G01X-7260Y-2593D02*
G01X-7200Y-2726D01*
G01X-7017Y-2769D01*
G01X-6922D01*
G01X-6745Y-2725D01*
G01X-6685Y-2592D01*
G01X-6746Y-2458D01*
G01X-6932Y-2416D01*
G01X-7024D01*
G01X-7029Y-2417D01*
G01Y-2487D01*
G01X-6912D01*
G01X-6784Y-2514D01*
G01X-6743Y-2592D01*
G01X-6787Y-2672D01*
G01X-6921Y-2698D01*
G01X-7034D01*
G01X-7161Y-2672D01*
G01X-7202Y-2593D01*
G01X-7161Y-2512D01*
G01X-7029Y-2487D01*
G01Y-2417D01*
G01X-7203Y-2460D01*
G01X-7260Y-2593D01*
G37*
G36*
G01X-7260Y-2123D02*
G01X-7200Y-2257D01*
G01X-7017Y-2300D01*
G01X-6922D01*
G01X-6745Y-2255D01*
G01X-6685Y-2122D01*
G01X-6746Y-1989D01*
G01X-6932Y-1946D01*
G01X-7024D01*
G01X-7029Y-1948D01*
G01Y-2017D01*
G01X-6912D01*
G01X-6784Y-2044D01*
G01X-6743Y-2122D01*
G01X-6787Y-2202D01*
G01X-6921Y-2229D01*
G01X-7034D01*
G01X-7161Y-2203D01*
G01X-7202Y-2123D01*
G01X-7161Y-2043D01*
G01X-7029Y-2017D01*
G01Y-1948D01*
G01X-7203Y-1990D01*
G01X-7260Y-2123D01*
G37*
G36*
G01X-7260Y-1654D02*
G01X-7200Y-1787D01*
G01X-7017Y-1830D01*
G01X-6922D01*
G01X-6745Y-1786D01*
G01X-6685Y-1653D01*
G01X-6746Y-1520D01*
G01X-6932Y-1477D01*
G01X-7024D01*
G01X-7029Y-1478D01*
G01Y-1548D01*
G01X-6912D01*
G01X-6784Y-1575D01*
G01X-6743Y-1653D01*
G01X-6787Y-1733D01*
G01X-6921Y-1759D01*
G01X-7034D01*
G01X-7161Y-1733D01*
G01X-7202Y-1654D01*
G01X-7161Y-1573D01*
G01X-7029Y-1548D01*
G01Y-1478D01*
G01X-7203Y-1521D01*
G01X-7260Y-1654D01*
G37*
G36*
G01X-7260Y-1184D02*
G01X-7200Y-1318D01*
G01X-7017Y-1361D01*
G01X-6922D01*
G01X-6745Y-1316D01*
G01X-6685Y-1183D01*
G01X-6746Y-1050D01*
G01X-6932Y-1007D01*
G01X-7024D01*
G01X-7029Y-1009D01*
G01Y-1078D01*
G01X-6912D01*
G01X-6784Y-1105D01*
G01X-6743Y-1183D01*
G01X-6787Y-1263D01*
G01X-6921Y-1290D01*
G01X-7034D01*
G01X-7161Y-1264D01*
G01X-7202Y-1184D01*
G01X-7161Y-1104D01*
G01X-7029Y-1078D01*
G01Y-1009D01*
G01X-7203Y-1051D01*
G01X-7260Y-1184D01*
G37*
G36*
G01X-7260Y-715D02*
G01X-7200Y-849D01*
G01X-7017Y-891D01*
G01X-6922D01*
G01X-6745Y-847D01*
G01X-6685Y-714D01*
G01X-6746Y-581D01*
G01X-6932Y-538D01*
G01X-7024D01*
G01X-7029Y-539D01*
G01Y-609D01*
G01X-6912D01*
G01X-6784Y-636D01*
G01X-6743Y-714D01*
G01X-6787Y-794D01*
G01X-6921Y-820D01*
G01X-7034D01*
G01X-7161Y-794D01*
G01X-7202Y-715D01*
G01X-7161Y-634D01*
G01X-7029Y-609D01*
G01Y-539D01*
G01X-7203Y-582D01*
G01X-7260Y-715D01*
G37*
G36*
G01X-7260Y-245D02*
G01X-7200Y-379D01*
G01X-7017Y-422D01*
G01X-6922D01*
G01X-6745Y-377D01*
G01X-6685Y-244D01*
G01X-6746Y-111D01*
G01X-6932Y-68D01*
G01X-7024D01*
G01X-7029Y-70D01*
G01Y-140D01*
G01X-6912D01*
G01X-6784Y-166D01*
G01X-6743Y-244D01*
G01X-6787Y-324D01*
G01X-6921Y-351D01*
G01X-7034D01*
G01X-7161Y-325D01*
G01X-7202Y-245D01*
G01X-7161Y-165D01*
G01X-7029Y-140D01*
G01Y-70D01*
G01X-7203Y-112D01*
G01X-7260Y-245D01*
G37*
G36*
G01X-7260Y224D02*
G01X-7200Y90D01*
G01X-7017Y48D01*
G01X-6922D01*
G01X-6745Y92D01*
G01X-6685Y225D01*
G01X-6746Y358D01*
G01X-6932Y401D01*
G01X-7024D01*
G01X-7029Y400D01*
G01Y330D01*
G01X-6912D01*
G01X-6784Y303D01*
G01X-6743Y225D01*
G01X-6787Y145D01*
G01X-6921Y119D01*
G01X-7034D01*
G01X-7161Y145D01*
G01X-7202Y224D01*
G01X-7161Y305D01*
G01X-7029Y330D01*
G01Y400D01*
G01X-7203Y357D01*
G01X-7260Y224D01*
G37*
G36*
G01X-7260Y694D02*
G01X-7200Y560D01*
G01X-7017Y517D01*
G01X-6922D01*
G01X-6745Y562D01*
G01X-6685Y695D01*
G01X-6746Y828D01*
G01X-6932Y871D01*
G01X-7024D01*
G01X-7029Y869D01*
G01Y799D01*
G01X-6912D01*
G01X-6784Y773D01*
G01X-6743Y695D01*
G01X-6787Y615D01*
G01X-6921Y588D01*
G01X-7034D01*
G01X-7161Y614D01*
G01X-7202Y694D01*
G01X-7161Y774D01*
G01X-7029Y799D01*
G01Y869D01*
G01X-7203Y827D01*
G01X-7260Y694D01*
G37*
G36*
G01X-7260Y1163D02*
G01X-7200Y1029D01*
G01X-7017Y987D01*
G01X-6922D01*
G01X-6745Y1031D01*
G01X-6685Y1164D01*
G01X-6746Y1297D01*
G01X-6932Y1340D01*
G01X-7024D01*
G01X-7029Y1339D01*
G01Y1269D01*
G01X-6912D01*
G01X-6784Y1242D01*
G01X-6743Y1164D01*
G01X-6787Y1084D01*
G01X-6921Y1058D01*
G01X-7034D01*
G01X-7161Y1084D01*
G01X-7202Y1163D01*
G01X-7161Y1244D01*
G01X-7029Y1269D01*
G01Y1339D01*
G01X-7203Y1296D01*
G01X-7260Y1163D01*
G37*
G36*
G01X-7260Y1633D02*
G01X-7200Y1499D01*
G01X-7017Y1456D01*
G01X-6922D01*
G01X-6745Y1501D01*
G01X-6685Y1633D01*
G01X-6746Y1767D01*
G01X-6932Y1810D01*
G01X-7024D01*
G01X-7029Y1808D01*
G01Y1738D01*
G01X-6912D01*
G01X-6784Y1712D01*
G01X-6743Y1633D01*
G01X-6787Y1554D01*
G01X-6921Y1527D01*
G01X-7034D01*
G01X-7161Y1553D01*
G01X-7202Y1633D01*
G01X-7161Y1713D01*
G01X-7029Y1738D01*
G01Y1808D01*
G01X-7203Y1766D01*
G01X-7260Y1633D01*
G37*
G36*
G01X-7260Y2102D02*
G01X-7200Y1968D01*
G01X-7017Y1926D01*
G01X-6922D01*
G01X-6745Y1970D01*
G01X-6685Y2103D01*
G01X-6746Y2236D01*
G01X-6932Y2279D01*
G01X-7024D01*
G01X-7029Y2278D01*
G01Y2208D01*
G01X-6912D01*
G01X-6784Y2181D01*
G01X-6743Y2103D01*
G01X-6787Y2023D01*
G01X-6921Y1997D01*
G01X-7034D01*
G01X-7161Y2023D01*
G01X-7202Y2102D01*
G01X-7161Y2183D01*
G01X-7029Y2208D01*
G01Y2278D01*
G01X-7203Y2235D01*
G01X-7260Y2102D01*
G37*
G36*
G01X-7260Y2572D02*
G01X-7200Y2438D01*
G01X-7017Y2395D01*
G01X-6922D01*
G01X-6745Y2440D01*
G01X-6685Y2572D01*
G01X-6746Y2706D01*
G01X-6932Y2749D01*
G01X-7024D01*
G01X-7029Y2747D01*
G01Y2677D01*
G01X-6912D01*
G01X-6784Y2651D01*
G01X-6743Y2572D01*
G01X-6787Y2493D01*
G01X-6921Y2466D01*
G01X-7034D01*
G01X-7161Y2492D01*
G01X-7202Y2572D01*
G01X-7161Y2652D01*
G01X-7029Y2677D01*
G01Y2747D01*
G01X-7203Y2705D01*
G01X-7260Y2572D01*
G37*
G36*
G01X-7260Y3041D02*
G01X-7200Y2907D01*
G01X-7017Y2865D01*
G01X-6922D01*
G01X-6745Y2909D01*
G01X-6685Y3042D01*
G01X-6746Y3175D01*
G01X-6932Y3218D01*
G01X-7024D01*
G01X-7029Y3217D01*
G01Y3147D01*
G01X-6912D01*
G01X-6784Y3120D01*
G01X-6743Y3042D01*
G01X-6787Y2962D01*
G01X-6921Y2936D01*
G01X-7034D01*
G01X-7161Y2962D01*
G01X-7202Y3041D01*
G01X-7161Y3122D01*
G01X-7029Y3147D01*
G01Y3217D01*
G01X-7203Y3174D01*
G01X-7260Y3041D01*
G37*
G36*
G01X-6823Y3637D02*
G01Y3714D01*
G01X-6881D01*
G01Y3637D01*
G01X-7155D01*
G01Y3565D01*
G01X-6881D01*
G01Y3391D01*
G01X-7140Y3557D01*
G01X-7155Y3565D01*
G01Y3637D01*
G01X-7253D01*
G01Y3561D01*
G01X-6865Y3310D01*
G01X-6823D01*
G01Y3565D01*
G01X-6693D01*
G01Y3637D01*
G01X-6823D01*
G37*
D14*
G01X-6693Y3368D02*
G01X-5906D01*
G36*
G01X-6823Y3288D02*
G01Y3366D01*
G01X-6881D01*
G01Y3288D01*
G01X-7155D01*
G01Y3216D01*
G01X-6881D01*
G01Y3042D01*
G01X-7140Y3208D01*
G01X-7155Y3216D01*
G01Y3288D01*
G01X-7253D01*
G01Y3212D01*
G01X-6865Y2961D01*
G01X-6823D01*
G01Y3216D01*
G01X-6693D01*
G01Y3288D01*
G01X-6823D01*
G37*
G36*
G01X-7260Y3631D02*
G01X-7200Y3497D01*
G01X-7017Y3455D01*
G01X-6922D01*
G01X-6745Y3499D01*
G01X-6685Y3632D01*
G01X-6746Y3765D01*
G01X-6932Y3808D01*
G01X-7024D01*
G01X-7029Y3807D01*
G01Y3737D01*
G01X-6912D01*
G01X-6784Y3710D01*
G01X-6743Y3632D01*
G01X-6787Y3552D01*
G01X-6921Y3526D01*
G01X-7034D01*
G01X-7161Y3552D01*
G01X-7202Y3631D01*
G01X-7161Y3712D01*
G01X-7029Y3737D01*
G01Y3807D01*
G01X-7203Y3764D01*
G01X-7260Y3631D01*
G37*
D14*
G01X-6693Y7305D02*
G01X-5906D01*
G36*
G01X-6974Y6957D02*
G01X-7253Y6986D01*
G01Y7273D01*
G01X-7187D01*
G01Y7046D01*
G01X-7034Y7029D01*
G01X-7059Y7123D01*
G01X-7008Y7244D01*
G01X-6871Y7289D01*
G01X-6735Y7242D01*
G01X-6685Y7112D01*
G01X-6726Y6991D01*
G01X-6840Y6937D01*
G01Y7005D01*
G01X-6768Y7039D01*
G01X-6743Y7112D01*
G01X-6777Y7190D01*
G01X-6871Y7218D01*
G01X-6961Y7187D01*
G01X-6995Y7106D01*
G01X-6974Y7033D01*
G01X-6959Y7014D01*
G01X-6974Y6957D01*
G37*
G36*
G01X-7260Y7568D02*
G01X-7200Y7434D01*
G01X-7017Y7392D01*
G01X-6922D01*
G01X-6745Y7436D01*
G01X-6685Y7569D01*
G01X-6746Y7702D01*
G01X-6932Y7745D01*
G01X-7024D01*
G01X-7029Y7744D01*
G01Y7674D01*
G01X-6912D01*
G01X-6784Y7647D01*
G01X-6743Y7569D01*
G01X-6787Y7489D01*
G01X-6921Y7463D01*
G01X-7034D01*
G01X-7161Y7489D01*
G01X-7202Y7568D01*
G01X-7161Y7649D01*
G01X-7029Y7674D01*
G01Y7744D01*
G01X-7203Y7701D01*
G01X-7260Y7568D01*
G37*
D14*
G01X-9055Y-12380D02*
G01X-5906D01*
G01X-9055Y11229D02*
G01X-5905D01*
G36*
G01X-9616Y11415D02*
G01X-10175Y11472D01*
G01Y12046D01*
G01X-10043D01*
G01Y11593D01*
G01X-9738Y11559D01*
G01X-9786Y11746D01*
G01X-9685Y11989D01*
G01X-9412Y12079D01*
G01X-9139Y11985D01*
G01X-9040Y11724D01*
G01X-9122Y11482D01*
G01X-9350Y11375D01*
G01Y11510D01*
G01X-9205Y11578D01*
G01X-9156Y11724D01*
G01X-9223Y11880D01*
G01X-9410Y11936D01*
G01X-9591Y11875D01*
G01X-9659Y11713D01*
G01X-9618Y11567D01*
G01X-9587Y11529D01*
G01X-9616Y11415D01*
G37*
G36*
G01X-10190Y12619D02*
G01X-10142Y12436D01*
G01X-10005Y12315D01*
G01X-9802Y12273D01*
G01X-9611Y12312D01*
G01X-9477Y12423D01*
G01X-9430Y12592D01*
G01X-9462Y12727D01*
G01X-9547Y12834D01*
G01X-9267Y12731D01*
G01X-9175Y12460D01*
G01Y12430D01*
G01X-9054D01*
G01Y12458D01*
G01X-9208Y12848D01*
G01X-9686Y12977D01*
G01X-9727D01*
G01X-9756Y12969D01*
G01Y12835D01*
G01X-9699D01*
G01X-9591Y12747D01*
G01X-9547Y12615D01*
G01X-9621Y12468D01*
G01X-9810Y12413D01*
G01X-10000Y12469D01*
G01X-10072Y12620D01*
G01X-9984Y12774D01*
G01X-9756Y12835D01*
G01Y12969D01*
G01X-10066Y12881D01*
G01X-10190Y12619D01*
G37*
G36*
G01X-9130Y13218D02*
G01X-9191Y13240D01*
G01X-9216Y13306D01*
G01X-9191Y13372D01*
G01X-9130Y13395D01*
G01X-9070Y13372D01*
G01X-9047Y13306D01*
G01X-9070Y13240D01*
G01X-9130Y13218D01*
G37*
G36*
G01X-10190Y13973D02*
G01X-10142Y13790D01*
G01X-10005Y13669D01*
G01X-9802Y13626D01*
G01X-9611Y13665D01*
G01X-9477Y13776D01*
G01X-9430Y13945D01*
G01X-9462Y14081D01*
G01X-9547Y14187D01*
G01X-9267Y14084D01*
G01X-9175Y13814D01*
G01Y13784D01*
G01X-9054D01*
G01Y13811D01*
G01X-9208Y14201D01*
G01X-9686Y14330D01*
G01X-9727D01*
G01X-9756Y14322D01*
G01Y14188D01*
G01X-9699D01*
G01X-9591Y14100D01*
G01X-9547Y13968D01*
G01X-9621Y13821D01*
G01X-9810Y13766D01*
G01X-10000Y13823D01*
G01X-10072Y13974D01*
G01X-9984Y14127D01*
G01X-9756Y14188D01*
G01Y14322D01*
G01X-10066Y14235D01*
G01X-10190Y13973D01*
G37*
G36*
G01X-10055Y15113D02*
G01Y15139D01*
G01X-10175D01*
G01Y15114D01*
G01X-10008Y14721D01*
G01X-9536Y14590D01*
G01X-9481D01*
G01X-9163Y14689D01*
G01X-9040Y14950D01*
G01X-9144Y15203D01*
G01X-9413Y15295D01*
G01Y15156D01*
G01X-9228Y15101D01*
G01X-9157Y14950D01*
G01X-9242Y14795D01*
G01X-9465Y14733D01*
G01X-9517D01*
G01X-9627Y14818D01*
G01X-9671Y14952D01*
G01X-9600Y15100D01*
G01X-9413Y15156D01*
G01Y15295D01*
G01X-9420Y15297D01*
G01X-9686Y15210D01*
G01X-9789Y14976D01*
G01X-9688Y14735D01*
G01X-9956Y14849D01*
G01X-10055Y15113D01*
G37*
G36*
G01X-10095Y16243D02*
G01X-9055Y15779D01*
G01Y15630D01*
G01X-10058Y16092D01*
G01Y15486D01*
G01X-10175D01*
G01Y16243D01*
G01X-10095D01*
G37*
G36*
G01X-9887Y16970D02*
G01X-9795Y16973D01*
G01X-9902Y17220D01*
G01X-9769Y17458D01*
G01X-9866Y17566D01*
G01X-9902Y17723D01*
G01X-9613Y18002D01*
G01X-9055D01*
G01Y17859D01*
G01X-9604D01*
G01X-9738Y17819D01*
G01X-9782Y17682D01*
G01X-9734Y17550D01*
G01X-9607Y17489D01*
G01X-9055D01*
G01Y17346D01*
G01X-9600D01*
G01X-9782Y17169D01*
G01X-9663Y16977D01*
G01X-9055D01*
G01Y16835D01*
G01X-9887D01*
G01Y16970D01*
G37*
G36*
G01X-9887Y18350D02*
G01X-9795Y18353D01*
G01X-9902Y18600D01*
G01X-9769Y18838D01*
G01X-9866Y18946D01*
G01X-9902Y19103D01*
G01X-9613Y19381D01*
G01X-9055D01*
G01Y19239D01*
G01X-9604D01*
G01X-9738Y19198D01*
G01X-9782Y19062D01*
G01X-9734Y18930D01*
G01X-9607Y18869D01*
G01X-9055D01*
G01Y18726D01*
G01X-9600D01*
G01X-9782Y18549D01*
G01X-9663Y18357D01*
G01X-9055D01*
G01Y18215D01*
G01X-9887D01*
G01Y18350D01*
G37*
D14*
G01X-5906Y528D02*
G01X0Y539D01*
G01X-5906Y921D02*
G01Y528D01*
G01X-5513Y922D02*
G01X-5512Y529D01*
G01X-5119Y923D02*
G01X-5118Y529D01*
G01X-4725Y924D02*
G01X-4724Y530D01*
G01X-4331Y924D02*
G01Y531D01*
G01X-3938Y925D02*
G01X-3937Y532D01*
G01X-3544Y926D02*
G01X-3543Y532D01*
G01X-3150Y927D02*
G01Y533D01*
G01X-2757Y927D02*
G01X-2756Y534D01*
G01X-2363Y928D02*
G01X-2362Y534D01*
G01X-1969Y929D02*
G01Y535D01*
G01X-1576Y930D02*
G01X-1575Y536D01*
G01X-1182Y930D02*
G01X-1181Y537D01*
G01X-788Y931D02*
G01X-787Y537D01*
G01X-394Y932D02*
G01Y538D01*
G01X-1Y933D02*
G01X0Y539D01*
G36*
G01X-6236Y4136D02*
G01X-6147Y3781D01*
G01X-5882Y3662D01*
G01X-5615Y3784D01*
G01X-5530Y4155D01*
G01Y4339D01*
G01X-5617Y4697D01*
G01X-5883Y4812D01*
G01Y4695D01*
G01X-5723Y4613D01*
G01X-5672Y4349D01*
G01Y4116D01*
G01X-5725Y3860D01*
G01X-5882Y3778D01*
G01X-6041Y3865D01*
G01X-6094Y4133D01*
G01Y4360D01*
G01X-6043Y4613D01*
G01X-5883Y4695D01*
G01Y4812D01*
G01X-6151Y4692D01*
G01X-6236Y4326D01*
G01Y4136D01*
G37*
D14*
G01X-1970Y1323D02*
G01X-1969Y535D01*
G36*
G01X-2117Y1323D02*
G01X-2188D01*
G01Y1797D01*
G01X-2332Y1744D01*
G01Y1809D01*
G01X-2128Y1885D01*
G01X-2117D01*
G01Y1323D01*
G37*
G36*
G01X-1883Y1552D02*
G01X-1839Y1374D01*
G01X-1706Y1315D01*
G01X-1573Y1376D01*
G01X-1530Y1561D01*
G01Y1654D01*
G01X-1574Y1832D01*
G01X-1707Y1890D01*
G01Y1832D01*
G01X-1627Y1790D01*
G01X-1601Y1659D01*
G01Y1542D01*
G01X-1628Y1414D01*
G01X-1706Y1373D01*
G01X-1786Y1416D01*
G01X-1812Y1550D01*
G01Y1664D01*
G01X-1787Y1791D01*
G01X-1707Y1832D01*
G01Y1890D01*
G01X-1841Y1830D01*
G01X-1883Y1647D01*
G01Y1552D01*
G37*
D14*
G01X-5911Y3677D02*
G01X-5906Y528D01*
G01X-6Y3689D02*
G01X0Y539D01*
G36*
G01X582Y3689D02*
G01X439D01*
G01Y4637D01*
G01X152Y4531D01*
G01Y4660D01*
G01X560Y4814D01*
G01X582D01*
G01Y3689D01*
G37*
G36*
G01X1119Y4250D02*
G01X1176Y4808D01*
G01X1750D01*
G01Y4677D01*
G01X1297D01*
G01X1263Y4371D01*
G01X1450Y4420D01*
G01X1693Y4319D01*
G01X1783Y4045D01*
G01X1689Y3773D01*
G01X1428Y3673D01*
G01X1186Y3755D01*
G01X1079Y3983D01*
G01X1214D01*
G01X1282Y3838D01*
G01X1428Y3789D01*
G01X1584Y3857D01*
G01X1640Y4044D01*
G01X1579Y4224D01*
G01X1417Y4292D01*
G01X1271Y4251D01*
G01X1233Y4221D01*
G01X1119Y4250D01*
G37*
G36*
G01X1983Y3763D02*
G01X2005Y3825D01*
G01X2071Y3849D01*
G01X2137Y3825D01*
G01X2160Y3763D01*
G01X2137Y3704D01*
G01X2071Y3680D01*
G01X2005Y3704D01*
G01X1983Y3763D01*
G37*
G36*
G01X2403Y4147D02*
G01X2492Y3792D01*
G01X2757Y3673D01*
G01X3024Y3795D01*
G01X3109Y4166D01*
G01Y4351D01*
G01X3022Y4708D01*
G01X2755Y4824D01*
G01Y4707D01*
G01X2916Y4624D01*
G01X2967Y4361D01*
G01Y4128D01*
G01X2913Y3871D01*
G01X2757Y3789D01*
G01X2597Y3876D01*
G01X2545Y4144D01*
G01Y4371D01*
G01X2596Y4624D01*
G01X2755Y4707D01*
G01Y4824D01*
G01X2488Y4704D01*
G01X2403Y4337D01*
G01Y4147D01*
G37*
G36*
G01X3341Y4147D02*
G01X3431Y3792D01*
G01X3696Y3673D01*
G01X3963Y3795D01*
G01X4048Y4166D01*
G01Y4351D01*
G01X3961Y4708D01*
G01X3694Y4824D01*
G01Y4707D01*
G01X3855Y4624D01*
G01X3906Y4361D01*
G01Y4128D01*
G01X3852Y3871D01*
G01X3696Y3789D01*
G01X3536Y3876D01*
G01X3484Y4144D01*
G01Y4371D01*
G01X3535Y4624D01*
G01X3694Y4707D01*
G01Y4824D01*
G01X3427Y4704D01*
G01X3341Y4337D01*
G01Y4147D01*
G37*
G36*
G01X4280Y4147D02*
G01X4370Y3792D01*
G01X4635Y3673D01*
G01X4902Y3795D01*
G01X4987Y4166D01*
G01Y4351D01*
G01X4899Y4708D01*
G01X4633Y4824D01*
G01Y4707D01*
G01X4794Y4624D01*
G01X4845Y4361D01*
G01Y4128D01*
G01X4791Y3871D01*
G01X4635Y3789D01*
G01X4475Y3876D01*
G01X4423Y4144D01*
G01Y4371D01*
G01X4474Y4624D01*
G01X4633Y4707D01*
G01Y4824D01*
G01X4366Y4704D01*
G01X4280Y4337D01*
G01Y4147D01*
G37*
G36*
G01X5735Y4521D02*
G01X5739Y4428D01*
G01X5985Y4536D01*
G01X6223Y4402D01*
G01X6331Y4499D01*
G01X6488Y4536D01*
G01X6767Y4246D01*
G01Y3689D01*
G01X6624D01*
G01Y4238D01*
G01X6584Y4371D01*
G01X6447Y4415D01*
G01X6315Y4368D01*
G01X6254Y4241D01*
G01Y3689D01*
G01X6111D01*
G01Y4234D01*
G01X5934Y4415D01*
G01X5742Y4296D01*
G01Y3689D01*
G01X5600D01*
G01Y4521D01*
G01X5735D01*
G37*
G36*
G01X7115Y4521D02*
G01X7118Y4428D01*
G01X7365Y4536D01*
G01X7603Y4402D01*
G01X7711Y4499D01*
G01X7868Y4536D01*
G01X8147Y4246D01*
G01Y3689D01*
G01X8004D01*
G01Y4238D01*
G01X7964Y4371D01*
G01X7827Y4415D01*
G01X7695Y4368D01*
G01X7634Y4241D01*
G01Y3689D01*
G01X7491D01*
G01Y4234D01*
G01X7314Y4415D01*
G01X7122Y4296D01*
G01Y3689D01*
G01X6980D01*
G01Y4521D01*
G01X7115D01*
G37*
D15*
X-4921Y-1142D03*
Y2204D03*
G36*
G01X0Y138D02*
G01Y1200D01*
G01X-3936D01*
G01X-5905Y925D01*
G01Y137D01*
G01X-3936Y-138D01*
G01X12839D01*
G01Y138D01*
G01X0D01*
G37*
G36*
G01X0Y-464D02*
G01X12839D01*
G01Y-469D01*
G01X25672D01*
G01Y-183D01*
G01X12839D01*
G01Y-188D01*
G01X0D01*
G01Y-464D01*
G37*
G36*
G01X25672Y-530D02*
G01Y-527D01*
G01X12839D01*
G01Y-812D01*
G01X25672D01*
G01Y-809D01*
G01X38155D01*
G01Y-530D01*
G01X25672D01*
G37*
G36*
G01X25672Y-1131D02*
G01X38155D01*
G01X50851D01*
G01Y-852D01*
G01X38155D01*
G01X25672D01*
G01Y-1131D01*
G37*
G36*
G01X38155Y-1453D02*
G01X50851D01*
G01Y-2512D01*
G01X55575D01*
G01X57543Y-2237D01*
G01Y-1449D01*
G01X55575Y-1174D01*
G01X38155D01*
G01Y-1453D01*
G37*
D15*
X56559Y-3516D03*
Y-170D03*
M02*

